<svg xmlns="http://www.w3.org/2000/svg" viewBox="0 0 143.7 143.85"><path fill="currentColor" d="M60.04 109.24v33.35l.08 1.26-1.28-.08H42.66l-1.28.08.08-1.26v-30.42c0-8.87-5.1-13.1-11.4-13.1s-11.4 4.24-11.4 13.1v30.42l.08 1.26-1.28-.08H1.28l-1.28.08.08-1.26v-30.42c0-16.56 13.42-29.98 29.98-29.98 7.05 0 13.51 2.44 18.63 6.51l.36 1.1.36-1.07c.52-.57 1.07-1.12 1.63-1.64l1.1-.25-1.02-.47c-4.42-4.93-7.13-11.44-7.13-18.58V1.26L43.91 0l1.28.08h16.18L62.65 0l-.08 1.26v66.53c0 7.22 4.16 10.66 9.28 10.66s9.28-3.45 9.28-10.66V1.26L81.05 0l1.28.08h16.18L99.79 0l-.08 1.26v66.53c0 7.15-2.71 13.65-7.13 18.58l-1.02.47 1.1.25c.56.53 1.11 1.08 1.63 1.64l.36 1.07.36-1.1c5.12-4.07 11.59-6.51 18.63-6.51 16.56 0 29.98 13.42 29.98 29.98v30.42l.08 1.26-1.28-.08h-16.18l-1.28.08.08-1.26v-30.42c0-8.87-5.11-13.1-11.4-13.1-6.3 0-11.4 4.24-11.4 13.1v30.42l.08 1.26-1.28-.08H84.86l-1.28.08.08-1.26v-33.35c0-9.19-5.29-13.58-11.81-13.58-6.52.01-11.81 4.4-11.81 13.58z"/></svg>