<svg xmlns="http://www.w3.org/2000/svg" viewBox="0 0 359 157"><path d="M303.25 76.67v20.49h-11.01l.05-.75v-18c0-5.25-3-7.76-6.75-7.76s-6.75 2.51-6.75 7.76v18.75H267.7l.05-.75v-18a17.74 17.74 0 0 1 28.78-13.9l.21.65.21-.63c.32-.34.64-.66 1-1l.65-.15-.6-.28a16.41 16.41 0 0 1-4.22-11V12.75l-.08-.75.76.05H304l.75-.05v40.13c0 4.27 2.46 6.31 5.49 6.31s5.49-2 5.49-6.31V12l.75.05H326l.76-.05v40.13a16.41 16.41 0 0 1-4.22 11l-.6.28.65.15c.33.31.66.63 1 1l.21.63.21-.65a17.74 17.74 0 0 1 28.78 13.9v18.75H341.7V78.44c0-5.25-3-7.76-6.75-7.76s-6.75 2.51-6.75 7.76v18.75h-11.09V76.67c0-5.44-3.13-8-7-8s-7 2.6-7 8" style="fill:#006bb6"/><path d="M87.36 141a8.85 8.85 0 0 1-5.77 2.06c-3.47 0-6.44-2.52-6.44-9.35 0-7 2.43-10.3 6.38-10.3a7.41 7.41 0 0 1 5.83 2.38V141Zm0 4.69h10.13v-1.06l-3.75-.9v-34.46H83.33v1.18l4 1.12v11.65a12.32 12.32 0 0 0-8-2.7c-6.33 0-11 5.55-11 13.27 0 7.91 4.27 12.49 11 12.49a11.7 11.7 0 0 0 8-3v2.46M182.67 109.27v1.12l-3.81 1v32.2l3.81 1.01v1.12h-15.83v-1.17l5.08-.96v-25.64l-11.84 27.77h-2.74l-11.63-27.89v25.76l4.89.84v1.29h-11.44v-1.12l3.24-.95v-32.31l-3.24-.95v-1.12h10.19l11.33 27.9 11.65-27.9h10.34M198.58 122.31c4.36 0 6.66 4.88 6.66 11s-2.3 11.14-6.66 11.14-6.67-5-6.67-11.14 2.35-11 6.67-11Zm0-1.79c-7.17 0-13.61 5-13.61 12.88 0 7.67 6.49 12.88 13.61 12.88s13.66-5.21 13.66-12.88c0-7.89-6.5-12.88-13.66-12.88M330.43 141.63a7.33 7.33 0 0 1-4.42 1.68c-3.25.06-4.15-2-4.15-4.31s1.63-4 4.59-4.53l4-.45v7.61Zm0-13.49v4.2l-5.65.28c-5.49.17-8.91 3.13-8.91 7.22s3.08 6.44 7.17 6.44a12.27 12.27 0 0 0 7.39-2.8v2.24h9.28v-1.06l-3-.9v-16.69c0-3.64-2.41-6.55-7.84-6.55a25.5 25.5 0 0 0-11 2.41v5.77h2.77l.92-4.8a10.78 10.78 0 0 1 5.1-.63c3.3.27 3.7 2.57 3.75 4.87M356.48 144.66v1.06h-13.89v-1.06l3.75-.9V111.4l-3.75-.95v-1.18h10.14v34.49l3.75.9M35.45 62.9 30 61.83v-1.17h12.6v1.12l-3.84 1.12V85c0 9.17-5 12.89-15.25 12.89-10.5 0-14.76-4-14.76-12.32V62.73L5 61.78v-1.12h16.13v1.23l-5.49 1v22.3c0 6.76 2.3 10.08 9.35 10.08 7.65 0 10.46-3.45 10.46-10.7V62.9M57.15 96.05v1.06H43.54v-1.06l3.7-.9V74.32l-3.36-.95V72.2h9.74V76c1.12-1 4.65-4.09 9.18-4.09 4.71 0 7.12 2.63 7.12 7.23v16l3.58.86v1.12H60.28V96l3.31-.84v-15.3c0-2.4-.73-4.53-3.75-4.53-2.69 0-5.44 1.9-6.22 2.41v17.41l3.53.9M85.86 95.15l3.69.9v1.06H75.72v-1.06l3.75-.9V74.32l-3.36-.95V72.2h9.75v22.95M86.19 63.62a3.62 3.62 0 0 1-3.69 3.48 3.66 3.66 0 0 1-3.7-3.48 3.7 3.7 0 0 1 3.7-3.52 3.66 3.66 0 0 1 3.69 3.52M195.85 95.15l3.7.9v1.06h-13.83v-1.06l3.75-.9V74.32l-3.36-.95V72.2h9.74v22.95M196.19 63.62a3.62 3.62 0 0 1-3.7 3.48 3.66 3.66 0 0 1-3.7-3.48 3.7 3.7 0 0 1 3.7-3.52 3.66 3.66 0 0 1 3.7 3.52M91.57 73.93l-1.79-.73v-1h12.1v1l-3.87.96 5.56 15.17 5.51-15.29-3.36-.84v-1H114v1l-2.01.96-9.49 23.34h-2.07l-8.86-23.57M131.57 81.15h-9.91c.56-4.25 2.24-7.39 5.2-7.39 3.36 0 4.48 3.92 4.71 7.39Zm-10.19 2h16.46c-.17-6.88-3.75-11.2-11-11.2s-12.37 6.16-12.37 12.88c0 7.79 5.1 12.88 12.43 12.88a17.4 17.4 0 0 0 11.42-3.86l-1.06-1.68a14.47 14.47 0 0 1-9.18 2.58c-4.82-.34-7.23-5.38-6.72-11.6M180.71 73.2l-.56 6.11h-2.3l-.56-4.15a7.59 7.59 0 0 0-4.42-1.4c-2 0-3.59 1.07-3.59 3.25 0 2.58 2.86 3.59 5.72 4.87s7.22 2.86 7.22 7.28c0 5-4.14 8.51-9.13 8.51a22 22 0 0 1-8.09-1.34l-.45-6.78 2.35-.22 1.35 4.59a7.9 7.9 0 0 0 4.75 1.91c3.19 0 4.7-1.68 4.7-4.09 0-2.86-4-4.09-6.61-5.32-2.46-1.18-6.27-2.24-6.27-7.34 0-4.2 3.47-7.17 8.18-7.17a23.29 23.29 0 0 1 7.67 1.29M241.98 63.96l-2.41-3.58L231 67.1l1.4 2.01 9.58-5.15M237.27 81.15h-9.91c.56-4.25 2.24-7.39 5.21-7.39 3.36 0 4.48 3.92 4.7 7.39Zm-10.19 2h16.47c-.17-6.88-3.76-11.2-11-11.2s-12.35 6.12-12.35 12.84c0 7.79 5.09 12.88 12.43 12.88a17.4 17.4 0 0 0 11.42-3.86L243 92.13a14.5 14.5 0 0 1-9.19 2.58c-4.81-.34-7.22-5.38-6.72-11.6M158.92 72c-3.59 0-6.17 2.88-7.63 6.12h-.12V72.2H141v1l3.75 1.09v20.86l-3.75.9v1.06h15.6v-1.23l-5.43-.88V80.84c1.49-3.27 3.68-4.59 5.08-4.59a2.84 2.84 0 0 1 2.25.9 2.45 2.45 0 0 0 2 .25 2.53 2.53 0 0 0 1.55-2.72 3 3 0 0 0-3.13-2.68M228.36 144.66v1.06h-13.61v-1.06l3.7-.9v-20.83l-3.36-1v-1.17h9.74v3.8c1.12-1 4.65-4.09 9.18-4.09 4.71 0 7.12 2.63 7.12 7.23v16l3.58.89v1.12H231.5v-1.11l3.3-.84v-15.29c0-2.4-.73-4.53-3.75-4.53-2.69 0-5.43 1.9-6.22 2.41v17.41l3.53.9M284.27 120.56c-3.59 0-6.17 2.88-7.63 6.12h-.12v-5.87h-10.13v1l3.75 1.09v20.83l-3.75.9v1.06H282v-1.23l-5.44-.9v-14.11c1.49-3.27 3.69-4.6 5.08-4.6a2.85 2.85 0 0 1 2.25.91 2.46 2.46 0 0 0 2 .25 2.53 2.53 0 0 0 1.55-2.72 3 3 0 0 0-3.13-2.73M218.25 94.32a5.56 5.56 0 0 1-3.32 1.08c-2.25 0-3-1.64-3-5.33V74.38l6.38-.95V72.2H212V60.66h-2.08c-.43 6.6-2.76 10.94-8.65 11.54h-1v1.23l5.32.95v16c0 5.09 1.23 7.27 6 7.27a11.38 11.38 0 0 0 7.3-2.35l-.62-1M263.48 142.93a5.62 5.62 0 0 1-3.31 1.08c-2.25 0-3-1.64-3-5.33V123l6.39-.95v-1.23h-6.39v-11.55h-2.08c-.42 6.6-2.76 10.93-8.65 11.54h-1V122l5.32.95v16c0 5.09 1.23 7.27 6 7.27a11.38 11.38 0 0 0 7.3-2.35l-.62-1M116.44 129.76h-9.92c.56-4.25 2.24-7.39 5.21-7.39 3.36 0 4.48 3.92 4.71 7.39Zm-10.2 2h16.47c-.17-6.89-3.75-11.2-11-11.2s-12.37 6.16-12.37 12.88c0 7.79 5.09 12.88 12.43 12.88a17.4 17.4 0 0 0 11.42-3.86l-1.06-1.68a14.51 14.51 0 0 1-9.19 2.57c-4.81-.33-7.22-5.37-6.72-11.59M305.06 129.76h-9.91c.56-4.25 2.24-7.39 5.21-7.39 3.36 0 4.48 3.92 4.7 7.39Zm4.7-17.19-2.4-3.58-8.57 6.72 1.4 2 9.57-5.15Zm-14.89 19.15h16.46c-.17-6.89-3.75-11.2-11-11.2S288 126.68 288 133.4c0 7.78 5.1 12.88 12.43 12.88a17.46 17.46 0 0 0 11.43-3.86l-1.07-1.68a14.54 14.54 0 0 1-9.18 2.57c-4.82-.33-7.23-5.37-6.72-11.59"/></svg>