<?xml version="1.0" encoding="UTF-8"?>
<svg width="50" height="51" version="1.1" viewBox="0 0 50 51" xmlns="http://www.w3.org/2000/svg">
 <rect transform="rotate(180 50 50.5)" x="50" y="50.5" width="50" height="50" rx="25" opacity=".1"/>
 <path d="m32.163 18.924 7.1e-5 9.9437c-0.0054 0.15175-0.06944 0.29543-0.17869 0.40086-0.10918 0.1055-0.25512 0.16447-0.40694 0.1644-0.15182 7e-5 -0.29776-0.0589-0.40694-0.1644-0.10925-0.10543-0.17331-0.24911-0.17869-0.40086l-6.37e-4 -8.5288-11.153 11.153c-0.10988 0.10988-0.25887 0.17162-0.41429 0.17162s-0.30441-0.06173-0.41429-0.17162-0.17169-0.25894-0.17169-0.41436c7.1e-5 -0.15535 0.06173-0.30441 0.17162-0.41429l11.153-11.153-8.5288-6.37e-4c-0.15175-0.0054-0.29543-0.06944-0.40086-0.17869-0.1055-0.10918-0.1644-0.25505-0.1644-0.40694-7e-5 -0.15182 0.05897-0.29769 0.1644-0.40694 0.10543-0.10925 0.24911-0.17331 0.40086-0.17869l9.9437 7.1e-5c0.15528 1.42e-4 0.3042 0.0618 0.41401 0.17162 0.10974 0.10974 0.17147 0.25873 0.17154 0.41394z"/>
</svg>
