<svg width="50" height="50" viewBox="0 0 50 50" fill="none" xmlns="http://www.w3.org/2000/svg">
<rect width="50" height="50" rx="25" fill="#52B782"/>
<path d="M33.5078 25.9131L26.4766 32.9444C26.3655 33.0479 26.2186 33.1042 26.0668 33.1015C25.915 33.0989 25.7701 33.0374 25.6628 32.93C25.5554 32.8227 25.4939 32.6778 25.4913 32.526C25.4886 32.3742 25.5449 32.2273 25.6484 32.1162L31.6787 26.085H15.9062C15.7508 26.085 15.6018 26.0233 15.4919 25.9134C15.382 25.8035 15.3203 25.6545 15.3203 25.4991C15.3203 25.3437 15.382 25.1946 15.4919 25.0847C15.6018 24.9749 15.7508 24.9131 15.9062 24.9131H31.6787L25.6484 18.8819C25.5449 18.7708 25.4886 18.6239 25.4913 18.4721C25.4939 18.3203 25.5554 18.1755 25.6628 18.0681C25.7701 17.9607 25.915 17.8993 26.0668 17.8966C26.2186 17.8939 26.3655 17.9502 26.4766 18.0537L33.5078 25.085C33.6175 25.1949 33.6792 25.3438 33.6792 25.4991C33.6792 25.6543 33.6175 25.8033 33.5078 25.9131Z" fill="#37424D"/>
</svg>
