<svg xmlns="http://www.w3.org/2000/svg" fill="none" viewBox="0 0 24 24"><g fill="currentColor" clip-path="url(#a)"><path d="M7.588 6.96h-.021l.016-1.177c.117 0 2.477-.005 3.906-2.031l.963.68C10.714 6.893 7.885 6.96 7.588 6.96zm-.312 3.048c-.384 0-.782-.02-1.193-.065l.125-1.171c5.817.623 8.456-3.987 8.482-4.034l1.029.574c-.028.05-2.69 4.696-8.443 4.696zm5.936 8.316h-2.71v-1.178h1.532v-3.674c.029-2.393 1.3-3.424 1.51-3.579 1.37-1.088 3.094-1.266 4.987-.513l-.435 1.095c-1.526-.607-2.777-.492-3.827.347l-.039.029c-.034.025-.995.733-1.019 2.629v4.845l.001-.001z"/><path d="M18.096 14.399c-.14-.137-1.404-1.3-2.703-.003l-.833-.832c1.727-1.727 3.612-.755 4.367 0l-.83.835h-.001zm-8.676 0c-.139-.137-1.404-1.3-2.703-.003l-.832-.832c1.727-1.727 3.612-.755 4.367 0l-.831.835z"/><path d="M12.296 23.19c-5.687 0-9.508-4.495-9.508-11.185S6.61.82 12.296.82c5.687 0 9.498 4.495 9.498 11.185S17.977 23.19 12.296 23.19zm0-21.191c-4.983 0-8.33 4.021-8.33 10.007s3.347 10.007 8.33 10.007c4.983 0 8.32-4.021 8.32-10.007 0-5.985-3.343-10.007-8.32-10.007z"/></g><defs><clipPath id="a"><path fill="currentColor" d="M0 0h24v24H0z"/></clipPath></defs></svg>