<?xml version="1.0" encoding="UTF-8" standalone="no"?>
<svg
   width="32"
   height="32"
   fill="#000000"
   viewBox="0 0 256 256"
   version="1.1"
   id="svg1"
   sodipodi:docname="burger.svg"
   inkscape:version="1.3.2 (091e20e, 2023-11-25, custom)"
   xmlns:inkscape="http://www.inkscape.org/namespaces/inkscape"
   xmlns:sodipodi="http://sodipodi.sourceforge.net/DTD/sodipodi-0.dtd"
   xmlns="http://www.w3.org/2000/svg"
   xmlns:svg="http://www.w3.org/2000/svg">
  <defs
     id="defs1" />
  <sodipodi:namedview
     id="namedview1"
     pagecolor="#ffffff"
     bordercolor="#666666"
     borderopacity="1.0"
     inkscape:showpageshadow="2"
     inkscape:pageopacity="0.0"
     inkscape:pagecheckerboard="0"
     inkscape:deskcolor="#d1d1d1"
     inkscape:zoom="25.65625"
     inkscape:cx="15.980512"
     inkscape:cy="16"
     inkscape:window-width="1920"
     inkscape:window-height="1017"
     inkscape:window-x="-8"
     inkscape:window-y="-8"
     inkscape:window-maximized="1"
     inkscape:current-layer="svg1" />
  <path
     d="m 224,128 c 0,4.41828 -3.58172,8 -8,8 H 40 c -4.418281,0 -7.999997,-3.58172 -7.999997,-8 0,-4.41828 3.581716,-8 7.999997,-8 h 176 c 4.41828,0 8,3.58172 8,8 z"
     id="path1"
     sodipodi:nodetypes="sssssss" />
  <path
     d="M 86.000001,72 H 218 c 3.31371,0 6,-3.581722 6,-8 0,-4.418278 -2.68629,-8 -6,-8 H 86.000001 c -3.313711,0 -5.999998,3.581722 -5.999998,8 0,4.418278 2.686287,8 5.999998,8 z"
     id="path1-9"
     style="stroke-width:1;stroke-dasharray:none" />
  <path
     d="M 218,184 H 86.000001 c -3.313711,0 -5.999998,3.58172 -5.999998,8 0,4.41828 2.686287,8 5.999998,8 H 218 c 3.31371,0 6,-3.58172 6,-8 0,-4.41828 -2.68629,-8 -6,-8 z"
     id="path1-5"
     style="stroke-width:1;stroke-dasharray:none" />
</svg>
