<?xml version="1.0" encoding="UTF-8" standalone="no"?>
<svg
   width="24"
   height="24"
   viewBox="0 0 24 24"
   fill="none"
   version="1.1"
   id="svg6"
   sodipodi:docname="sofia.svg"
   inkscape:version="1.3.2 (091e20e, 2023-11-25, custom)"
   xmlns:inkscape="http://www.inkscape.org/namespaces/inkscape"
   xmlns:sodipodi="http://sodipodi.sourceforge.net/DTD/sodipodi-0.dtd"
   xmlns="http://www.w3.org/2000/svg"
   xmlns:svg="http://www.w3.org/2000/svg">
  <sodipodi:namedview
     id="namedview6"
     pagecolor="#ffffff"
     bordercolor="#666666"
     borderopacity="1.0"
     inkscape:showpageshadow="2"
     inkscape:pageopacity="0.0"
     inkscape:pagecheckerboard="0"
     inkscape:deskcolor="#d1d1d1"
     showgrid="false"
     inkscape:zoom="3.3716472"
     inkscape:cx="277.46082"
     inkscape:cy="103.06535"
     inkscape:window-width="2880"
     inkscape:window-height="1526"
     inkscape:window-x="2869"
     inkscape:window-y="-11"
     inkscape:window-maximized="1"
     inkscape:current-layer="svg6" />
  <g
     clip-path="url(#clip0_5700_4401)"
     id="g6">
    <path
       d="M7.58811 6.96073H7.56689L7.58268 5.78278C7.69959 5.78377 10.0599 5.77834 11.489 3.75195L12.4518 4.4312C10.714 6.89414 7.88506 6.96073 7.58811 6.96073Z"
       fill="currentColor"
       id="path1" />
    <path
       d="M7.27625 10.0085C6.89199 10.0085 6.49441 9.98776 6.08252 9.94336L6.20781 8.77232C12.0251 9.39582 14.6641 4.78514 14.6897 4.73828L15.7187 5.31196C15.6906 5.36179 13.0299 10.0085 7.27625 10.0085Z"
       fill="currentColor"
       id="path2" />
    <path
       d="M13.2125 18.3239H10.502V17.146H12.0341V13.472C12.0632 11.0792 13.3344 10.0477 13.545 9.89331C14.9138 8.80514 16.6383 8.62706 18.5311 9.37981L18.096 10.4744C16.5708 9.86815 15.3193 9.98309 14.2691 10.8222L14.2306 10.8508C14.1961 10.8759 13.2352 11.5843 13.212 13.4794V18.3244L13.2125 18.3239Z"
       fill="currentColor"
       id="path3" />
    <path
       d="M18.0964 14.3989C17.9568 14.2617 16.692 13.0991 15.3932 14.3964L14.5605 13.5637C16.2875 11.8368 18.1723 12.8085 18.9275 13.5637L18.0969 14.3989H18.0964Z"
       fill="currentColor"
       id="path4" />
    <path
       d="M9.42059 14.3989C9.28148 14.2617 8.01622 13.0991 6.71742 14.3964L5.88477 13.5637C7.61223 11.8368 9.49655 12.8085 10.2518 13.5637L9.42108 14.3989H9.42059Z"
       fill="currentColor"
       id="path5" />
    <path
       d="M12.2965 23.1895C6.60951 23.1895 2.78857 18.6948 2.78857 12.0049C2.78857 5.31507 6.60951 0.820312 12.2965 0.820312C17.9835 0.820312 21.7946 5.31507 21.7946 12.0049C21.7946 18.6948 17.9776 23.1895 12.2965 23.1895ZM12.2965 1.99826C7.31392 1.99826 3.96652 6.01947 3.96652 12.0049C3.96652 17.9904 7.31392 22.0116 12.2965 22.0116C17.2791 22.0116 20.6167 17.9904 20.6167 12.0049C20.6167 6.01947 17.2732 1.99826 12.2965 1.99826Z"
       fill="currentColor"
       id="path6" />
  </g>
  <defs
     id="defs6">
    <clipPath
       id="clip0_5700_4401">
      <rect
         width="24"
         height="24"
         fill="currentColor"
         id="rect6" />
    </clipPath>
  </defs>
</svg>
