<svg width="26" height="25" viewBox="0 0 26 25" fill="none" xmlns="http://www.w3.org/2000/svg">
<path d="M11.4375 10.1559C11.4375 10.3631 11.3552 10.5618 11.2087 10.7083C11.0622 10.8548 10.8635 10.9371 10.6562 10.9371H9.875V14.8433C9.875 15.0506 9.79269 15.2493 9.64618 15.3958C9.49966 15.5423 9.30095 15.6246 9.09375 15.6246C8.88655 15.6246 8.68784 15.5423 8.54132 15.3958C8.39481 15.2493 8.3125 15.0506 8.3125 14.8433V10.9371H7.53125C7.32405 10.9371 7.12534 10.8548 6.97882 10.7083C6.83231 10.5618 6.75 10.3631 6.75 10.1559C6.75 9.94865 6.83231 9.74994 6.97882 9.60342C7.12534 9.45691 7.32405 9.3746 7.53125 9.3746H10.6562C10.8635 9.3746 11.0622 9.45691 11.2087 9.60342C11.3552 9.74994 11.4375 9.94865 11.4375 10.1559ZM23.1562 9.05624V14.8433C23.1561 15.8222 22.7883 16.7654 22.1259 17.4861C21.4634 18.2068 20.5545 18.6525 19.5791 18.735C19.1143 19.8909 18.3147 20.8816 17.2829 21.5798C16.251 22.278 15.034 22.6519 13.7881 22.6535C12.5423 22.655 11.3243 22.2842 10.2907 21.5886C9.25712 20.893 8.45498 19.9044 7.9873 18.7496H4.40625C3.99185 18.7496 3.59442 18.585 3.3014 18.292C3.00837 17.9989 2.84375 17.6015 2.84375 17.1871V7.8121C2.84375 7.3977 3.00837 7.00027 3.3014 6.70725C3.59442 6.41422 3.99185 6.2496 4.40625 6.2496H9.9541C9.77146 5.34968 9.91169 4.41418 10.3502 3.60737C10.7887 2.80056 11.4974 2.17401 12.3518 1.83775C13.2063 1.50148 14.152 1.47699 15.0227 1.76858C15.8934 2.06016 16.6336 2.64918 17.1133 3.43222C17.7152 3.14294 18.3939 3.05407 19.05 3.17866C19.706 3.30324 20.305 3.63471 20.7589 4.12448C21.2129 4.61426 21.498 5.23657 21.5725 5.9002C21.647 6.56383 21.5069 7.23387 21.1729 7.8121H21.9121C22.2419 7.81262 22.5581 7.94386 22.7913 8.17707C23.0245 8.41028 23.1557 8.72643 23.1562 9.05624ZM11.4375 5.46835C11.4374 5.73456 11.483 5.99881 11.5723 6.2496H13.7812C14.1043 6.25 14.4192 6.3505 14.6828 6.53728C14.9463 6.72405 15.1455 6.98792 15.2529 7.29257C15.5611 7.04392 15.8013 6.72124 15.951 6.35464C16.1007 5.98804 16.1551 5.58949 16.1091 5.19618C16.0631 4.80287 15.9182 4.42763 15.6879 4.10548C15.4576 3.78333 15.1495 3.52479 14.7922 3.35398C14.435 3.18317 14.0403 3.10566 13.6449 3.12869C13.2496 3.15172 12.8666 3.27454 12.5316 3.48569C12.1966 3.69683 11.9205 3.98941 11.7292 4.33612C11.5379 4.68283 11.4375 5.07236 11.4375 5.46835ZM13.7812 17.1871V7.8121H4.40625V17.1871H13.7812ZM18.4688 9.3746H15.3438V17.1871C15.3438 17.6015 15.1791 17.9989 14.8861 18.292C14.5931 18.585 14.1957 18.7496 13.7812 18.7496H9.72266C10.2388 19.6428 11.0352 20.3408 11.9883 20.7353C12.9415 21.1299 13.9981 21.1991 14.9946 20.932C15.991 20.665 16.8715 20.0768 17.4997 19.2584C18.1278 18.4401 18.4684 17.4374 18.4688 16.4058V9.3746ZM20.0312 6.2496C20.0309 5.97161 19.9565 5.69874 19.8155 5.45913C19.6746 5.21952 19.4723 5.02185 19.2295 4.88651C18.9867 4.75117 18.7121 4.68306 18.4342 4.6892C18.1563 4.69535 17.885 4.77553 17.6484 4.92148C17.7208 5.42843 17.6925 5.94468 17.5651 6.44068C17.4378 6.93668 17.2139 7.40271 16.9062 7.8121H18.4688C18.8832 7.8121 19.2806 7.64748 19.5736 7.35445C19.8666 7.06143 20.0312 6.664 20.0312 6.2496ZM21.5938 9.3746H20.0312V16.4058C20.0314 16.626 20.0196 16.8461 19.9961 17.065C20.4615 16.9087 20.8662 16.6102 21.1528 16.2116C21.4395 15.8129 21.5937 15.3343 21.5938 14.8433V9.3746Z" fill="#0057AC"/>
</svg>
