<svg xmlns="http://www.w3.org/2000/svg" viewBox="0 0 1000 1000"><path d="M0 0h997.4v1000H0z" style="fill:#e3f0f9"/><path d="M774.9 484.1V245.8c0-43-34.7-77.7-77.7-77.7H244.5c-43 0-77.7 34.7-77.7 77.7v250.6c0 43 34.7 77.7 77.7 77.7h620.4z" style="fill:#0b113a"/><path d="M321 356.6c17.7 0 32.6 12.5 36.1 29h25c0-16.3-9-30.5-22.2-37.8 6.4-8.3 10.4-18.7 10.4-29.8 0-26.7-21.7-48.4-48.4-48.4s-48.4 21.7-48.4 48.4 3.8 21.3 9.9 29.3c-13.7 7.3-23.1 21.7-23.1 38.3h25c3.5-16.8 18.4-29 36.1-29h-.5Zm.7-61.1c12.5 0 22.7 10.2 22.7 22.7s-10.2 22.7-22.7 22.7-22.7-10.2-22.7-22.7 10.2-22.7 22.7-22.7m300.2 61.1c17.7 0 32.6 12.5 36.1 29h25c0-16.3-9-30.5-22.2-37.8 6.4-8.3 10.4-18.7 10.4-29.8 0-26.7-21.7-48.4-48.4-48.4s-48.4 21.7-48.4 48.4 3.8 21.3 9.9 29.3c-13.7 7.3-23.1 21.7-23.1 38.3h25c3.5-16.8 18.4-29 36.1-29h-.5Zm.7-61.1c12.5 0 22.7 10.2 22.7 22.7s-10.2 22.7-22.7 22.7-22.7-10.2-22.7-22.7 10.2-22.7 22.7-22.7" style="fill:#0057ac"/><path d="M471.9 258.9c-41.3 0-75.1 33.8-75.1 75.1s33.8 75.1 75.1 75.1S547 375.3 547 334s-33.8-75.1-75.1-75.1m0 119.9c-24.8 0-44.9-20.1-44.9-44.9s20.1-44.9 44.9-44.9 44.9 20.1 44.9 44.9-20.1 44.9-44.9 44.9m47 104.6h-95.2v-5.2c0-16.5-13.5-30-30-30H258.9v-35h134.8c29.8 0 54.8 20.1 62.6 47.5h30c7.6-27.4 32.8-47.5 62.6-47.5h133.7v35H548.9c-16.5 0-30 13.5-30 30z" style="fill:#fee1de"/><path d="M464.3 460.8c0-16.1-22.7-56.7-71.6-56.7H286m192.3 56.7c0-16.1 22.7-56.7 71.6-56.7h106.5" style="fill:none;stroke:#fee1de;stroke-miterlimit:10;stroke-width:5.9px"/><text style="fill:#000838;font-family:Figtree-Black,Figtree;font-size:98.1px;font-weight:800" transform="translate(209.6 717.9)"><tspan x="0" y="0">Bibliothèques</tspan><tspan x="117" y="117.7">vivantes</tspan></text></svg>