<?xml version="1.0" encoding="UTF-8"?>
<svg id="Calque_1" xmlns="http://www.w3.org/2000/svg" viewBox="0 0 432 432">
  <defs>
    <style>
      .cls-1 {
        fill: #ff5a28;
      }

      .cls-2 {
        fill: #fff;
      }
    </style>
  </defs>
  <rect class="cls-1" x="33.07" y="33.07" width="365.86" height="365.86" rx="50.97" ry="50.97"/>
  <g>
    <g>
      <polygon class="cls-2" points="227.36 241.21 146.03 194.82 146.03 300.74 227.36 348.07 227.36 241.21"/>
      <polygon class="cls-2" points="243.34 241.1 243.34 347.91 324.39 300.74 324.39 195.45 243.34 241.1"/>
    </g>
    <polygon class="cls-2" points="235.86 226.88 181.39 195.5 181.39 131.65 235.86 162.4 235.86 226.88"/>
    <polygon class="cls-2" points="241.16 95.95 241.16 117.25 276.9 137.32 276.9 181.98 295.62 192.76 295.62 126.63 241.16 95.95"/>
    <polygon class="cls-2" points="212.08 114.15 212.08 135.77 247.5 156.18 247.5 198.36 266.54 209.33 266.54 144.75 212.08 114.15"/>
    <polygon class="cls-2" points="201.33 108.15 158.65 83.93 67.4 135.38 148.89 182.85 170.98 170.65 170.98 113.11 201.33 130.13 201.33 108.15"/>
  </g>
</svg>