<svg xmlns="http://www.w3.org/2000/svg" xml:space="preserve" viewBox="0 0 720 720"><path fill="#0057ac" d="M-2.1 0h721.9v719.9H-2.1z"/><path fill="none" d="M434.6 483.8c0 6.2 4.2 10.7 10.1 10.7 5.8 0 10.1-4.6 10.1-10.7s-4.4-10.8-10.1-10.8c-5.8 0-10.1 4.6-10.1 10.8zm-68-10.8c-5.9 0-10.1 4.5-10.1 10.8s4.2 10.7 10.1 10.7 10.1-4.5 10.1-10.7c0-6.3-4.3-10.8-10.1-10.8zm-241.8 7.6h19c-.9-4.8-4.7-8-9.6-8-4.8 0-8.5 3.1-9.4 8zm78.7 3.2c0 6.2 4.2 10.7 10.1 10.7 5.8 0 10.1-4.6 10.1-10.7s-4.4-10.8-10.1-10.8c-5.8 0-10.1 4.6-10.1 10.8zm272.7-3.2h19c-.9-4.8-4.7-8-9.6-8-4.8 0-8.5 3.1-9.4 8z"/><path fill="#fff" d="M134.4 466.5c-10 0-17.2 7.1-17.2 16.9 0 10.3 7.2 17.5 17.5 17.5 7.5 0 13.3-3.3 15.7-8.8l.1-.1-6.2-2.3-.1.1c-1.7 3.2-5.2 5.2-9.2 5.2-5.4 0-9.3-3.4-10.1-8.8h26.6v-.1c.1-.8.1-1.8.1-2.5-.2-10.1-7.2-17.1-17.2-17.1zm9.4 14.1h-19c.9-4.9 4.6-8 9.4-8 4.9 0 8.7 3.2 9.6 8zm27.8 14.4c-2.7 0-4.5-1.8-4.5-4.7v-17h7.8v-5.6h-7.8l.1-10.3h-5.8l-1.5 10.3h-5v5.6h4.8v17.3c0 6.3 3.8 10.3 9.7 10.3 1.6 0 3.9-.3 5.7-.9h.1v-5.6h-.2c-1.1.4-2.5.6-3.4.6zm51.7-23.1h-.4c-2.3-3.4-6.3-5.3-10.9-5.3-9.3 0-16 7.2-16 17.2 0 9.9 6.7 17.2 16 17.2 4.7 0 8.5-1.9 10.8-5.4h.4v4.3h7.4v-46.5h-7.4v18.5zm.4 11.9c0 6.1-4.4 10.7-10.1 10.7-5.8 0-10.1-4.5-10.1-10.7 0-6.1 4.3-10.8 10.1-10.8 5.7 0 10.1 4.6 10.1 10.8zm37.6 2.3c0 4.6-3.7 8.3-8.4 8.3-4.4 0-7.2-3.1-7.2-7.8v-18.9h-7.4v19.4c0 8.1 5.3 13.7 12.9 13.7 4 0 7.3-1.8 9.7-5.3h.4v4.3h7.3v-32.1h-7.3v18.4zm69-19.5c-4.5 0-8.2 2.1-10.5 5.9h-.5c-1.8-3.6-5.9-6-10.1-6-3.9 0-7.3 2.1-9.3 5.6h-.4v-4.4h-7.2v32.1h7.4v-18.7c0-4.9 2.8-8.1 7.2-8.1 4.2 0 6.9 3.2 6.9 8.1v18.7h7.4v-18.7c0-4.7 3-8.1 7.3-8.1 4.1.1 7.1 3.5 7.1 8.1v18.7h7.3v-19.4c.1-8-5.3-13.8-12.6-13.8zm36.3-.1c-5.1 0-9.5 1.7-12.6 4.8-3.2 3.1-4.8 7.4-4.8 12.4s1.7 9.3 4.9 12.4 7.5 4.8 12.6 4.8 9.4-1.6 12.6-4.8c3.2-3.1 4.9-7.4 4.9-12.4-.2-10.1-7.4-17.2-17.6-17.2zm10.1 17.3c0 6.2-4.3 10.7-10.1 10.7-6 0-10.1-4.4-10.1-10.7 0-6.2 4.3-10.8 10.1-10.8s10.1 4.5 10.1 10.8zm31.4-17.1c-4 0-7.3 1.8-9.7 5.3h-.4v-4.3h-7.3v32.1h7.3v-18.4c0-4.6 3.7-8.3 8.4-8.3 4.4 0 7.2 3.1 7.2 7.8v18.9h7.4v-19.4c0-8.1-5.3-13.7-12.9-13.7zm46.4 5.2h-.5c-2.3-3.4-6.3-5.3-10.9-5.3-9.3 0-16 7.2-16 17.2 0 9.9 6.7 17.2 16 17.2 4.7 0 8.5-1.9 10.8-5.4h.4v4.3h7.4v-46.5h-7.4v18.5zm.3 11.9c0 6.1-4.4 10.7-10.1 10.7-5.8 0-10.1-4.5-10.1-10.7 0-6.1 4.3-10.8 10.1-10.8 5.7 0 10.1 4.6 10.1 10.8zm31-17.3c-10 0-17.2 7.1-17.2 16.9 0 10.3 7.2 17.5 17.5 17.5 7.5 0 13.3-3.3 15.7-8.8l.1-.1-6.1-2.3h-.1l-.1.1c-1.8 3.2-5.2 5.2-9.2 5.2-5.4 0-9.3-3.4-10.1-8.8h26.6v-.1c.1-.8.1-1.8.1-2.5-.2-10.1-7.2-17.1-17.2-17.1zm9.4 14.1h-19c.9-4.9 4.6-8 9.4-8 4.9 0 8.7 3.2 9.6 8zm16.3 11.2c-2.6 0-4.5 1.8-4.5 4.4 0 2.5 1.9 4.4 4.5 4.4 2.7 0 4.5-1.8 4.5-4.4s-1.9-4.4-4.5-4.4zm10.1-184.9V334l.1 1-1-.1h-13.1l-1 .1.1-1v-24.7c0-7.2-4.1-10.6-9.3-10.6-5.1 0-9.3 3.4-9.3 10.6V334l.1 1-1-.1h-13.1l-1 .1.1-1v-24.7c0-13.4 10.9-24.3 24.3-24.3 5.7 0 11 2 15.1 5.3l.3.9.3-.9c.4-.5.9-.9 1.3-1.3l.9-.2-.8-.4c-3.6-4-5.8-9.3-5.8-15.1v-54l-.1-1 1 .1h13.1l1-.1-.1 1v54c0 5.9 3.4 8.7 7.5 8.7 4.2 0 7.5-2.8 7.5-8.7v-54l-.1-1 1 .1h13.1l1-.1-.1 1v54c0 5.8-2.2 11.1-5.8 15.1l-.8.4.9.2c.5.4.9.9 1.3 1.3l.3.9.3-.9c4.2-3.3 9.4-5.3 15.1-5.3 13.4 0 24.3 10.9 24.3 24.3V334l.1 1-1-.1h-13.1l-1 .1.1-1v-24.7c0-7.2-4.1-10.6-9.3-10.6-5.1 0-9.3 3.4-9.3 10.6V334l.1 1-1-.1h-13.1l-1 .1.1-1v-27.1c0-7.5-4.3-11-9.6-11-5.4-.1-9.6 3.5-9.6 11zm-296.2 88.3c-1.9 1.5-4.3 2.8-7.9 2.8-4.8 0-8.8-3.5-8.8-12.8 0-9.7 3.3-14.1 8.8-14.1 3.7 0 6.2 1.3 8 3.3v20.8zm0 6.4h13.9v-1.5l-5.1-1.2v-47.3h-14.3v1.6l5.5 1.5v16c-2.4-2-6.1-3.7-11-3.7-8.7 0-15.1 7.6-15.1 18.2 0 10.8 5.9 17.1 15.2 17.1 4.5 0 8.3-1.7 10.9-4.1v3.4zm130.8-50v1.5l-5.3 1.4v44.2l5.3 1.3v1.6h-21.8V400l7-1.3v-35.2l-16.2 38.1h-3.8l-15.9-38.3v35.4l6.7 1.1v1.8h-15.7V400l4.4-1.3v-44.3l-4.4-1.3v-1.5h14l15.5 38.3 16-38.3zm21.8 17.9c6 0 9.1 6.7 9.1 15.1s-3.2 15.3-9.1 15.3-9.1-6.9-9.1-15.3c-.1-8.4 3.2-15.1 9.1-15.1zm0-2.5c-9.8 0-18.7 6.8-18.7 17.7 0 10.5 8.9 17.7 18.7 17.7s18.7-7.1 18.7-17.7c0-10.8-8.9-17.7-18.7-17.7zm180.8 29c-1.8 1.2-3.3 2.3-6.1 2.3-4.5.1-5.7-2.7-5.7-5.9 0-3.3 2.2-5.5 6.3-6.2l5.5-.6V396zm0-18.5v5.8l-7.8.4c-7.5.2-12.2 4.3-12.2 9.9 0 5.7 4.2 8.8 9.8 8.8 4.6 0 7.9-2.2 10.1-3.8v3.1h12.7v-1.5l-4.1-1.2v-23c0-5-3.3-9-10.8-9-7.6 0-12.4 2.2-15.1 3.3v7.9h3.8l1.3-6.6c.9-.4 3.2-1.2 7-.9 4.7.5 5.3 3.6 5.3 6.8zm35.8 22.6v1.5h-19.1v-1.5l5.2-1.2v-44.4l-5.2-1.3v-1.6h13.9v47.3zM154.2 288l-7.5-1.5v-1.6H164v1.5l-5.3 1.5v30.2c0 12.6-6.9 17.7-20.9 17.7-14.4 0-20.2-5.5-20.2-16.9v-31.3l-5.1-1.3v-1.5h22.1v1.7l-7.5 1.3v30.7c0 9.3 3.2 13.8 12.8 13.8 10.5 0 14.4-4.7 14.4-14.7V288zm29.8 45.4v1.5h-18.7v-1.5l5.1-1.2v-28.6l-4.6-1.3v-1.6h13.4v5.2c1.5-1.3 6.4-5.6 12.6-5.6 6.5 0 9.8 3.6 9.8 9.9v21.9l4.9 1.2v1.5h-18.1v-1.5l4.5-1.2v-21c0-3.3-1-6.2-5.1-6.2-3.7 0-7.5 2.6-8.5 3.3v23.9l4.7 1.3zm39.4-1.2 5 1.2v1.5h-18.9v-1.5l5.1-1.2v-28.6l-4.6-1.3v-1.6h13.4zm.4-43.2c0 2.6-2.3 4.8-5.1 4.8-2.7 0-5.1-2.2-5.1-4.8s2.4-4.8 5.1-4.8c2.8-.1 5.1 2.2 5.1 4.8zm150.4 43.2 5.1 1.2v1.5h-19v-1.5l5.2-1.2v-28.6l-4.6-1.3v-1.6h13.3zm.5-43.2c0 2.6-2.3 4.8-5.1 4.8-2.7 0-5.1-2.2-5.1-4.8s2.4-4.8 5.1-4.8c2.8-.1 5.1 2.2 5.1 4.8zm-143.5 14.1-2.5-1v-1.4h16.6v1.4l-5.3 1.3 7.7 20.8 7.5-20.9-4.6-1.2v-1.4H262v1.4l-2.8 1.3-13 32h-2.8zm54.9 9.9h-13.6c.8-5.8 3.1-10.1 7.1-10.1 4.6 0 6.2 5.4 6.5 10.1zm-14 2.7h22.6c-.2-9.4-5.1-15.4-15.1-15.4-9.8 0-17 8.4-17 17.7 0 10.7 7 17.7 17.1 17.7 8.6 0 13.1-3.4 15.7-5.3l-1.5-2.3c-2 1.2-6 3.9-12.6 3.5-6.6-.5-9.9-7.4-9.2-15.9zm81.4-13.6-.8 8.4h-3.2l-.8-5.7c-1.2-.6-2.7-1.9-6.1-1.9-2.8 0-4.9 1.5-4.9 4.5 0 3.5 3.9 4.9 7.8 6.7 3.8 1.6 9.9 3.9 9.9 10 0 6.9-5.7 11.7-12.5 11.7-6.3 0-10-1.5-11.1-1.8l-.6-9.3 3.2-.3 1.8 6.3c.9.7 3.5 2.7 6.5 2.6 4.4 0 6.5-2.3 6.5-5.6 0-3.9-5.5-5.6-9.1-7.3-3.4-1.6-8.6-3.1-8.6-10.1 0-5.8 4.8-9.8 11.2-9.8 5.8-.2 9.2 1.1 10.8 1.6zm84-12.7-3.3-4.9-11.7 9.2 1.9 2.8zm-6.4 23.6h-13.6c.8-5.8 3.1-10.1 7.1-10.1 4.6 0 6.1 5.4 6.5 10.1zm-14 2.7h22.6c-.2-9.4-5.1-15.4-15.1-15.4-9.8 0-17 8.4-17 17.7 0 10.7 7 17.7 17.1 17.7 8.6 0 13.1-3.4 15.7-5.3l-1.5-2.3c-2 1.2-6 3.9-12.6 3.5-6.6-.5-9.9-7.4-9.2-15.9zm-93.5-15.3c-4.9 0-8.5 3.9-10.5 8.4h-.1v-8.1h-14v1.4l5.1 1.5v28.6l-5.1 1.2v1.5h21.4v-1.7L313 332v-19.4c2-4.5 5-6.3 7-6.3 1.4 0 2 .3 3.1 1.2.4.3 1.9.7 2.7.3 1.7-.7 2.1-1.9 2.1-3.7 0-1.9-1.9-3.7-4.3-3.7zm95.2 99.7v1.5h-18.7v-1.5l5.1-1.2v-28.6l-4.6-1.3v-1.6H414v5.2c1.5-1.3 6.4-5.6 12.6-5.6 6.5 0 9.8 3.6 9.8 9.9v21.9l4.9 1.2v1.5h-18.1V400l4.5-1.2v-21c0-3.3-1-6.2-5.1-6.2-3.7 0-7.5 2.6-8.5 3.3v23.9l4.7 1.3zm76.7-33c-4.9 0-8.5 3.9-10.5 8.4h-.2v-8.1H471v1.4l5.1 1.5v28.6l-5.1 1.2v1.5h21.4v-1.7l-7.5-1.2v-19.4c2-4.5 5-6.3 7-6.3 1.4 0 2 .3 3.1 1.2.4.3 1.9.7 2.7.3 1.7-.7 2.1-1.9 2.1-3.7 0-2-1.9-3.7-4.3-3.7zm-90.5-36c-1.3.9-2.6 1.5-4.5 1.5-3.1 0-4.1-2.3-4.1-7.3v-21.5l8.8-1.3v-1.7h-8.8V285h-2.9c-.6 9.1-3.8 15-11.9 15.8h-1.3v1.7l7.3 1.3v22c0 7 1.7 10 8.2 10 4.7 0 8.5-1.8 10-3.2l-.8-1.5zm62 66.7c-1.3.9-2.6 1.5-4.5 1.5-3.1 0-4.1-2.3-4.1-7.3v-21.5l8.8-1.3v-1.7h-8.8v-15.8h-2.9c-.6 9.1-3.8 15-11.9 15.8h-1.3v1.7l7.3 1.3v22c0 7 1.7 10 8.2 10 4.7 0 8.5-1.8 10-3.2l-.8-1.5zm-201.7-18.1h-13.6c.8-5.8 3.1-10.1 7.1-10.1 4.7 0 6.2 5.3 6.5 10.1zm-14 2.7h22.6c-.2-9.4-5.1-15.4-15.1-15.4-9.8 0-17 8.4-17 17.7 0 10.7 7 17.7 17.1 17.7 8.6 0 13.1-3.4 15.7-5.3l-1.5-2.3c-2 1.2-6 3.9-12.6 3.5-6.6-.5-9.9-7.4-9.2-15.9zm272.7-2.7h-13.6c.8-5.8 3.1-10.1 7.1-10.1 4.7 0 6.2 5.3 6.5 10.1zm6.5-23.6-3.3-4.9-11.8 9.2 1.9 2.8 13.2-7.1zm-20.4 26.3h22.6c-.2-9.4-5.1-15.4-15.1-15.4-9.8 0-17 8.4-17 17.7 0 10.7 7 17.7 17.1 17.7 8.6 0 13.1-3.4 15.7-5.3l-1.5-2.3c-2 1.2-6 3.9-12.6 3.5-6.6-.5-9.9-7.4-9.2-15.9z"/></svg>