<svg xmlns="http://www.w3.org/2000/svg" width="147" height="58" fill="none"><path fill="currentColor" fill-rule="evenodd" d="M124.682 27.954v8.364l.09.273h-4.662v-7.91c0-2.272-1.253-3.273-2.778-3.273-1.614 0-2.869 1-2.869 3.273v7.91h-4.571v-7.91c-.01-4.158 3.306-7.536 7.404-7.546h.036c1.703 0 3.317.637 4.572 1.637l.09.273.089-.273c.181-.09.269-.272.448-.363l.269-.091-.269-.092c-1.074-1.273-1.792-2.909-1.792-4.727V.5h4.661l-.09.273v16.726c0 1.818 1.074 2.728 2.33 2.728s2.332-.91 2.332-2.728V.773l-.09-.273h4.661v17c0 1.817-.629 3.454-1.795 4.726l-.178.092.268.09.359.364.089.273.09-.273a7.461 7.461 0 0 1 4.661-1.637c4.033 0 7.349 3.364 7.349 7.546v7.637l.091.273h-4.662v-7.91c0-2.272-1.255-3.273-2.778-3.273-1.614 0-2.869 1-2.869 3.273v7.91h-4.661l.089-.273v-8.364c0-2.364-1.344-3.455-2.958-3.455s-2.956 1.091-2.956 3.455ZM34.42 55.228c-.628.454-1.344.908-2.42.908-1.434 0-2.69-1.092-2.69-3.999s.987-4.365 2.69-4.365c1.076 0 1.883.363 2.42 1v6.456Zm0 1.998h4.213v-.454l-1.524-.364V41.771h-4.392v.454l1.703.547v4.908c-.717-.635-1.883-1.182-3.317-1.182-2.689 0-4.66 2.364-4.66 5.637 0 3.274 1.792 5.363 4.66 5.363a4.982 4.982 0 0 0 3.317-1.273v1ZM74.308 41.77v.454l-1.615.456v13.636l1.615.455v.454h-6.634v-.454l2.15-.455V45.41l-5.019 11.816H63.73L58.8 45.41v10.907l2.062.364v.545h-4.75v-.454l1.344-.455V42.681l-1.343-.456v-.454h4.21l4.752 11.82 4.84-11.82h4.393Zm6.631 5.546c1.793 0 2.78 2.091 2.78 4.637 0 2.545-.987 4.727-2.78 4.727-1.792 0-2.777-2.092-2.777-4.727 0-2.636.985-4.637 2.777-4.637Zm0-.818c-2.958 0-5.735 2.184-5.735 5.548 0 3.18 2.778 5.453 5.736 5.453 2.957 0 5.737-2.272 5.737-5.453 0-3.364-2.779-5.548-5.738-5.548Zm55.125 8.999c-.538.363-.986.728-1.793.728-1.433 0-1.792-.817-1.792-1.818 0-1.091.718-1.727 1.97-2l1.614-.181v3.272l.001-.001Zm0-5.726v1.818l-2.33.093c-2.332.09-3.765 1.273-3.765 3.09s1.344 2.726 3.046 2.726c1.345 0 2.421-.728 3.047-1.183v.91h3.946v-.455l-1.255-.364v-7.089c0-1.546-1.077-2.819-3.317-2.819-2.241 0-3.765.728-4.572 1.092v2.455h1.166l.358-2.09c.268-.093.986-.364 2.151-.274 1.345.089 1.525 1.09 1.525 2.09Zm10.936 7v.454h-5.828v-.454l1.614-.364V42.681l-1.614-.455v-.454h4.214v14.637l1.614.363ZM12.729 22.137l-2.33-.454v-.546h5.288v.454l-1.614.546v9.272c0 3.91-2.062 5.546-6.364 5.546s-6.185-1.727-6.185-5.271v-9.636L0 21.593v-.455h6.722v.546l-2.33.364v9.546c0 2.818.985 4.273 3.944 4.273 3.227 0 4.391-1.546 4.391-4.547v-9.183h.002Zm9.052 13.999v.456h-5.736v-.456l1.614-.362v-8.82l-1.434-.454v-.454h4.034v1.637c.538-.456 1.97-1.728 3.854-1.728 1.884 0 3.048 1.092 3.048 3v6.82l1.434.361v.457h-5.468v-.457l1.345-.361v-6.457c0-1.091-.27-1.909-1.613-1.909-1.077 0-2.241.727-2.6 1v7.364l1.522.363Zm12.011-.363 1.525.363v.456H29.58v-.456l1.524-.363v-8.819L29.67 26.5v-.454h4.123v9.727Zm.09-13.364c0 .818-.627 1.455-1.524 1.455-.806 0-1.524-.637-1.524-1.455 0-.818.716-1.546 1.524-1.546.897 0 1.525.727 1.525 1.546Zm45.891 13.364 1.525.363v.456H75.56v-.456l1.524-.363v-8.819l-1.344-.454v-.454h4.032v9.727Zm.181-13.364c0 .818-.718 1.455-1.524 1.455-.896 0-1.615-.637-1.615-1.455 0-.818.719-1.546 1.615-1.546.806 0 1.524.727 1.524 1.546Zm-43.741 4.364-.806-.272v-.455h5.11v.455l-1.615.363 2.33 6.455 2.241-6.455-1.344-.363v-.455h3.406v.455l-.808.363-3.943 9.91h-.896l-3.675-10Zm16.673 3.09h-4.123c.268-1.817.895-3.18 2.152-3.18 1.433-.002 1.88 1.635 1.97 3.18Zm-4.215.819h6.902c-.09-2.91-1.614-4.727-4.661-4.727-3.047 0-5.11 2.545-5.11 5.454 0 3.273 2.063 5.454 5.2 5.454 2.598 0 3.943-1.09 4.75-1.637l-.448-.726c-.626.362-1.793 1.18-3.855 1.09-1.97-.181-3.046-2.272-2.778-4.908ZM73.5 26.5l-.269 2.545h-.985l-.18-1.727c-.359-.182-.897-.637-1.883-.637-.806 0-1.524.455-1.524 1.364 0 1.091 1.255 1.546 2.42 2.091 1.167.547 3.048 1.182 3.048 3.09 0 2.184-1.792 3.637-3.854 3.637-1.883 0-3.047-.454-3.407-.545l-.178-2.91.985-.09.628 1.908c.269.273.986.818 1.972.818 1.345 0 1.973-.728 1.973-1.727 0-1.183-1.703-1.727-2.779-2.272-1.076-.455-2.6-.91-2.6-3.091 0-1.818 1.435-3 3.407-3 1.703 0 2.688.363 3.226.546Zm25.547-4-.988-1.454-3.584 2.818.626.909 3.946-2.273Zm-1.882 7.364h-4.213c.268-1.818.985-3.182 2.24-3.182 1.344 0 1.88 1.636 1.973 3.182Zm-4.304.818h6.9c-.089-2.91-1.61-4.727-4.57-4.727-2.958 0-5.2 2.545-5.2 5.454 0 3.273 2.154 5.454 5.2 5.454 2.6 0 3.944-1.09 4.75-1.637l-.448-.726c-.626.362-1.792 1.18-3.854 1.09-1.971-.181-2.957-2.273-2.78-4.91l.002.002Zm-28.503-4.727c-1.525 0-2.6 1.18-3.228 2.545v-2.455h-4.302v.454l1.614.455v8.819l-1.614.362v.456h6.543v-.546l-2.24-.364v-6c.627-1.363 1.524-1.908 2.061-1.908.448 0 .628.09.986.363.09.09.538.273.807.09.538-.18.628-.544.628-1.18 0-.546-.539-1.091-1.255-1.091ZM93.4 56.772v.454h-5.738v-.454l1.614-.364v-8.817l-1.433-.454v-.455h4.033v1.637c.537-.456 1.97-1.82 3.855-1.82 1.884 0 3.046 1.183 3.046 3.092v6.817l1.435.364v.454h-5.468v-.454l1.345-.364v-6.454c0-1.09-.269-1.998-1.614-1.998-1.075 0-2.24.818-2.599 1.09v7.363l1.524.363Zm23.394-10.181c-1.524 0-2.599 1.18-3.227 2.543V46.68h-4.303v.454l1.614.454v8.818l-1.614.363v.454h6.542v-.545l-2.24-.363v-6c.628-1.364 1.524-1.909 2.062-1.909.448 0 .629.09.985.364.091.09.539.18.807.09.537-.18.628-.637.628-1.182 0-.546-.537-1.088-1.254-1.088ZM89.187 35.41c-.448.271-.806.454-1.435.454-.896 0-1.255-.638-1.255-2.272v-6.638l2.69-.363v-.546h-2.69v-4.909h-.806c-.179 2.818-1.164 4.637-3.674 4.909h-.358v.546l2.24.363v6.82c0 2.18.448 3.09 2.51 3.09 1.434 0 2.508-.546 3.046-1l-.268-.454Zm18.912 20.636c-.448.271-.807.454-1.434.454-.895 0-1.255-.729-1.255-2.273V47.59l2.689-.454v-.455h-2.689v-4.91h-.806c-.178 2.82-1.166 4.637-3.675 4.91h-.359v.455l2.243.454v6.82c0 2.09.448 3.09 2.509 3.09 1.434 0 2.51-.547 3.047-1l-.27-.455ZM46.61 50.5h-4.213c.27-1.818.987-3.182 2.24-3.182 1.345 0 1.883 1.637 1.973 3.182Zm-4.301.818h6.902c-.09-2.91-1.614-4.819-4.572-4.819s-5.2 2.636-5.2 5.548c0 3.272 2.153 5.453 5.2 5.453 2.6 0 3.944-1.092 4.75-1.637l-.447-.726c-.628.362-1.793 1.18-3.855 1.09-1.972-.181-2.957-2.273-2.778-4.909Zm83.179-.818h-4.124c.181-1.818.898-3.182 2.154-3.182 1.433 0 1.88 1.637 1.97 3.182Zm1.971-7.363-.985-1.455-3.586 2.819.538.818 4.033-2.182Zm.628 8.181c-.09-2.91-1.523-4.819-4.571-4.819s-5.2 2.636-5.2 5.548c0 3.272 2.153 5.453 5.2 5.453 2.599 0 4.033-1.092 4.839-1.637l-.448-.726c-.626.362-1.882 1.18-3.854 1.09-2.062-.181-3.047-2.273-2.868-4.909h6.902Z" clip-rule="evenodd"/></svg>