<svg version="1.1" x="0px" y="0px" viewBox="0 0 671 288">
  <g>
    <path class="innerLogo" d="m 548.64,129.07 v 33.35 l 0.08,1.26 -1.28,-0.08 h -16.18 l -1.28,0.08 0.08,-1.26 V 132 c 0,-8.87 -5.1,-13.1 -11.4,-13.1 -6.3,0 -11.4,4.24 -11.4,13.1 v 30.42 l 0.08,1.26 -1.28,-0.08 h -16.18 l -1.28,0.08 0.08,-1.26 V 132 c 0,-16.56 13.42,-29.98 29.98,-29.98 7.05,0 13.51,2.44 18.63,6.51 l 0.36,1.1 0.36,-1.07 c 0.52,-0.57 1.07,-1.12 1.63,-1.64 l 1.1,-0.25 -1.02,-0.47 c -4.42,-4.93 -7.13,-11.44 -7.13,-18.58 V 21.09 l -0.08,-1.26 1.28,0.08 h 16.18 l 1.28,-0.08 -0.08,1.26 v 66.53 c 0,7.22 4.16,10.66 9.28,10.66 5.12,0 9.28,-3.45 9.28,-10.66 V 21.09 l -0.08,-1.26 1.28,0.08 h 16.18 l 1.28,-0.08 -0.08,1.26 v 66.53 c 0,7.15 -2.71,13.65 -7.13,18.58 l -1.02,0.47 1.1,0.25 c 0.56,0.53 1.11,1.08 1.63,1.64 l 0.36,1.07 0.36,-1.1 c 5.12,-4.07 11.59,-6.51 18.63,-6.51 16.56,0 29.98,13.42 29.98,29.98 v 30.42 l 0.08,1.26 -1.28,-0.08 h -16.18 l -1.28,0.08 0.08,-1.26 V 132 c 0,-8.87 -5.11,-13.1 -11.4,-13.1 -6.3,0 -11.4,4.24 -11.4,13.1 v 30.42 l 0.08,1.26 -1.28,-0.08 h -16.18 l -1.28,0.08 0.08,-1.26 v -33.35 c 0,-9.19 -5.29,-13.58 -11.81,-13.58 -6.52,0.01 -11.81,4.4 -11.81,13.58 z"></path>
    <path d="m 183.95,237.8 c -2.37,1.86 -5.3,3.47 -9.74,3.47 -5.86,0 -10.88,-4.26 -10.88,-15.8 0,-11.89 4.1,-17.4 10.79,-17.4 4.51,0 7.67,1.6 9.84,4.04 z m 0,7.92 h 17.12 v -1.8 l -6.34,-1.51 v -58.27 h -17.59 v 1.99 l 6.81,1.9 v 19.67 c -3.01,-2.5 -7.51,-4.55 -13.53,-4.55 -10.69,0 -18.57,9.37 -18.57,22.42 0,13.35 7.22,21.1 18.67,21.1 5.57,0 10.21,-2.15 13.43,-5.1 z"></path>
    <polygon points="282.53,198.61 282.53,242.12 290.8,243.54 290.8,245.72 271.45,245.72 271.45,243.83 276.94,242.22 276.94,187.64 271.45,186.03 271.45,184.14 288.68,184.14 307.82,231.28 327.49,184.14 344.96,184.14 344.96,186.03 338.53,187.73 338.53,242.12 344.96,243.83 344.96,245.72 318.22,245.72 318.22,243.73 326.79,242.12 326.79,198.8 306.81,245.72 302.17,245.72 "></polygon>
    <path d="m 371.83,206.18 c 7.38,0 11.26,8.23 11.26,18.63 0,10.31 -3.88,18.83 -11.26,18.83 -7.28,0 -11.26,-8.52 -11.26,-18.83 0,-10.3 3.97,-18.63 11.26,-18.63 z m 0,-3.03 c -12.11,0 -22.99,8.42 -22.99,21.76 0,12.96 10.97,21.76 22.99,21.76 12.11,0 23.08,-8.8 23.08,-21.76 0,-13.34 -10.97,-21.76 -23.08,-21.76 z"></path>
    <path d="m 594.56,238.82 c -2.17,1.42 -4.07,2.84 -7.47,2.84 -5.49,0.1 -7,-3.31 -7,-7.28 0,-4.07 2.74,-6.81 7.76,-7.66 l 6.72,-0.76 v 12.86 z m 0,-22.8 v 7.09 l -9.55,0.48 c -9.27,0.28 -15.04,5.3 -15.04,12.2 0,7 5.2,10.88 12.11,10.88 5.68,0 9.75,-2.74 12.49,-4.73 v 3.78 h 15.68 v -1.8 l -5.08,-1.51 v -28.19 c 0,-6.15 -4.07,-11.07 -13.24,-11.07 -9.36,0 -15.23,2.65 -18.54,4.07 v 9.74 h 4.68 l 1.55,-8.1 c 1.08,-0.46 3.98,-1.46 8.62,-1.08 5.56,0.47 6.23,4.36 6.32,8.24 z"></path>
    <polygon points="615.11,245.72 615.11,243.92 621.44,242.41 621.44,187.74 615.11,186.13 615.11,184.14 632.23,184.14 632.23,242.41 638.56,243.92 638.56,245.72 "></polygon>
    <path d="m 96.28,105.81 -9.18,-1.8 v -1.99 h 21.29 v 1.89 l -6.53,1.89 v 37.25 c 0,15.5 -8.45,21.79 -25.76,21.79 -17.74,0 -24.93,-6.79 -24.93,-20.81 v -38.5 l -6.34,-1.61 v -1.89 h 27.25 v 2.08 l -9.27,1.61 v 37.75 c 0,11.42 3.89,17.03 15.8,17.03 12.91,0 17.67,-5.82 17.67,-18.06 z"></path>
    <path d="m 132.92,161.81 v 1.8 h -22.98 v -1.8 l 6.24,-1.51 v -35.19 l -5.67,-1.61 v -1.98 h 16.46 v 6.43 c 1.89,-1.61 7.85,-6.91 15.51,-6.91 7.94,0 12.01,4.44 12.01,12.2 v 26.96 l 6.05,1.51 v 1.89 h -22.32 v -1.89 l 5.58,-1.42 v -25.83 c 0,-4.07 -1.23,-7.66 -6.34,-7.66 -4.54,0 -9.18,3.22 -10.5,4.07 v 29.42 z"></path>
    <g>
      <polygon points="187.66,163.61 164.3,163.61 164.3,161.81 170.64,160.3 170.64,125.11 164.96,123.5 164.96,121.52 181.42,121.52 181.42,160.3 187.66,161.81 "></polygon>
      <path d="m 181.99,107.04 c 0,3.22 -2.84,5.87 -6.24,5.87 -3.31,0 -6.24,-2.65 -6.24,-5.87 0,-3.22 2.93,-5.96 6.24,-5.96 3.4,0 6.24,2.74 6.24,5.96 z"></path>
    </g>
    <g>
      <polygon points="373.47,163.61 350.1,163.61 350.1,161.81 356.44,160.3 356.44,125.11 350.77,123.5 350.77,121.52 367.22,121.52 367.22,160.3 373.47,161.81 "></polygon>
      <path d="m 367.79,107.04 c 0,3.22 -2.84,5.87 -6.24,5.87 -3.31,0 -6.24,-2.65 -6.24,-5.87 0,-3.22 2.93,-5.96 6.24,-5.96 3.4,0 6.24,2.74 6.24,5.96 z"></path>
    </g>
    <polygon points="220.64,124.64 214.96,123.22 214.96,121.52 228.96,121.52 228.96,123.22 225.56,124.83 209.54,164.27 206.04,164.27 191.08,124.45 188.05,123.22 188.05,121.52 208.48,121.52 208.48,123.22 201.95,124.83 211.34,150.46 "></polygon>
    <path d="M 258.64,136.65 H 241.9 c 0.94,-7.19 3.78,-12.49 8.8,-12.49 5.67,0 7.56,6.62 7.94,12.49 z m -17.22,3.31 h 27.81 c -0.28,-11.63 -6.34,-18.92 -18.54,-18.92 -12.01,0 -20.9,10.41 -20.9,21.76 0,13.15 8.61,21.76 21,21.76 10.59,0 16.08,-4.16 19.3,-6.53 l -1.8,-2.84 c -2.46,1.51 -7.38,4.83 -15.51,4.35 -8.14,-0.57 -12.21,-9.08 -11.36,-19.58 z"></path>
    <path d="m 341.65,123.21 -0.94,10.31 h -3.88 l -0.95,-7 c -1.42,-0.76 -3.31,-2.37 -7.47,-2.37 -3.4,0 -6.05,1.8 -6.05,5.49 0,4.35 4.82,6.05 9.65,8.23 4.64,1.99 12.2,4.82 12.2,12.3 0,8.51 -7,14.38 -15.42,14.38 -7.76,0 -12.3,-1.8 -13.62,-2.27 l -0.76,-11.45 3.97,-0.38 2.27,7.76 c 1.13,0.85 4.26,3.31 8.04,3.22 5.39,0 7.95,-2.84 7.95,-6.91 0,-4.83 -6.72,-6.91 -11.16,-8.99 -4.16,-1.99 -10.59,-3.78 -10.59,-12.39 0,-7.09 5.87,-12.11 13.81,-12.11 6.8,0.01 11.06,1.62 12.95,2.18 z"></path>
    <polygon points="445.15,107.61 441.08,101.55 426.61,112.9 428.97,116.31 "></polygon>
    <path d="m 437.2,136.65 h -16.74 c 0.95,-7.19 3.78,-12.49 8.8,-12.49 5.67,0 7.56,6.62 7.94,12.49 z m -17.22,3.31 h 27.81 c -0.28,-11.63 -6.34,-18.92 -18.54,-18.92 -12.01,0 -20.9,10.41 -20.9,21.76 0,13.15 8.61,21.76 21,21.76 10.59,0 16.08,-4.16 19.3,-6.53 l -1.8,-2.84 c -2.46,1.51 -7.38,4.83 -15.51,4.35 -8.14,-0.57 -12.21,-9.08 -11.36,-19.58 z"></path>
    <path d="m 304.83,121.11 c -6.06,0 -10.42,4.86 -12.88,10.34 h -0.19 v -9.92 h -17.12 v 1.74 l 6.34,1.85 v 35.19 l -6.34,1.51 v 1.8 h 26.3 v -2.08 l -9.18,-1.51 v -23.89 c 2.51,-5.52 6.22,-7.76 8.57,-7.76 1.76,0 2.42,0.36 3.8,1.53 0.49,0.39 2.3,0.91 3.38,0.42 2.06,-0.88 2.62,-2.39 2.62,-4.6 -0.01,-2.45 -2.36,-4.62 -5.3,-4.62 z"></path>
    <path d="m 422.14,243.92 v 1.8 h -22.99 v -1.8 l 6.25,-1.51 v -35.19 l -5.67,-1.61 v -1.98 h 16.46 v 6.43 c 1.89,-1.61 7.85,-6.91 15.51,-6.91 7.95,0 12.02,4.44 12.02,12.2 v 26.96 l 6.05,1.51 v 1.89 h -22.33 v -1.89 l 5.58,-1.42 v -25.82 c 0,-4.07 -1.23,-7.66 -6.34,-7.66 -4.54,0 -9.18,3.22 -10.5,4.07 v 29.42 z"></path>
    <path d="m 516.58,203.22 c -6.06,0 -10.42,4.86 -12.88,10.34 h -0.19 v -9.92 h -17.12 v 1.74 l 6.34,1.85 v 35.19 l -6.34,1.51 v 1.8 h 26.3 v -2.08 l -9.18,-1.51 v -23.89 c 2.51,-5.52 6.22,-7.76 8.57,-7.76 1.77,0 2.42,0.36 3.8,1.53 0.49,0.39 2.3,0.91 3.38,0.42 2.06,-0.88 2.62,-2.39 2.62,-4.6 -0.01,-2.45 -2.36,-4.62 -5.3,-4.62 z"></path>
    <path d="m 405.06,158.89 c -1.58,1.06 -3.2,1.83 -5.6,1.83 -3.8,0 -5.02,-2.78 -5.02,-9.01 V 125.2 l 10.78,-1.61 v -2.08 h -10.78 v -19.5 h -3.52 c -0.71,11.16 -4.66,18.48 -14.61,19.5 h -1.64 v 2.08 l 8.99,1.61 v 27.07 c 0,8.59 2.08,12.28 10.12,12.28 5.79,0 10.44,-2.18 12.34,-3.97 z"></path>
    <path d="m 481.46,241 c -1.58,1.06 -3.2,1.83 -5.6,1.83 -3.8,0 -5.02,-2.78 -5.02,-9.01 v -26.5 l 10.79,-1.61 v -2.08 h -10.79 v -19.5 h -3.52 c -0.71,11.16 -4.66,18.48 -14.61,19.5 h -1.64 v 2.08 l 8.98,1.61 v 27.07 c 0,8.59 2.08,12.28 10.12,12.28 5.79,0 10.44,-2.18 12.34,-3.97 z"></path>
    <path d="m 233.07,218.76 h -16.74 c 0.95,-7.19 3.78,-12.48 8.8,-12.48 5.67,0 7.56,6.62 7.94,12.48 z m -17.21,3.31 h 27.81 c -0.28,-11.64 -6.34,-18.92 -18.54,-18.92 -12.02,0 -20.91,10.41 -20.91,21.76 0,13.15 8.61,21.76 21,21.76 10.59,0 16.08,-4.16 19.3,-6.53 l -1.8,-2.84 c -2.46,1.51 -7.38,4.83 -15.51,4.35 -8.13,-0.56 -12.2,-9.08 -11.35,-19.58 z"></path>
    <path d="m 551.71,218.76 h -16.74 c 0.95,-7.19 3.78,-12.49 8.8,-12.49 5.67,0 7.56,6.63 7.94,12.49 z m 7.94,-29.04 -4.07,-6.05 -14.47,11.35 2.36,3.4 z m -25.16,32.35 h 27.81 c -0.28,-11.63 -6.34,-18.92 -18.54,-18.92 -12.01,0 -20.9,10.41 -20.9,21.76 0,13.15 8.61,21.76 21,21.76 10.59,0 16.08,-4.16 19.3,-6.53 l -1.8,-2.84 c -2.46,1.51 -7.38,4.82 -15.51,4.35 -8.15,-0.56 -12.21,-9.08 -11.36,-19.58 z"></path>
  </g>
</svg>