<svg xmlns="http://www.w3.org/2000/svg" xml:space="preserve" viewBox="0 0 1023.999 274.092"><path fill="#0057ac" d="M76.927 261.935c42.358 0 77.118-36.47 77.118-82.056V-.001H105.23v188.237c0 19.755-14.246 29.062-28.112 29.062-13.866 0-28.112-9.307-28.112-29.062V0H0v179.879c0 45.587 34.57 82.056 76.928 82.056"/><path fill="#4998d3" d="M79.397 203.432h-5.129V7.978h5.129zm13.296-4.369h-5.129V7.978h5.129zm-26.782 0h-5.129V7.978h5.129z"/><path d="M256.236.38v4.938c-10.447 0-13.866 2.09-13.866 9.118v71.23c0 5.888 2.85 9.117 10.447 9.117 19.945 0 29.252-12.537 33.81-32.101h4.56l-.95 37.04h-75.599v-4.94c9.877 0 12.917-2.279 12.917-9.117v-71.23c0-6.268-2.47-9.117-12.727-9.117V.38Zm53.945 64.961c0 20.134 8.738 31.151 20.894 31.151 9.877 0 15.956-5.888 21.654-13.296l3.419 2.28c-7.598 11.206-16.525 15.955-29.822 15.955-18.044 0-31.91-16.525-31.91-35.71 0-18.994 13.676-35.71 31.72-35.71 17.855 0 30.582 12.917 30.582 35.14H310.18zm31.91-4.938c0-16.526-5.318-25.453-16.334-25.453-9.878 0-15.766 7.978-15.766 25.453zm67.812-29.252h4.938v21.084h-4.938c-4.939-12.916-11.397-17.285-22.034-17.285-7.978 0-13.106 3.609-13.106 9.877 0 6.078 5.128 9.117 15.955 11.777 5.129 1.33 9.877 2.28 13.486 3.609 11.207 3.989 14.816 9.877 14.816 17.855 0 14.815-11.777 23.363-26.782 23.363-12.917 0-17.285-5.508-21.464-5.508-2.66 0-3.23 2.849-3.99 4.558h-3.988V75.598h3.989c3.039 12.347 12.346 20.704 25.263 20.704 7.598 0 15.385-4.748 15.385-11.966 0-7.218-5.318-10.447-15.575-13.296-7.978-2.09-13.866-3.42-18.425-5.699-7.218-3.419-10.447-8.357-10.447-15.385 0-11.967 10.447-20.135 24.503-20.135 11.777 0 16.525 4.939 18.805 4.939 2.659.19 3.229-1.9 3.609-3.609zM236.482 190.326h.38c4.559-7.978 10.447-12.157 18.425-12.157 18.424 0 31.15 15.386 31.15 34.76 0 19.185-15.385 36.47-34 36.47-11.776 0-17.854-7.788-21.274-7.788-2.849 0-3.988 3.23-5.128 5.698l-4.939.57c1.52-7.598 1.9-11.776 1.9-14.815v-73.13c0-3.989-1.9-5.888-10.067-5.888v-4.939l23.743-.95v42.169zm35.33 23.933c0-20.134-6.268-31.151-17.665-31.151-6.268 0-11.967 4.558-15.006 14.056-1.71 5.318-2.47 9.307-2.47 20.324 0 5.888.19 10.637.95 14.246 2.47 10.827 8.928 12.726 15.386 12.726 11.967.19 18.805-10.637 18.805-30.201zm44.637 22.793c0 3.42 1.52 5.889 10.067 5.889h.95v4.938h-35.52v-4.938h.95c8.547 0 10.067-2.28 10.067-5.699v-46.536c0-3.61-1.71-5.699-11.017-5.699v-4.938l24.503-.95zm-8.357-71.61c-4.56 0-8.168-3.418-8.168-8.167 0-4.559 3.609-8.168 8.168-8.168 4.558 0 8.167 3.42 8.167 8.168 0 4.749-3.609 8.168-8.167 8.168zm43.117 24.884h.38c4.559-7.978 10.447-12.157 18.425-12.157 18.425 0 31.151 15.386 31.151 34.76 0 19.185-15.386 36.47-34 36.47-11.777 0-17.855-7.788-21.274-7.788-2.85 0-3.989 3.23-5.129 5.698l-4.938.57c1.52-7.598 1.9-11.776 1.9-14.815v-73.13c0-3.989-1.9-5.888-10.068-5.888v-4.939l23.743-.95v42.169zm35.14 23.933c0-20.134-6.268-31.151-17.665-31.151-6.268 0-11.966 4.558-15.005 14.056-1.71 5.318-2.47 9.307-2.47 20.324 0 5.888.19 10.637.95 14.246 2.47 10.827 8.928 12.726 15.386 12.726 11.966.19 18.804-10.637 18.804-30.201zm44.828 22.793c0 3.61 1.71 5.699 11.016 5.699v4.938h-35.52v-4.938c9.308 0 11.017-2.09 11.017-5.699v-77.118c0-3.609-1.71-5.698-11.016-5.698v-4.939l24.503-.95zm37.229 0c0 3.42 1.52 5.889 10.067 5.889h.95v4.938h-35.52v-4.938h.95c8.547 0 10.067-2.28 10.067-5.699v-46.536c0-3.61-1.71-5.699-11.017-5.699v-4.938l24.503-.95zm-8.358-71.61c-4.558 0-8.167-3.418-8.167-8.167 0-4.559 3.609-8.168 8.167-8.168 4.56 0 8.168 3.42 8.168 8.168-.19 4.749-3.799 8.168-8.168 8.168zm58.884 84.147c-19.945 0-35.14-15.386-35.14-35.71 0-20.134 15.005-35.71 35.14-35.71 20.134 0 35.14 15.576 35.14 35.71-.19 20.134-15.006 35.71-35.14 35.71zm19.374-35.71c0-20.704-5.698-30.771-19.564-30.771-12.917 0-19.375 8.737-19.375 30.77 0 20.895 5.699 30.772 19.565 30.772 13.676 0 19.374-9.877 19.374-30.771zm42.168-56.414v22.604h20.134v4.938h-20.134v52.425c0 5.699 3.42 7.408 7.978 7.408 4.938 0 9.877-3.229 10.447-12.916.19-1.9.19-3.989.19-5.699h3.989v2.28c0 15.195-5.509 21.274-18.235 21.274-13.296 0-17.855-6.268-17.855-17.285v-47.297H556.54v-4.938c12.916-1.14 15.196-3.99 18.994-22.604h4.94z" class="st2"/><path d="M626.82 192.605h.38c3.99-8.738 10.638-14.436 20.895-14.436 14.056 0 21.464 9.877 21.464 25.643v33.05c0 3.99 1.71 5.889 10.257 5.889v4.938h-23.743v-48.816c0-9.117-3.99-15.006-11.587-15.006-10.447 0-17.665 13.297-17.665 23.934v29.061c0 3.99 1.9 5.889 11.207 5.889v4.938h-35.14v-4.938c8.547 0 10.257-2.09 10.257-5.889v-76.738c0-3.989-1.71-5.888-10.257-5.888v-4.939l23.743-.95v44.258zm72.37 20.894c0 20.134 8.738 31.151 20.894 31.151 9.878 0 15.956-5.888 21.654-13.296l3.42 2.28c-7.599 11.206-16.526 15.955-29.822 15.955-18.045 0-31.911-16.526-31.911-35.71 0-18.995 13.676-35.71 31.72-35.71 17.856 0 30.582 12.916 30.582 35.14H699.19Zm28.112-42.168h-5.698l-22.034-14.056c-3.419-2.09-4.559-4.179-4.559-6.078 0-2.66 1.52-4.749 4.94-4.749 1.899 0 3.228.38 6.267 3.23zm3.99 37.23c0-16.526-5.32-25.453-16.336-25.453-9.877 0-15.766 7.977-15.766 25.452zm76.927-28.682h4.18v83.386c0 3.989 1.899 5.888 11.206 5.888v4.939h-35.9v-4.939c9.307 0 11.207-2.09 11.207-5.888V240.28h-.38c-4.559 6.839-8.737 9.308-17.095 9.308-18.425 0-30.391-14.246-30.391-35.71 0-19.564 16.525-35.52 32.1-35.52 11.207 0 15.956 8.168 18.995 8.168 2.09-.19 4.939-4.18 6.078-6.648zm-9.497 33.62c0-21.464-5.319-30.391-16.335-30.391-10.827 0-15.956 8.927-15.956 30.391 0 22.414 5.509 31.151 16.146 31.151 10.067 0 16.145-7.788 16.145-31.15zm44.067-33.62v50.335c0 7.408 2.85 13.486 10.827 13.486 9.878 0 16.526-8.167 18.425-20.514v-32.48c0-3.8-1.71-5.889-10.447-5.889h-.95v-4.938h24.883v56.983c0 3.99 1.9 5.889 10.067 5.889v4.938l-22.603.95v-13.486h-.38c-5.319 9.117-12.157 14.436-22.034 14.436-13.486 0-21.464-9.498-21.464-25.643v-33.24c0-3.99-1.71-5.889-10.257-5.889v-4.938zm72.37 33.62c0 20.134 8.737 31.151 20.894 31.151 9.877 0 15.955-5.888 21.654-13.296l3.419 2.28c-7.598 11.206-16.526 15.955-29.822 15.955-18.045 0-31.91-16.526-31.91-35.71 0-18.995 13.675-35.71 31.72-35.71 17.855 0 30.582 12.916 30.582 35.14h-46.537zm32.1-4.939c0-16.525-5.318-25.452-16.335-25.452-9.877 0-15.765 7.977-15.765 25.452zm67.622-29.251h4.938v21.084h-4.938c-4.94-12.917-11.397-17.285-22.034-17.285-7.978 0-13.107 3.609-13.107 9.877 0 6.078 5.129 9.117 15.956 11.777 5.128 1.33 9.877 2.279 13.486 3.609 11.207 3.988 14.816 9.877 14.816 17.854 0 14.816-11.777 23.364-26.783 23.364-12.916 0-17.285-5.509-21.463-5.509-2.66 0-3.23 2.85-3.99 4.56h-3.988v-24.884h3.989c3.039 12.347 12.346 20.704 25.263 20.704 7.597 0 15.385-4.748 15.385-11.966 0-7.218-5.318-10.447-15.575-13.297-7.978-2.089-13.866-3.419-18.425-5.698-7.218-3.419-10.447-8.358-10.447-15.386 0-11.966 10.447-20.134 24.503-20.134 11.776 0 16.525 4.939 18.804 4.939 2.66.19 3.42-1.9 3.61-3.61z" class="st2"/></svg>