<svg version="1.1" x="0px" y="0px" viewBox="0 0 236.59734 288">
  <g>
    <path d="m 110.16,180.61 v 33.35 l 0.08,1.26 -1.28,-0.08 H 92.78 l -1.28,0.08 0.08,-1.26 v -30.42 c 0,-8.87 -5.1,-13.1 -11.4,-13.1 -6.3,0 -11.4,4.24 -11.4,13.1 v 30.42 l 0.08,1.26 -1.28,-0.08 H 51.4 l -1.28,0.08 0.08,-1.26 v -30.42 c 0,-16.56 13.42,-29.98 29.98,-29.98 7.05,0 13.51,2.44 18.63,6.51 l 0.36,1.1 0.36,-1.07 c 0.52,-0.57 1.07,-1.12 1.63,-1.64 l 1.1,-0.25 -1.02,-0.47 C 96.82,152.81 94.11,146.3 94.11,139.16 V 72.63 l -0.08,-1.26 1.28,0.08 h 16.18 l 1.28,-0.08 -0.08,1.26 v 66.53 c 0,7.22 4.16,10.66 9.28,10.66 5.12,0 9.28,-3.45 9.28,-10.66 V 72.63 l -0.08,-1.26 1.28,0.08 h 16.18 l 1.28,-0.08 -0.08,1.26 v 66.53 c 0,7.15 -2.71,13.65 -7.13,18.58 l -1.02,0.47 1.1,0.25 c 0.56,0.53 1.11,1.08 1.63,1.64 l 0.36,1.07 0.36,-1.1 c 5.12,-4.07 11.59,-6.51 18.63,-6.51 16.56,0 29.98,13.42 29.98,29.98 v 30.42 l 0.08,1.26 -1.28,-0.08 h -16.18 l -1.28,0.08 0.08,-1.26 v -30.42 c 0,-8.87 -5.11,-13.1 -11.4,-13.1 -6.3,0 -11.4,4.24 -11.4,13.1 v 30.42 l 0.08,1.26 -1.28,-0.08 h -16.18 l -1.28,0.08 0.08,-1.26 v -33.35 c 0,-9.19 -5.29,-13.58 -11.81,-13.58 -6.52,0.01 -11.81,4.4 -11.81,13.58 z"></path>
  </g>
</svg>