<svg xmlns="http://www.w3.org/2000/svg" viewBox="0 0 593.73 226.84"><path fill="currentColor" d="M503.81 109.24v33.35l.08 1.26-1.28-.08h-16.18l-1.28.08.08-1.26v-30.42c0-8.87-5.1-13.1-11.4-13.1s-11.4 4.24-11.4 13.1v30.42l.08 1.26-1.28-.08h-16.18l-1.28.08.08-1.26v-30.42c0-16.56 13.42-29.98 29.98-29.98 7.05 0 13.51 2.44 18.63 6.51l.36 1.1.36-1.07c.52-.57 1.07-1.12 1.63-1.64l1.1-.25-1.02-.47c-4.42-4.93-7.13-11.44-7.13-18.58V1.26L487.68 0l1.28.08h16.18l1.28-.08-.08 1.26v66.53c0 7.22 4.16 10.66 9.28 10.66s9.28-3.45 9.28-10.66V1.26L524.82 0l1.28.08h16.18l1.28-.08-.08 1.26v66.53c0 7.15-2.71 13.65-7.13 18.58l-1.02.47 1.1.25c.56.53 1.11 1.08 1.63 1.64l.36 1.07.36-1.1c5.12-4.07 11.59-6.51 18.63-6.51 16.56 0 29.98 13.42 29.98 29.98v30.42l.08 1.26-1.28-.08h-16.18l-1.28.08.08-1.26v-30.42c0-8.87-5.11-13.1-11.4-13.1-6.3 0-11.4 4.24-11.4 13.1v30.42l.08 1.26-1.28-.08h-16.18l-1.28.08.08-1.26v-33.35c0-9.19-5.29-13.58-11.81-13.58-6.52.01-11.81 4.4-11.81 13.58z" class="innerLogo"/><path d="M139.12 217.97c-2.37 1.86-5.3 3.47-9.74 3.47-5.86 0-10.88-4.26-10.88-15.8 0-11.89 4.1-17.4 10.79-17.4 4.51 0 7.67 1.6 9.84 4.04zm0 7.92h17.12v-1.8l-6.34-1.51v-58.27h-17.59v1.99l6.81 1.9v19.67c-3.01-2.5-7.51-4.55-13.53-4.55-10.69 0-18.57 9.37-18.57 22.42 0 13.35 7.22 21.1 18.67 21.1 5.57 0 10.21-2.15 13.43-5.1zm106.85-2.18v2.18h-19.35V224l5.49-1.61v-54.58l-5.49-1.61v-1.89h17.23l19.14 47.14 19.67-47.14h17.47v1.89l-6.43 1.7v54.39l6.43 1.71v1.89h-26.74v-1.99l8.57-1.61v-43.32l-19.98 46.92h-4.64l-19.64-47.11v43.51zM327 186.35c7.38 0 11.26 8.23 11.26 18.63 0 10.31-3.88 18.83-11.26 18.83-7.28 0-11.26-8.52-11.26-18.83 0-10.3 3.97-18.63 11.26-18.63zm0-3.03c-12.11 0-22.99 8.42-22.99 21.76 0 12.96 10.97 21.76 22.99 21.76 12.11 0 23.08-8.8 23.08-21.76 0-13.34-10.97-21.76-23.08-21.76zm222.73 35.67c-2.17 1.42-4.07 2.84-7.47 2.84-5.49.1-7-3.31-7-7.28 0-4.07 2.74-6.81 7.76-7.66l6.72-.76v12.86zm0-22.8v7.09l-9.55.48c-9.27.28-15.04 5.3-15.04 12.2 0 7 5.2 10.88 12.11 10.88 5.68 0 9.75-2.74 12.49-4.73v3.78h15.68v-1.8l-5.08-1.51v-28.19c0-6.15-4.07-11.07-13.24-11.07-9.36 0-15.23 2.65-18.54 4.07v9.74h4.68l1.55-8.1c1.08-.46 3.98-1.46 8.62-1.08 5.56.47 6.23 4.36 6.32 8.24zm26.88 26.39v-54.67l-6.33-1.61v-1.99h17.12v58.27l6.33 1.51v1.8h-23.45v-1.8zM51.45 85.98l-9.18-1.8v-1.99h21.29v1.89l-6.53 1.89v37.25c0 15.5-8.45 21.79-25.76 21.79-17.74 0-24.93-6.79-24.93-20.81V85.7L0 84.09V82.2h27.25v2.08l-9.27 1.61v37.75c0 11.42 3.89 17.03 15.8 17.03 12.91 0 17.67-5.82 17.67-18.06zm36.64 56v1.8H65.11v-1.8l6.24-1.51v-35.19l-5.67-1.61v-1.98h16.46v6.43c1.89-1.61 7.85-6.91 15.51-6.91 7.94 0 12.01 4.44 12.01 12.2v26.96l6.05 1.51v1.89H93.39v-1.89l5.58-1.42v-25.83c0-4.07-1.23-7.66-6.34-7.66-4.54 0-9.18 3.22-10.5 4.07v29.42zm31.38 0 6.34-1.51v-35.19l-5.68-1.61v-1.98h16.46v38.78l6.24 1.51v1.8h-23.36zm17.69-54.77c0 3.22-2.84 5.87-6.24 5.87-3.31 0-6.24-2.65-6.24-5.87s2.93-5.96 6.24-5.96c3.4 0 6.24 2.74 6.24 5.96zm168.11 54.77 6.34-1.51v-35.19l-5.67-1.61v-1.98h16.45v38.78l6.25 1.51v1.8h-23.37zm17.69-54.77c0 3.22-2.84 5.87-6.24 5.87-3.31 0-6.24-2.65-6.24-5.87s2.93-5.96 6.24-5.96c3.4 0 6.24 2.74 6.24 5.96zm-152.83 14.48h14v1.7l-3.4 1.61-16.02 39.44h-3.5l-14.96-39.82-3.03-1.23v-1.7h20.43v1.7l-6.53 1.61 9.39 25.63 9.3-25.82-5.68-1.42zm43.68 15.13h-16.74c.94-7.19 3.78-12.49 8.8-12.49 5.67 0 7.56 6.62 7.94 12.49zm-17.22 3.31h27.81c-.28-11.63-6.34-18.92-18.54-18.92-12.01 0-20.9 10.41-20.9 21.76 0 13.15 8.61 21.76 21 21.76 10.59 0 16.08-4.16 19.3-6.53l-1.8-2.84c-2.46 1.51-7.38 4.83-15.51 4.35-8.14-.57-12.21-9.08-11.36-19.58zm100.23-16.75-.94 10.31H292l-.95-7c-1.42-.76-3.31-2.37-7.47-2.37-3.4 0-6.05 1.8-6.05 5.49 0 4.35 4.82 6.05 9.65 8.23 4.64 1.99 12.2 4.82 12.2 12.3 0 8.51-7 14.38-15.42 14.38-7.76 0-12.3-1.8-13.62-2.27l-.76-11.45 3.97-.38 2.27 7.76c1.13.85 4.26 3.31 8.04 3.22 5.39 0 7.95-2.84 7.95-6.91 0-4.83-6.72-6.91-11.16-8.99-4.16-1.99-10.59-3.78-10.59-12.39 0-7.09 5.87-12.11 13.81-12.11 6.8.01 11.06 1.62 12.95 2.18zm84.96-10.31 2.36 3.41 16.18-8.7-4.07-6.06zm10.59 23.75h-16.74c.95-7.19 3.78-12.49 8.8-12.49 5.67 0 7.56 6.62 7.94 12.49zm-17.22 3.31h27.81c-.28-11.63-6.34-18.92-18.54-18.92-12.01 0-20.9 10.41-20.9 21.76 0 13.15 8.61 21.76 21 21.76 10.59 0 16.08-4.16 19.3-6.53l-1.8-2.84c-2.46 1.51-7.38 4.83-15.51 4.35-8.14-.57-12.21-9.08-11.36-19.58zM260 101.28c-6.06 0-10.42 4.86-12.88 10.34h-.19v-9.92h-17.12v1.74l6.34 1.85v35.19l-6.34 1.51v1.8h26.3v-2.08l-9.18-1.51v-23.89c2.51-5.52 6.22-7.76 8.57-7.76 1.76 0 2.42.36 3.8 1.53.49.39 2.3.91 3.38.42 2.06-.88 2.62-2.39 2.62-4.6-.01-2.45-2.36-4.62-5.3-4.62zm117.31 122.81v1.8h-22.99v-1.8l6.25-1.51v-35.19l-5.67-1.61v-1.98h16.46v6.43c1.89-1.61 7.85-6.91 15.51-6.91 7.95 0 12.02 4.44 12.02 12.2v26.96l6.05 1.51v1.89h-22.33v-1.89l5.58-1.42v-25.82c0-4.07-1.23-7.66-6.34-7.66-4.54 0-9.18 3.22-10.5 4.07v29.42zm94.44-40.7c-6.06 0-10.42 4.86-12.88 10.34h-.19v-9.92h-17.12v1.74l6.34 1.85v35.19l-6.34 1.51v1.8h26.3v-2.08l-9.18-1.51v-23.89c2.51-5.52 6.22-7.76 8.57-7.76 1.77 0 2.42.36 3.8 1.53.49.39 2.3.91 3.38.42 2.06-.88 2.62-2.39 2.62-4.6-.01-2.45-2.36-4.62-5.3-4.62zm-111.52-44.33c-1.58 1.06-3.2 1.83-5.6 1.83-3.8 0-5.02-2.78-5.02-9.01v-26.51l10.78-1.61v-2.08h-10.78v-19.5h-3.52c-.71 11.16-4.66 18.48-14.61 19.5h-1.64v2.08l8.99 1.61v27.07c0 8.59 2.08 12.28 10.12 12.28 5.79 0 10.44-2.18 12.34-3.97zm76.4 82.11c-1.58 1.06-3.2 1.83-5.6 1.83-3.8 0-5.02-2.78-5.02-9.01v-26.5l10.79-1.61v-2.08h-10.79v-19.5h-3.52c-.71 11.16-4.66 18.48-14.61 19.5h-1.64v2.08l8.98 1.61v27.07c0 8.59 2.08 12.28 10.12 12.28 5.79 0 10.44-2.18 12.34-3.97zm-248.39-22.24H171.5c.95-7.19 3.78-12.48 8.8-12.48 5.67 0 7.56 6.62 7.94 12.48zm-17.21 3.31h27.81c-.28-11.64-6.34-18.92-18.54-18.92-12.02 0-20.91 10.41-20.91 21.76 0 13.15 8.61 21.76 21 21.76 10.59 0 16.08-4.16 19.3-6.53l-1.8-2.84c-2.46 1.51-7.38 4.83-15.51 4.35-8.13-.56-12.2-9.08-11.35-19.58zm335.85-3.31h-16.74c.95-7.19 3.78-12.49 8.8-12.49 5.67 0 7.56 6.63 7.94 12.49zm7.94-29.04-4.07-6.05-14.47 11.35 2.36 3.4zm-25.16 32.35h27.81c-.28-11.63-6.34-18.92-18.54-18.92-12.01 0-20.9 10.41-20.9 21.76 0 13.15 8.61 21.76 21 21.76 10.59 0 16.08-4.16 19.3-6.53l-1.8-2.84c-2.46 1.51-7.38 4.82-15.51 4.35-8.15-.56-12.21-9.08-11.36-19.58z"/></svg>