<?xml version="1.0" encoding="UTF-8"?>
<svg xmlns="http://www.w3.org/2000/svg" version="1.1" viewBox="0 0 432 432">
  <defs>
    <style>
      .cls-1 {
        fill: #1d1d1b;
      }

      .cls-2 {
        fill: #fecc33;
      }

      .cls-3 {
        fill: #fff;
      }
    </style>
  </defs>
  <!-- Generator: Adobe Illustrator 28.6.0, SVG Export Plug-In . SVG Version: 1.2.0 Build 709)  -->
  <g>
    <g id="Calque_1">
      <path class="cls-1" d="M216,18h0c109.4,0,198,88.6,198,198h0c0,109.4-88.6,198-198,198h0c-109.4,0-198-88.6-198-198h0C18,106.6,106.6,18,216,18Z"/>
      <circle class="cls-2" cx="327.9" cy="222.1" r="17.7"/>
      <g>
        <g>
          <g>
            <path class="cls-3" d="M200.7,281v17.9c0,15.9,12.8,28.9,28.7,29.1v-13.7c-7.7-.3-14.1-7.1-14.1-15.2v-18.1h-14.5Z"/>
            <path class="cls-3" d="M158,193.4c-16.1,0-29.2,13.1-29.2,29.1s13.1,29.2,29.2,29.2,29.1-13.1,29.1-29.2v-41.9h-14.5v41.9c0,8.8-6.3,15.5-14.6,15.5s-14.6-6.7-14.6-15.5,5.5-15.9,14.6-15.9h5.7v-13.3h-5.7Z"/>
            <path class="cls-3" d="M132.2,257.2v41.9c0,16.1,13.1,29.2,29.2,29.2s29.1-13.1,29.1-29.2-13.1-29.1-29.1-29.1h-5.7v13.3h5.7c9.2,0,14.6,8.1,14.6,15.9s-6.3,15.5-14.6,15.5-14.6-6.7-14.6-15.5v-41.9h-14.5Z"/>
            <path class="cls-3" d="M235.7,257.2v41.9c0,16.1,13.1,29.2,29.1,29.2s29.2-13.1,29.2-29.2-13.1-29.1-29.2-29.1h-5.7v13.3h5.7c9.2,0,14.6,8.1,14.6,15.9s-6.3,15.5-14.6,15.5-14.6-6.7-14.6-15.5v-41.9h-14.5Z"/>
            <path class="cls-3" d="M200.7,205.3v17.2c0,15.9,12.8,28.9,28.7,29.1v-13.7c-7.7-.3-14.1-7.1-14.1-15.2v-17.5h-14.5Z"/>
            <path class="cls-3" d="M264.9,193.1c-16,0-29.1,13-29.1,29.1s13,29.1,29.1,29.1,29.1-13,29.1-29.1-13-29.1-29.1-29.1ZM264.9,237.7c-8.3,0-14.6-6.6-14.6-15.4s6.3-15.4,14.6-15.4,14.6,6.3,14.6,15.4-6.3,15.4-14.6,15.4Z"/>
            <path class="cls-3" d="M238.3,116.6v40.4c0,14.7,11.9,26.6,26.6,26.6s26.6-11.9,26.6-26.6v-40h-14.5v40.7c0,6.7-5.5,12.3-12.1,12.3s-12.1-5.6-12.1-12.3v-41h-14.5Z"/>
            <path class="cls-3" d="M198.8,100.4v44.7c0,15.9,12.8,28.9,28.7,29.1v-14c-7.8-.3-14.1-6.7-14.1-14.5v-15.8h14.1v-13.4h-14.1v-16.2h-14.5Z"/>
          </g>
          <path class="cls-3" d="M200.6,195.7h15v-15h-15v15Z"/>
          <path class="cls-3" d="M200.6,272h15v-15h-15v15Z"/>
        </g>
        <path class="cls-3" d="M130.5,147.3c.3,15.3,13.3,27.7,29.3,27.7s29.3-12.1,29.3-27.6-11.6-27-28.4-27.3l-.4,13.2c8,.2,14.4,6.2,14.4,13.4s-6.8,14.1-15,14.1-14.6-6.2-14.9-13.6h-14.3Z"/>
        <path class="cls-3" d="M159.7,96.1c-15.4,0-27.4,11.5-27.4,26.2s11,25,26.9,25.2v-13.1c-7-.2-12.6-5.6-12.6-12.1s4.6-12.7,13.1-12.7,7.9,1.9,10.6,5.7h14c-2.6-11.7-12.2-19.2-24.7-19.2Z"/>
      </g>
    </g>
  </g>
</svg>