<svg width="147" height="58" viewBox="0 0 147 58" fill="none"
  xmlns="http://www.w3.org/2000/svg">
  <path id="LOGO" fill-rule="evenodd" clip-rule="evenodd" d="M124.682 27.9543V36.3181L124.772 36.5907H120.11V28.6812C120.11 26.409 118.857 25.4079 117.332 25.4079C115.718 25.4079 114.463 26.4082 114.463 28.6812V36.5907H109.892V28.6812C109.882 24.5234 113.198 21.1453 117.296 21.1352C117.309 21.1352 117.32 21.1352 117.332 21.1352C119.035 21.1352 120.649 21.772 121.904 22.7722L121.994 23.0448L122.083 22.7722C122.264 22.6814 122.352 22.4997 122.531 22.4088L122.8 22.3179L122.531 22.2263C121.457 20.9535 120.739 19.3172 120.739 17.4993V0.5H125.4L125.31 0.772579V17.4993C125.31 19.3172 126.384 20.2266 127.64 20.2266C128.896 20.2266 129.972 19.3172 129.972 17.4993V0.772579L129.882 0.5H134.543V17.4993C134.543 19.3172 133.914 20.9543 132.748 22.2263L132.57 22.3179L132.838 22.4088L133.197 22.7722L133.286 23.0448L133.376 22.7722C134.704 21.7114 136.346 21.1344 138.037 21.1352C142.07 21.1352 145.386 24.4993 145.386 28.6812V36.3181L145.477 36.5907H140.815V28.6812C140.815 26.409 139.56 25.4079 138.037 25.4079C136.423 25.4079 135.168 26.4082 135.168 28.6812V36.5907H130.507L130.596 36.3181V27.9543C130.596 25.5904 129.252 24.4993 127.638 24.4993C126.024 24.4993 124.682 25.5904 124.682 27.9543ZM34.4204 55.2277C33.7925 55.682 33.0758 56.1363 32 56.1363C30.5658 56.1363 29.3109 55.0445 29.3109 52.137C29.3109 49.2295 30.2971 47.7718 32 47.7718C33.0758 47.7718 33.8828 48.1353 34.4204 48.7728V55.2277ZM34.4204 57.2259H38.6332V56.7716L37.1095 56.4081V41.7712H32.7167V42.2255L34.4196 42.7722V47.6802C33.7029 47.0449 32.5375 46.4975 31.1034 46.4975C28.4142 46.4975 26.4426 48.8621 26.4426 52.1354C26.4426 55.4087 28.2351 57.4977 31.1034 57.4977C32.3247 57.4961 33.5038 57.0442 34.4196 56.2249V57.2251L34.4204 57.2259ZM74.3078 41.7712V42.2255L72.693 42.6806V56.3173L74.3078 56.7716V57.2259H67.6738V56.7716L69.8247 56.3173V45.4095L64.8055 57.2259H63.7297L58.8002 45.4095V56.3173L60.8622 56.6807V57.2259H56.1126V56.7716L57.4564 56.3173V42.6806L56.1126 42.2255V41.7712H60.3239L65.075 53.5907L69.915 41.7712H74.3078ZM80.9395 47.3167C82.732 47.3167 83.719 49.4081 83.719 51.9537C83.719 54.4993 82.732 56.6807 80.9395 56.6807C79.147 56.6807 78.1616 54.5894 78.1616 51.9537C78.1616 49.318 79.147 47.3167 80.9395 47.3167ZM80.9395 46.499C77.9809 46.499 75.2044 48.6827 75.2044 52.0469C75.2044 55.2277 77.9824 57.5 80.9395 57.5C83.8966 57.5 86.6769 55.2277 86.6769 52.0469C86.6769 48.6827 83.8982 46.499 80.9395 46.499ZM136.064 55.498C135.526 55.8614 135.078 56.2264 134.271 56.2264C132.838 56.2264 132.479 55.4087 132.479 54.4084C132.479 53.3166 133.197 52.6813 134.449 52.408L136.063 52.227V55.4988L136.064 55.498ZM136.064 49.7723V51.5903L133.734 51.6827C131.402 51.7735 129.969 52.9555 129.969 54.7727C129.969 56.5899 131.313 57.4992 133.015 57.4992C134.36 57.4992 135.436 56.7708 136.062 56.3165V57.2251H140.008V56.7708L138.753 56.4074V49.318C138.753 47.7718 137.676 46.499 135.436 46.499C133.195 46.499 131.671 47.2274 130.864 47.5909V50.0464H132.03L132.388 47.9551C132.656 47.8627 133.374 47.5917 134.539 47.6825C135.884 47.771 136.064 48.772 136.064 49.7723ZM147 56.7716V57.2259H141.172V56.7716L142.786 56.4081V42.6814L141.172 42.2263V41.772H145.386V56.4089L147 56.7716ZM12.7289 22.137L10.3989 21.6827V21.1368H15.6868V21.5911L14.0727 22.137V31.4093C14.0727 35.3186 12.0107 36.9549 7.70903 36.9549C3.40735 36.9549 1.52374 35.2278 1.52374 31.6835V22.0477L0 21.5926V21.1383H6.72205V21.6843L4.39127 22.0477V31.5942C4.39127 34.4116 5.37749 35.8669 8.33614 35.8669C11.5628 35.8669 12.7274 34.3207 12.7274 31.32V22.137H12.7289ZM21.781 36.1356V36.5922H16.0452V36.1356L17.6593 35.7737V26.9549L16.2251 26.4998V26.0455H20.2588V27.6825C20.7971 27.2275 22.2297 25.9554 24.1133 25.9554C25.9969 25.9554 27.1608 27.0465 27.1608 28.9546V35.7745L28.5949 36.1364V36.593H23.1271V36.1364L24.4717 35.7745V29.318C24.4717 28.2269 24.2029 27.4092 22.8591 27.4092C21.7825 27.4092 20.6179 28.1361 20.2596 28.4086V35.7729L21.781 36.1356ZM33.7925 35.7729L35.317 36.1356V36.5922H29.5796V36.1356L31.1041 35.7729V26.9541L29.6692 26.4998V26.0455H33.7925V35.7729ZM33.8828 22.4088C33.8828 23.2265 33.255 23.8641 32.3583 23.8641C31.5521 23.8641 30.8338 23.2265 30.8338 22.4088C30.8338 21.5911 31.5505 20.8634 32.3583 20.8634C33.255 20.8634 33.8828 21.5903 33.8828 22.4088ZM79.7733 35.7729L81.2979 36.1356V36.5922H75.5605V36.1356L77.085 35.7729V26.9541L75.7412 26.4998V26.0455H79.7733V35.7729ZM79.9541 22.4088C79.9541 23.2265 79.2358 23.8641 78.4296 23.8641C77.5337 23.8641 76.8155 23.2265 76.8155 22.4088C76.8155 21.5911 77.5337 20.8634 78.4296 20.8634C79.2358 20.8634 79.9541 21.5903 79.9541 22.4088ZM36.2129 26.7732L35.4066 26.5006V26.0463H40.5161V26.5006L38.902 26.864L41.2328 33.3189L43.4732 26.864L42.1294 26.5006V26.0463H45.5345V26.5006L44.7274 26.864L40.7841 36.7732H39.8882L36.2129 26.7732ZM52.8859 29.8639H48.7626C49.0314 28.046 49.6585 26.6823 50.915 26.6823C52.3484 26.6815 52.7956 28.3178 52.8859 29.8639ZM48.6707 30.6817H55.5727C55.4832 27.7726 53.9587 25.9547 50.9119 25.9547C47.8652 25.9547 45.8024 28.4995 45.8024 31.4086C45.8024 34.6818 47.8645 36.8632 51.0015 36.8632C53.6003 36.8632 54.9449 35.7737 55.7527 35.2262L55.304 34.5001C54.6776 34.862 53.5115 35.6805 51.4495 35.5897C49.4786 35.4087 48.4028 33.3182 48.6707 30.6817ZM73.5 26.4998L73.2312 29.0447H72.2458L72.0658 27.3183C71.7075 27.1358 71.1692 26.6815 70.183 26.6815C69.3767 26.6815 68.6593 27.1358 68.6593 28.0452C68.6593 29.1363 69.9142 29.5914 71.0796 30.1365C72.2458 30.6825 74.1271 31.3177 74.1271 33.2265C74.1271 35.4103 72.3346 36.8632 70.2726 36.8632C68.3897 36.8632 67.2259 36.4089 66.866 36.3181L66.6876 33.4082L67.673 33.3174L68.3009 35.2262C68.5697 35.4988 69.2871 36.0439 70.2734 36.0439C71.6179 36.0439 72.2458 35.3155 72.2458 34.3168C72.2458 33.1341 70.5429 32.5897 69.4671 32.0446C68.3913 31.5903 66.8675 31.1352 66.8675 28.9538C66.8675 27.1358 68.3017 25.9547 70.2741 25.9547C71.977 25.9547 72.9617 26.3173 73.5 26.4998ZM99.0467 22.5004L98.059 21.0459L94.4747 23.8641L95.1011 24.7727L99.0467 22.5004ZM97.1646 29.8639H92.9518C93.2198 28.046 93.9372 26.6823 95.1922 26.6823C96.536 26.6815 97.0727 28.3178 97.1646 29.8639ZM92.8606 30.6817H99.7619C99.6723 27.7726 98.1501 25.9547 95.1914 25.9547C92.2328 25.9547 89.9916 28.4995 89.9916 31.4086C89.9916 34.6818 92.1447 36.8632 95.1914 36.8632C97.7902 36.8632 99.1348 35.7737 99.941 35.2262L99.4931 34.5001C98.8668 34.862 97.7006 35.6805 95.6386 35.5897C93.6677 35.4087 92.6815 33.3174 92.8599 30.6809L92.8606 30.6817ZM64.3576 25.9547C62.8331 25.9547 61.758 27.1358 61.1302 28.4995V26.0447H56.8277V26.499L58.4418 26.9541V35.7729L56.8277 36.1348V36.5914H63.3714V36.0447L61.1302 35.6813V29.6814C61.758 28.3178 62.6547 27.7726 63.1922 27.7726C63.6401 27.7726 63.8201 27.8635 64.1784 28.1361C64.268 28.2269 64.7159 28.4086 64.9847 28.2269C65.523 28.046 65.6126 27.6818 65.6126 27.0457C65.6133 26.4998 65.0743 25.9547 64.3576 25.9547ZM93.3997 56.7716V57.2259H87.6623V56.7716L89.2764 56.4081V47.5909L87.843 47.1366V46.6823H91.876V48.3193C92.4135 47.8627 93.8461 46.499 95.7305 46.499C97.6149 46.499 98.7772 47.6817 98.7772 49.5913V56.4081L100.212 56.7716V57.2259H94.7442V56.7716L96.0888 56.4081V49.954C96.0888 48.8645 95.8201 47.9559 94.4747 47.9559C93.4005 47.9559 92.2343 48.7736 91.876 49.0454V56.4089L93.3997 56.7716ZM116.794 46.5906C115.27 46.5906 114.195 47.771 113.567 49.1339V46.6807H109.264V47.135L110.878 47.5893V56.4066L109.264 56.77V57.2243H115.806V56.6792L113.566 56.3157V50.3159C114.194 48.9522 115.09 48.4071 115.628 48.4071C116.076 48.4071 116.257 48.4979 116.613 48.7705C116.704 48.8614 117.152 48.9514 117.42 48.8614C117.957 48.6804 118.048 48.2238 118.048 47.6786C118.048 47.1335 117.511 46.5906 116.794 46.5906ZM89.1868 35.4095C88.7389 35.6813 88.3806 35.8638 87.7519 35.8638C86.856 35.8638 86.4969 35.2262 86.4969 33.5915V26.9541L89.1876 26.5907V26.0447H86.4969V21.136H85.6907C85.5122 23.9542 84.5268 25.7729 82.0168 26.0447H81.6585V26.5907L83.8989 26.9541V33.7732C83.8989 35.9546 84.3469 36.8632 86.4081 36.8632C87.843 36.8632 88.9173 36.3181 89.4548 35.8638L89.1868 35.4095ZM108.099 56.0455C107.651 56.3173 107.292 56.4998 106.665 56.4998C105.77 56.4998 105.41 55.7713 105.41 54.2275V47.5901L108.099 47.1358V46.6815H105.41V41.7712H104.604C104.426 44.5902 103.438 46.4081 100.929 46.6815H100.57V47.1358L102.813 47.5901V54.4092C102.813 56.5006 103.261 57.4992 105.322 57.4992C106.756 57.4992 107.832 56.9525 108.369 56.4998L108.099 56.0455ZM46.6103 50.4999H42.3974C42.6662 48.682 43.3836 47.3175 44.6378 47.3175C45.9824 47.3175 46.5199 48.9545 46.6103 50.4999ZM42.3086 51.3184H49.2106C49.121 48.4086 47.5965 46.499 44.6386 46.499C41.6807 46.499 39.4395 49.1347 39.4395 52.0469C39.4395 55.3186 41.5919 57.5 44.6386 57.5C47.2381 57.5 48.5835 56.4081 49.3897 55.863L48.9418 55.1369C48.3139 55.4988 47.1493 56.3173 45.0873 56.2264C43.1149 56.0455 42.1302 53.9542 42.3086 51.3184ZM125.488 50.4999H121.364C121.545 48.682 122.262 47.3175 123.518 47.3175C124.951 47.3175 125.398 48.9545 125.488 50.4999ZM127.459 43.1372L126.474 41.6819L122.888 44.5009L123.426 45.3186L127.459 43.1372ZM128.087 51.3184C127.997 48.4086 126.564 46.499 123.516 46.499C120.468 46.499 118.316 49.1347 118.316 52.0469C118.316 55.3186 120.469 57.5 123.516 57.5C126.115 57.5 127.549 56.4081 128.355 55.863L127.907 55.1369C127.281 55.4988 126.025 56.3173 124.053 56.2264C121.991 56.0455 121.006 53.9542 121.185 51.3184H128.087Z" fill="currentColor"/>
</svg>
