<svg xmlns="http://www.w3.org/2000/svg" viewBox="0 0 720 720"><style>.st0{fill:#fff;}</style><path d="m383.3 59.5-.2 2.4c-5.1-.4-6.8.6-7.1 4l-2.4 34.8c-.2 2.9 1.1 4.5 4.8 4.8 9.7.7 14.7-5.1 17.6-14.6l2.2.2-1.7 18.1-36.9-2.6.2-2.4c4.9.3 6.4-.7 6.7-4l2.4-34.8c.2-3-.9-4.5-5.9-4.9l.2-2.4 20.1 1.4zm43.3 36.6c1.7-7.9.1-12.7-5.1-13.9-4.7-1-8.4 2.1-10.2 10.5l15.3 3.4zm-15.9-1c-2.1 9.7.9 15.8 6.7 17.1 4.7 1 8.3-1.1 11.7-4.1l1.4 1.5c-4.8 4.6-9.6 5.8-15.9 4.5-8.6-1.9-13.5-11.2-11.5-20.4 2-9.1 10.3-15.6 18.9-13.7 8.6 1.9 13.3 9.4 10.9 20l-22.2-4.9zm55.8-1 2.3.8-3.5 9.7-2.3-.8c-.1-6.7-2.3-9.9-7.2-11.6-3.6-1.3-6.6-.5-7.7 2.3-1 2.8.8 5 5.4 8.1 2.2 1.5 4.1 2.7 5.6 3.9 4.5 3.7 5.2 7.1 3.8 10.7-2.5 6.8-9.3 8.8-16.2 6.3-6-2.2-7-5.4-9-6.1-1.2-.4-2 .8-2.6 1.5l-1.9-.7 4.2-11.4 1.9.7c-.7 6.1 2.2 11.6 8.1 13.8 3.5 1.3 7.9.4 9.1-2.9 1.2-3.3-.7-5.7-4.9-8.7-3.3-2.3-5.8-3.9-7.5-5.7-2.7-2.8-3.4-5.6-2.2-8.8 2-5.5 8.2-7.5 14.6-5.1 5.4 2 6.8 5 7.8 5.4 1.1.1 1.8-.7 2.2-1.4m44.4 42.8c5.2-8.3 5.5-14.5.8-17.5-2.6-1.7-6.2-1.2-9.9 2-2.1 1.8-3.4 3.2-6.3 7.8-1.5 2.5-2.7 4.5-3.3 6.2-1.8 5.1.4 7.6 3.1 9.3 4.9 3 10.6.2 15.6-7.8m-8.3-19.1.1.1c3.9-2.1 7.5-2.3 10.8-.2 7.6 4.8 8.9 14.4 3.9 22.5-5 8-15.8 11.2-23.6 6.3-4.8-3-5.4-7.9-6.8-8.7-1.2-.7-2.5.3-3.7 1l-2.2-1c2.6-2.8 3.9-4.4 4.6-5.7l19-30.3c1-1.6.8-2.9-2.6-5.1l1.3-2 10 5.8-10.8 17.3zm40.2 13.2c-1.7-1.4-2-3.8-.6-5.6s3.8-2 5.6-.6c1.7 1.4 2 3.8.6 5.6-1.4 1.7-3.9 1.9-5.6.6m-18.7 29.8c-1.1 1.3-1.2 2.7 2 5.4l.3.3-1.5 1.9-13.5-10.9 1.5-1.9.3.3c3.2 2.6 4.6 2.2 5.6.9l14.2-17.7c1.1-1.4 1.1-2.7-2.4-5.6l1.5-1.9 9.6 7.2-17.6 22zm34.3 17c7-6.9 8.7-12.9 4.8-16.9-2.2-2.2-5.7-2.6-10.1-.4-2.5 1.2-4.1 2.3-7.9 6.1-2.1 2-3.7 3.7-4.6 5.3-2.9 4.6-1.4 7.5.9 9.7 4 4.3 10.1 2.9 16.9-3.8m-3.7-20.5.1.1c4.3-1.2 7.8-.5 10.6 2.3 6.3 6.4 5.4 16.1-1.4 22.8-6.7 6.6-18 7.2-24.4.7-4-4.1-3.4-8.9-4.6-10.1-1-1-2.5-.3-3.8.2l-1.9-1.5c3.2-2.1 4.8-3.4 5.8-4.5l25.4-25.1c1.4-1.3 1.4-2.7-1.4-5.6l1.7-1.7 8.4 7.9-14.5 14.5zm11 46.8c-1.4 1.1-1.7 2.4 1.1 6l-1.9 1.5-10.7-13.7 1.9-1.5c2.8 3.6 4.1 3.6 5.5 2.5l29.7-23.2c1.4-1.1 1.7-2.4-1.1-6l1.9-1.5 7.7 9.2-34.1 26.7zm38.7-5.9c-1.2-1.8-.8-4.2 1.1-5.5 1.9-1.2 4.3-.7 5.5 1.1 1.2 1.8.8 4.2-1.1 5.5-1.9 1.3-4.3.8-5.5-1.1m-26.9 22.7c-1.4.9-2 2.2.3 5.7l.2.4-2 1.3-9.6-14.5 2-1.3.2.4c2.3 3.5 3.7 3.5 5.1 2.6l19-12.5c1.5-1 1.9-2.3-.6-6l2-1.3 7 9.8-23.6 15.4zm27.6 26.7c9-4.5 12.2-9.2 9.1-15.3-2.8-5.6-8.1-6.5-17.7-1.7-9.1 4.6-12.2 9.3-9.2 15.3 3.1 5.9 8.7 6.3 17.8 1.7m-19.9-.7c-4.4-8.7-1-18.7 7.9-23.2 8.8-4.4 18.9-1.3 23.3 7.5 4.4 8.8.9 18.7-7.9 23.2-8.7 4.4-18.8 1.3-23.3-7.5m54.8 13.8-10.4 3.7 3.3 9.2-2.3.8-3.3-9.2-24.1 8.6c-2.6.9-2.8 2.8-2.1 4.9.8 2.3 3.1 4 7.6 2.7.9-.2 1.8-.6 2.7-.9l.7 1.9-1.1.4c-7 2.5-10.7.9-12.8-4.9-2.2-6.1 0-9.3 5.1-11.1l21.8-7.7-1.7-4.9 2.3-.8c2.6 5.7 4.3 6.3 13.5 5l.8 2.3zm-8.3 32v.1c4.6.9 8 3.6 9.1 8.5 1.5 6.7-2.4 11.3-10 13l-15.8 3.5c-1.9.4-2.6 1.5-1.7 5.5l-2.3.5-2.5-11.4 23.3-5.1c4.3-1 6.7-3.5 6-7.1-1.1-5-8.2-7-13.3-5.9l-13.9 3.1c-1.9.4-2.6 1.5-1.6 6l-2.3.5-3.7-16.8 2.3-.5c.9 4.1 2 4.7 3.9 4.3l36.7-8.1c1.9-.4 2.6-1.5 1.7-5.5l2.3-.5 2.9 11.3-21.1 4.6zm18.3 52.8-.2-2.8 6.1-11.2c.9-1.8 1.9-2.4 2.8-2.5 1.3-.1 2.4.5 2.5 2.2.1.9 0 1.6-1.4 3.1l-9.8 11.2zm-18.1 3.2c8.1-.6 12.2-3.5 11.8-8.8-.3-4.8-4.4-7.4-12.9-6.8l1.1 15.6zm-3.4-15.5c-9.9.7-14.9 5.3-14.5 11.3.3 4.8 3.4 7.6 7.2 10.1l-1 1.8c-5.7-3.3-8.3-7.6-8.8-14-.6-8.8 6.9-16.1 16.3-16.8 9.3-.7 17.9 5.5 18.5 14.3.6 8.7-5.3 15.4-16.1 16.1l-1.6-22.8zm0 52.2c10.5.7 15-1.6 15.3-7 .4-5.3-3.8-8.1-14.3-8.8-10.9-.7-15.4 1.7-15.7 6.9-.3 4.9 3.3 8.1 14.7 8.9m16.1 5.7-.1 2-40.6-2.7c-1.9-.1-2.9.7-3.3 5.3l-2.4-.2 1.2-17.5 2.4.2c-.3 4.5.6 5.5 2.5 5.6l11.2.7v-.2c-3.2-2.5-4.2-4.5-4-8.7.6-9 8-14.3 18.5-13.6 9.5.6 16.8 9.3 16.3 16.8-.4 5.4-4.5 7.6-4.6 9-.1 1.2 1.7 2.7 2.9 3.3m-3.5 22.6-24.1-5.2c-3.5-.8-6.7 0-7.5 3.8-1 4.8 2.2 8.8 7.9 10.9l15.5 3.4c1.8.4 3-.2 3.9-4.4l.1-.4 2.3.5-2.6 11.9-27.3-5.9c-1.9-.4-3 .3-3.9 4.2l-2.3-.5 1.9-10.9 6.5 1.4v-.1c-3.8-3.5-5.6-7.3-4.6-12.1 1.4-6.4 6.8-9.3 14.4-7.6l15.9 3.4c1.9.4 3-.2 3.9-4.3l2.3.5-2.3 11.4zm-29.3 49.7c7.6 2.9 12.6 1.9 14.4-3.1 1.7-4.5-.9-8.6-8.9-11.6l-5.5 14.7zm3.3-15.5c-9.3-3.5-15.8-1.4-17.9 4.2-1.7 4.5-.1 8.4 2.3 12.2l-1.7 1.2c-3.9-5.4-4.4-10.3-2.1-16.4 3.1-8.3 13-11.8 21.8-8.5 8.7 3.3 14 12.4 10.8 20.7-3.1 8.2-11.2 11.8-21.4 7.9l8.2-21.3zm-7 55.4-1.1 2.1-9.1-4.9 1.1-2.1c6.7.9 10.1-.9 12.5-5.5 1.8-3.4 1.5-6.5-1.2-7.9-2.6-1.4-5.1.1-8.7 4.2-1.8 1.9-3.3 3.7-4.7 5-4.3 3.9-7.7 4.1-11.2 2.3-6.3-3.4-7.4-10.4-3.9-17 3-5.6 6.4-6.2 7.3-8 .6-1.1-.5-2.1-1.1-2.7l.9-1.7 10.7 5.7-.9 1.7c-6-1.5-11.8.6-14.8 6.1-1.8 3.3-1.5 7.8 1.6 9.4 3.1 1.7 5.8.1 9.3-3.7 2.8-2.9 4.7-5.2 6.7-6.6 3.2-2.3 6-2.5 9.1-.9 5.2 2.8 6.2 9.2 3 15.2-2.7 5.1-5.9 6-6.5 7-.4 1 .4 1.8 1 2.3m-19.8 53.6-1.8-1.6c3.4-3.9 3.7-5.8 1.2-8l-21.6-19.1c-5.2-4.6-10.9-4.8-16.1 1.1-6.5 7.3-5.2 14.3.9 19.7l18.3 16.2c4.1 3.6 6.7 2 9.8-1.4l1.8 1.6-11.3 12.7-1.8-1.6c3-3.4 3.5-6.1-.2-9.4l-18.8-16.6c-6.9-6.1-7.1-15.4 0-23.5 7.9-8.9 15.8-9.9 22.4-4.1l21.4 18.9c2.5 2.2 4.5 1.7 7.8-2.1l1.8 1.6-13.8 15.6zM521.6 576c6 7.6 11.7 9.6 16 6.2 4-3.2 3.8-9-2.5-16.9-6.5-8.2-11.9-10.1-15.8-6.9-4.5 3.5-3.6 10.2 2.3 17.6m-12.4-5.4c-1.2-1.5-2.5-1.7-5.6.7l-1.2-1.5 8.4-7.2 4.1 5.2.1-.1c-1.3-4.7 0-9 4.1-12.3 5.8-4.6 16.1-2.2 21.8 5 6 7.5 5.4 18-1.4 23.4-3.1 2.5-6.1 2.9-10.2 1.2l-.1.1 8.9 11.2c1.1 1.3 2.4 1.7 5.6-.9l.3-.3 1.5 1.9-9.1 7.8-27.2-34.2zm-19.9 29c4.1 7 8.5 9.4 13.1 6.7 4.2-2.4 4.7-7.2.4-14.6l-13.5 7.9zm12.3-10c-5-8.6-11.3-11.1-16.5-8.1-4.2 2.4-5.3 6.4-5.9 10.9l-2-.1c.4-6.6 3.1-10.8 8.7-14 7.6-4.4 17.5-.9 22.2 7.3 4.7 8.1 2.9 18.5-4.7 22.9-7.6 4.4-16.1 2-21.6-7.4l19.8-11.5zm-29.8 50.6L448.9 610h-.1l1 38-14.7 5.2-.8-2.3c5-1.8 5.4-3.6 4.4-6.3L427 611.8c-1.1-3.2-3-3.7-8-1.9l-.8-2.3 19.3-6.8.8 2.3c-4.6 1.6-5.6 3.2-4.5 6.3l13.1 36.8h.1l-1.2-48.3 2.3-.8 28.9 38.1h.1l-11.8-33.3c-2.1-5.9-4.3-6.8-9.3-5l-.8-2.3 16-5.7.8 2.3c-5 1.8-6 3.9-3.9 9.7l10.5 29.7c1.1 3.2 3 3.7 8 1.9l.8 2.3-15.6 5.4zm-89.712-13.92 17.384-2 .537 4.668-17.384 2zM336.2 660.5l.2-2.4c5.1.4 6.8-.6 7.1-3.9l2.5-34.8c.2-2.9-1.1-4.5-4.8-4.8-9.7-.7-14.7 5.1-17.6 14.5l-2.2-.2 1.7-18.1 36.9 2.7-.2 2.4c-4.9-.3-6.4.7-6.7 4l-2.5 34.8c-.2 3 .9 4.5 5.9 4.9l-.2 2.4-20.1-1.5zM293 623.8c-1.8 7.9-.1 12.7 5.1 13.9 4.7 1 8.4-2.1 10.2-10.5l-15.3-3.4zm15.8 1.1c2.1-9.6-.8-15.8-6.7-17.1-4.7-1-8.3 1.1-11.7 4l-1.4-1.5c4.8-4.6 9.6-5.8 15.9-4.4 8.6 1.9 13.5 11.2 11.4 20.4-2 9.1-10.3 15.6-18.9 13.7-8.5-1.9-13.2-9.4-10.9-20.1l22.3 5zm-55.8.9-2.3-.8 3.5-9.7 2.3.8c.1 6.7 2.3 9.9 7.2 11.6 3.6 1.3 6.6.6 7.7-2.3 1-2.8-.8-5-5.4-8.1-2.2-1.5-4.1-2.7-5.6-3.9-4.5-3.7-5.2-7.1-3.8-10.7 2.5-6.8 9.3-8.8 16.3-6.2 6 2.2 7 5.4 9 6.1 1.2.4 2-.8 2.6-1.5l1.9.7-4.2 11.4-1.9-.7c.7-6.1-2.2-11.6-8.1-13.8-3.5-1.3-7.9-.4-9.1 2.9-1.2 3.3.7 5.7 4.9 8.7 3.3 2.3 5.8 3.9 7.5 5.7 2.7 2.8 3.4 5.6 2.2 8.8-2 5.5-8.2 7.4-14.6 5.1-5.4-2-6.8-5-7.8-5.4-1.2-.3-1.9.6-2.3 1.3m-44.3-42.9c-5.2 8.3-5.6 14.5-.8 17.5 2.6 1.7 6.2 1.2 9.9-1.9 2.1-1.8 3.4-3.2 6.3-7.8 1.5-2.5 2.7-4.5 3.3-6.2 1.8-5.1-.4-7.6-3.1-9.3-4.9-3.1-10.5-.4-15.6 7.7M217 602l-.1-.1c-3.9 2.1-7.5 2.3-10.8.2-7.6-4.8-8.9-14.5-3.8-22.5 5-7.9 15.9-11.1 23.6-6.2 4.8 3 5.4 7.9 6.7 8.8 1.2.8 2.5-.3 3.7-1l2.2 1c-2.7 2.8-3.9 4.4-4.7 5.7l-19 30.1c-1 1.6-.8 2.9 2.6 5.1l-1.3 2-10-5.8L217 602zm-21.5-43.1c1.1-1.3 1.2-2.7-2-5.4l-.3-.3 1.5-1.9 13.5 10.9-1.5 1.9-.3-.3c-3.2-2.6-4.6-2.2-5.6-.9l-14.3 17.7c-1.1 1.4-1.1 2.7 2.4 5.6l-1.5 1.9-9.6-7.2 17.7-22zm-18.7 29.8c1.7 1.4 2 3.8.6 5.6-1.4 1.8-3.9 2-5.6.6-1.7-1.4-2-3.8-.6-5.6 1.4-1.8 3.9-2 5.6-.6m-15.5-46.9c-7 6.9-8.8 12.9-4.8 16.9 2.2 2.2 5.7 2.6 10.1.4 2.5-1.2 4.1-2.3 7.9-6.1 2.1-2 3.7-3.7 4.6-5.3 2.9-4.6 1.4-7.5-.9-9.7-4-4.2-10.1-2.9-16.9 3.8m3.7 20.5-.1-.1c-4.3 1.2-7.8.5-10.6-2.3-6.3-6.4-5.3-16.1 1.5-22.8 6.7-6.6 18-7.2 24.4-.6 4 4.1 3.4 8.9 4.5 10.1 1 1 2.5.3 3.8-.2l1.9 1.5c-3.2 2.1-4.8 3.4-5.8 4.4l-25.5 25c-1.4 1.3-1.4 2.7 1.4 5.6l-1.7 1.7-8.4-8 14.6-14.3zm-11-46.8c1.4-1.1 1.7-2.4-1.1-6l1.9-1.5 10.6 13.7-1.9 1.5c-2.8-3.6-4.1-3.6-5.5-2.5l-29.8 23.1c-1.4 1.1-1.7 2.4 1.1 6l-1.9 1.5-7.7-9.2 34.3-26.6zm-11.7-16.8c1.4-.9 2-2.2-.3-5.7l-.2-.4 2-1.3 9.5 14.5-2 1.3-.2-.4c-2.3-3.5-3.7-3.5-5.1-2.6l-19 12.5c-1.5 1-1.9 2.3.6 6l-2 1.3-6.9-9.8 23.6-15.4zm-27 22.6c1.2 1.8.8 4.2-1.1 5.5-1.9 1.2-4.3.7-5.5-1.1-1.2-1.8-.8-4.2 1.1-5.5 1.9-1.2 4.3-.7 5.5 1.1m-.6-49.3c-9 4.5-12.2 9.2-9.1 15.3 2.8 5.6 8.1 6.5 17.7 1.7 9.2-4.6 12.2-9.3 9.2-15.3-3.1-5.9-8.6-6.3-17.8-1.7m19.9.7c4.4 8.7 1 18.7-7.9 23.1-8.8 4.4-18.9 1.2-23.3-7.5-4.4-8.8-.9-18.8 7.9-23.1s18.9-1.4 23.3 7.5m-54.7-13.9 10.4-3.7-3.3-9.3 2.3-.8 3.3 9.3 24.2-8.5c2.6-.9 2.8-2.8 2.1-4.9-.8-2.3-3.1-4-7.6-2.7-.9.2-1.8.6-2.7.9l-.7-1.9 1.1-.4c7-2.5 10.7-.9 12.7 4.9 2.2 6.1 0 9.3-5.1 11.1l-21.8 7.7 1.7 4.9-2.3.8c-2.6-5.7-4.3-6.3-13.5-5.1l-.8-2.3zm8.3-32v-.1c-4.6-.9-8-3.6-9.1-8.5-1.5-6.7 2.5-11.3 10-13l15.8-3.4c1.9-.4 2.6-1.4 1.8-5.5l2.3-.5 2.5 11.4-23.3 5.1c-4.3.9-6.8 3.5-6 7.1 1.1 5 8.2 7 13.3 5.9l13.9-3c1.9-.4 2.6-1.5 1.7-6l2.3-.5 3.7 16.8-2.3.5c-.9-4.1-2-4.7-3.9-4.3l-36.7 8c-1.9.4-2.6 1.4-1.8 5.5l-2.3.5-2.9-11.3 21-4.7zm-.1-56c-8.1.6-12.2 3.5-11.9 8.8.3 4.8 4.4 7.4 12.9 6.8l-1-15.6zm3.5 15.5c9.9-.7 14.9-5.3 14.5-11.3-.3-4.8-3.4-7.6-7.2-10.1l1-1.8c5.7 3.3 8.3 7.6 8.7 14 .6 8.8-7 16.1-16.3 16.8-9.3.6-17.9-5.5-18.5-14.3-.6-8.7 5.3-15.4 16.2-16.1l1.6 22.8zm-21.5-12.4.2 2.8-6.1 11.2c-.9 1.8-1.9 2.4-2.8 2.5-1.3.1-2.4-.5-2.5-2.2-.1-.9 0-1.6 1.4-3.1l9.8-11.2zm21.4-39.8c-10.5-.7-15 1.6-15.3 6.9-.4 5.3 3.8 8.1 14.3 8.8 10.9.7 15.4-1.6 15.8-6.8.3-4.9-3.4-8.1-14.8-8.9m-16-5.7.1-2 40.6 2.8c1.9.1 3-.7 3.3-5.3l2.4.2-1.2 17.5-2.4-.2c.3-4.5-.6-5.5-2.5-5.6l-11.2-.8v.2c3.2 2.5 4.2 4.5 3.9 8.7-.6 9-8 14.3-18.5 13.6-9.5-.6-16.8-9.3-16.3-16.8.4-5.4 4.5-7.5 4.6-9 .2-1.1-1.6-2.7-2.8-3.3m3.6-22.6 24.1 5.2c3.5.8 6.7 0 7.5-3.8 1-4.8-2.2-8.8-7.9-10.9L87.3 293c-1.8-.4-3 .2-3.9 4.3l-.1.4-2.3-.5 2.6-11.9 27.3 5.9c1.9.4 3-.3 3.9-4.2l2.3.5-1.9 10.9-6.5-1.4v.1c3.8 3.5 5.6 7.3 4.6 12.1-1.4 6.4-6.8 9.3-14.5 7.6l-15.9-3.5c-1.9-.4-3 .2-3.9 4.3l-2.3-.5 2.4-11.3zm29.3-49.7c-7.6-2.9-12.5-2-14.4 3.1-1.7 4.5.9 8.6 8.9 11.6l5.5-14.7zm-3.3 15.5c9.2 3.5 15.8 1.4 17.9-4.2 1.7-4.5.1-8.4-2.3-12.2l1.7-1.2c3.8 5.4 4.4 10.3 2.1 16.4-3.1 8.3-13.1 11.7-21.8 8.4-8.7-3.3-13.9-12.4-10.8-20.7 3.1-8.2 11.2-11.8 21.4-7.9l-8.2 21.4zm7.2-55.4 1.1-2.1 9.1 4.9-1.1 2.1c-6.7-.9-10.1.9-12.6 5.4-1.8 3.4-1.5 6.5 1.2 7.9 2.6 1.4 5.1-.1 8.8-4.2 1.8-1.9 3.3-3.7 4.7-4.9 4.4-3.9 7.7-4.1 11.2-2.2 6.3 3.4 7.4 10.5 3.8 17-3 5.6-6.4 6.2-7.4 8-.6 1.1.5 2.1 1.1 2.8l-.9 1.7-10.7-5.8.9-1.7c6 1.5 11.8-.5 14.8-6.1 1.8-3.3 1.5-7.8-1.6-9.4-3.1-1.7-5.8-.1-9.3 3.6-2.8 2.9-4.7 5.2-6.7 6.6-3.2 2.3-6 2.5-9.1.9-5.2-2.8-6.2-9.2-2.9-15.2 2.7-5.1 6-6 6.5-6.9.4-1.1-.3-1.9-.9-2.4m19.8-53.5 1.8 1.6c-3.4 3.9-3.7 5.8-1.2 8l21.5 19.1c5.2 4.6 10.9 4.9 16.1-1.1 6.5-7.3 5.3-14.3-.9-19.8l-18.3-16.2c-4.1-3.7-6.7-2-9.8 1.4l-1.8-1.6 11.3-12.7 1.8 1.6c-3.1 3.4-3.5 6.1.2 9.4l18.7 16.6c6.9 6.1 7.1 15.4-.1 23.5-7.9 8.9-15.8 9.8-22.4 4l-21-18.8c-2.5-2.3-4.5-1.7-7.8 2.1l-1.8-1.6 13.7-15.5zm66.8-19c-6-7.6-11.7-9.7-16-6.2-4 3.2-3.8 9 2.5 16.9 6.5 8.2 11.8 10.1 15.8 6.9 4.4-3.4 3.6-10.2-2.3-17.6m12.4 5.4c1.2 1.5 2.5 1.7 5.6-.7l1.2 1.6-8.4 7.2-4.1-5.2-.1.1c1.3 4.7 0 9-4.1 12.3-5.8 4.6-16.1 2.2-21.8-5-6-7.5-5.3-18 1.5-23.4 3.1-2.5 6.1-2.9 10.2-1.2l.1-.1-8.9-11.2c-1.1-1.3-2.4-1.7-5.6.9l-.3.3-1.5-1.9 9.2-7.8 27 34.1zm19.9-28.9c-4.1-7-8.5-9.5-13.1-6.8-4.2 2.4-4.7 7.2-.5 14.6l13.6-7.8zm-12.3 9.9c4.9 8.6 11.3 11.1 16.5 8.1 4.2-2.4 5.3-6.4 5.9-10.9l2 .1c-.4 6.6-3.1 10.8-8.7 14-7.6 4.4-17.5.8-22.2-7.3-4.7-8.1-2.9-18.5 4.7-22.9 7.6-4.4 16.1-2 21.6 7.4l-19.8 11.5zm29.9-50.5 22.9 30.3h.1l-.9-38 14.7-5.2.8 2.3c-5 1.8-5.4 3.6-4.4 6.3l11.6 32.9c1.1 3.2 2.9 3.7 8 1.9l.8 2.3-19.3 6.8-.8-2.3c4.6-1.6 5.6-3.2 4.5-6.3l-13-36.8h-.1l1.1 48.3-2.3.8-28.8-38.2h-.1l11.8 33.4c2.1 5.9 4.3 6.8 9.3 5l.8 2.3-16 5.6-.8-2.3c5-1.8 6-3.9 3.9-9.7L242 89.2c-1.1-3.2-2.9-3.7-8-1.9l-.8-2.3 15.6-5.4zm71.675 11.411 17.388-1.968.529 4.67-17.388 1.968zM363.2 439.1h-6.3V233h6.3v206.1zm14-4.4h-6.3V233.1h6.3v201.6zm-28.2 0h-6.3V233h6.3v201.7z" class="st0"/><path d="M360.1 501c44.7 0 81.3-38.5 81.3-86.7V224.5h-51.7v198.6c0 20.9-15.1 30.7-29.7 30.7s-29.7-9.7-29.7-30.7V224.5h-51.7v189.8c.2 48.2 36.8 86.7 81.5 86.7" class="st0"/></svg>