<svg xmlns="http://www.w3.org/2000/svg" fill="none" viewBox="0 0 302 302"><path fill="#4998D3" d="M152.384 187.738h-2.941V92.06h2.941v95.678Zm6.504-2.07h-2.941V92.085h2.941v93.583Zm-13.103 0h-2.942V92.06h2.942v93.608Z"/><path fill="#0057AC" d="M150.952 216.447c20.768 0 37.736-17.854 37.736-40.23l.017-86.548v-1.583H164.73v92.211c0 9.72-6.988 14.238-13.769 14.238s-13.769-4.518-13.769-14.238V88.086h-23.976v1.583l.009 86.551c-.003 22.376 16.959 40.227 37.727 40.227Z"/><path fill="#fff" d="m151.377 33.497.073-1.071c.825.014 1.401-.137 1.728-.453.327-.313.526-.77.599-1.362.072-.593.134-1.27.187-2.027l.954-14.03c.03-.433.069-.85.117-1.247.048-.4.095-.76.14-1.085L154 12.21c-.391-.006-.783-.009-1.174-.014l.098-1.43 7.307.498-.073 1.071c-.803-.033-1.373.115-1.712.44-.338.324-.542.78-.615 1.361a37.895 37.895 0 0 0-.187 2.042l-.948 13.93a54.795 54.795 0 0 1-.117 1.494 9.1 9.1 0 0 1-.151 1.035l6.079.315c1.364.07 2.427-.29 3.19-1.087.761-.797 1.205-2.148 1.337-4.052l1.104.075-.651 6.709-16.11-1.1ZM176.169 37c-1.462-.316-2.709-.945-3.738-1.89s-1.745-2.12-2.153-3.529c-.406-1.41-.423-2.972-.054-4.69a9.2 9.2 0 0 1 1.902-3.95 8.367 8.367 0 0 1 3.493-2.525c1.381-.535 2.866-.63 4.457-.286a7.327 7.327 0 0 1 2.405.968 5.862 5.862 0 0 1 1.77 1.748c.467.713.777 1.543.925 2.497.148.953.095 2.024-.162 3.213l-11.241-2.23c-.35 1.612-.478 3.066-.392 4.36.087 1.295.451 2.363 1.091 3.2.64.838 1.574 1.39 2.808 1.655.657.142 1.356.17 2.097.086a8.072 8.072 0 0 0 2.131-.54c.679-.273 1.252-.617 1.719-1.026l.627.803c-.767.766-1.608 1.328-2.528 1.686-.92.355-1.832.56-2.729.61-.898.047-1.706-.006-2.428-.16Zm-2.007-11.99 8.112 1.753a7.495 7.495 0 0 0 .142-2.284c-.07-.758-.31-1.421-.718-1.989-.411-.564-1.029-.936-1.857-1.115-1.23-.266-2.332-.12-3.308.433-.973.557-1.765 1.625-2.371 3.202Zm16.612 16.227c-1.023-.366-1.882-.828-2.581-1.387-.699-.56-1.241-1.105-1.627-1.636l-.26 1.116-1.286-.459 1.7-5.338.95.338a4.79 4.79 0 0 0-.1 2.506 4.84 4.84 0 0 0 1.101 2.14 4.735 4.735 0 0 0 1.98 1.327 5.12 5.12 0 0 0 1.656.297 3.377 3.377 0 0 0 1.571-.338c.476-.233.811-.627 1.01-1.178.204-.57.204-1.107.002-1.605-.201-.498-.528-.99-.978-1.474-.45-.483-.948-.959-1.493-1.431a72.877 72.877 0 0 1-1.566-1.424 9.996 9.996 0 0 1-1.362-1.557 4.513 4.513 0 0 1-.761-1.793c-.117-.64-.036-1.347.241-2.125.153-.428.402-.87.749-1.322a4.535 4.535 0 0 1 1.348-1.16c.551-.322 1.219-.51 1.999-.566.78-.056 1.692.104 2.735.476.551.198 1.133.509 1.739.934.61.425 1.138 1.006 1.589 1.742l.355-1.186 1.286.459-1.915 5.363-.982-.35a6.45 6.45 0 0 0 .249-2.245 4.469 4.469 0 0 0-.666-2.103c-.394-.637-1.031-1.113-1.909-1.426-.94-.335-1.759-.363-2.458-.084-.699.28-1.158.727-1.379 1.34-.226.634-.215 1.23.034 1.792s.634 1.108 1.16 1.642c.523.534 1.093 1.07 1.706 1.61.66.604 1.289 1.233 1.885 1.882.595.652 1.026 1.35 1.289 2.103.262.75.229 1.585-.101 2.505-.366 1.024-.928 1.776-1.689 2.265a4.854 4.854 0 0 1-2.522.775 7.252 7.252 0 0 1-2.699-.425Zm25.477-11.58c.179-.296.356-.576.529-.841.173-.263.389-.57.651-.917-.343-.185-.685-.364-1.02-.543-.336-.179-.677-.358-1.021-.542l.708-1.17c.816.496 1.473.843 1.974 1.044.5.201.897.316 1.199.347.3.027.554.02.761-.034l.808.49-5.028 8.293a6.41 6.41 0 0 1 2.584-.09c.889.146 1.759.476 2.615.993 1.188.719 2.086 1.659 2.693 2.81.606 1.156.869 2.43.782 3.826-.086 1.395-.564 2.816-1.442 4.264-.957 1.577-2.128 2.738-3.518 3.482-1.39.743-2.824 1.099-4.301 1.065a8.14 8.14 0 0 1-4.108-1.197c-.632-.383-1.252-.917-1.862-1.605-.61-.688-1.012-1.546-1.2-2.572l-1.426.847-.973-.59 10.595-17.36Zm-5.5 14.477c-.596.984-.898 1.834-.9 2.556-.006.721.181 1.334.559 1.843.377.508.844.93 1.401 1.266.892.54 1.812.755 2.765.649.954-.106 1.88-.492 2.774-1.155.895-.663 1.698-1.577 2.408-2.746.763-1.261 1.278-2.466 1.544-3.613.262-1.146.246-2.186-.054-3.115-.299-.928-.931-1.686-1.895-2.27-.613-.372-1.309-.596-2.087-.674a5.595 5.595 0 0 0-2.245.218l-4.27 7.04Zm9.773 11.199c.534.408 1.007.562 1.418.453.411-.109.816-.386 1.214-.833a28.63 28.63 0 0 0 1.311-1.6l4.522-5.883c.212-.274.422-.531.632-.766.209-.235.461-.512.76-.83-.324-.222-.643-.44-.956-.652-.313-.216-.632-.43-.957-.652l.834-1.085c.758.582 1.367.998 1.834 1.245.467.248.845.402 1.141.467.294.061.548.078.761.05l.749.576-8.014 10.425c-.266.343-.503.646-.716.906-.215.26-.459.517-.735.768.288.196.57.39.841.588.274.196.554.391.842.587l-.814 1.057-5.265-4.046.598-.775Zm13.962-13.039c-.361-.277-.568-.668-.618-1.172-.05-.503.09-.97.42-1.4.33-.431.752-.689 1.269-.77.515-.084.954.014 1.314.291.397.305.61.71.646 1.217.034.506-.112.975-.442 1.403-.329.431-.749.683-1.258.758-.509.073-.951-.036-1.331-.327Zm6.843 4.692c.24-.249.472-.487.699-.705.226-.218.503-.47.836-.752-.297-.254-.59-.506-.878-.755-.288-.249-.582-.498-.878-.755l.948-.987c.688.663 1.253 1.144 1.697 1.451.442.305.808.506 1.093.602.286.094.537.14.753.134l.679.654-6.719 6.994a6.426 6.426 0 0 1 2.541.478c.837.335 1.614.85 2.333 1.54 1.001.962 1.672 2.073 2.01 3.334.339 1.258.316 2.561-.073 3.903-.388 1.343-1.168 2.626-2.34 3.845-1.278 1.331-2.676 2.207-4.194 2.629-1.519.422-2.995.456-4.43.1a8.127 8.127 0 0 1-3.747-2.066c-.531-.512-1.021-1.169-1.468-1.974-.445-.806-.649-1.728-.607-2.774l-1.577.514-.822-.788 14.144-14.622Zm-8.535 12.924c-.797.83-1.277 1.594-1.44 2.296-.162.702-.114 1.342.143 1.918a4.875 4.875 0 0 0 1.091 1.544c.752.721 1.602 1.135 2.555 1.239.954.103 1.941-.07 2.959-.52s2.002-1.17 2.95-2.153c1.023-1.063 1.787-2.126 2.296-3.188.509-1.063.718-2.078.629-3.051-.09-.973-.54-1.851-1.354-2.631a4.934 4.934 0 0 0-1.887-1.113 5.587 5.587 0 0 0-2.237-.277l-5.705 5.936Zm6.888 12.83c.43.514.858.766 1.283.75.425-.017.881-.2 1.365-.549.486-.35 1.029-.774 1.627-1.275l11.812-9.876c.266-.221.523-.431.772-.624s.551-.414.914-.657l-.791-.845c-.26-.276-.523-.559-.792-.844l1.049-.878c.612.733 1.121 1.275 1.53 1.627.408.353.746.59 1.023.716.274.126.517.196.733.216l.606.724L244.628 74.8c-.332.28-.634.517-.906.716-.271.198-.57.391-.894.579.237.251.469.503.696.754.224.252.456.504.696.755l-1.023.856-4.259-5.095.744-.626Zm5.358 6.515c.394.546.805.825 1.23.837.425.014.892-.138 1.401-.454a28.976 28.976 0 0 0 1.711-1.16l6.009-4.354c.28-.204.557-.388.823-.556.268-.168.59-.361.967-.58-.246-.301-.489-.603-.73-.897-.24-.293-.484-.592-.73-.897l1.108-.803c.559.772 1.029 1.345 1.403 1.717.375.372.697.626.96.772.265.142.503.232.715.266l.554.763-10.648 7.715c-.353.254-.666.475-.945.665-.28.188-.588.364-.923.529.221.268.433.537.64.802.207.266.42.534.641.803l-1.08.783-3.895-5.377.789-.574Zm17.093-8.528c-.268-.37-.355-.803-.257-1.3.095-.498.361-.907.803-1.225a1.939 1.939 0 0 1 1.434-.378c.517.067.909.285 1.177.654.294.406.383.853.274 1.348-.109.495-.386.904-.825 1.22-.439.318-.914.441-1.423.366-.509-.067-.903-.297-1.183-.685Zm-9.443 22.865c-.749-1.32-1.121-2.693-1.118-4.116a7.834 7.834 0 0 1 1.096-4.007c.727-1.247 1.787-2.268 3.185-3.06 1.49-.844 3.009-1.294 4.55-1.345 1.543-.05 2.964.266 4.261.951 1.3.685 2.329 1.698 3.09 3.037.749 1.32 1.113 2.698 1.091 4.133a8.286 8.286 0 0 1-1.102 4.03c-.713 1.252-1.756 2.267-3.135 3.05-1.454.825-2.958 1.261-4.516 1.309-1.557.047-2.989-.269-4.298-.948-1.308-.68-2.343-1.695-3.104-3.034Zm1.261-.417c.568 1.001 1.301 1.633 2.198 1.896.898.263 1.874.266 2.922.008a12.038 12.038 0 0 0 3.076-1.238 15.065 15.065 0 0 0 2.369-1.661 9.886 9.886 0 0 0 1.812-2.02c.478-.718.76-1.462.853-2.222.092-.76-.079-1.521-.506-2.276-.557-.982-1.295-1.622-2.215-1.924-.92-.302-1.916-.341-2.987-.12a10.8 10.8 0 0 0-3.165 1.216 12.98 12.98 0 0 0-3.053 2.368c-.867.915-1.443 1.89-1.729 2.925-.282 1.03-.142 2.047.425 3.048Zm5.626 14.737a5.795 5.795 0 0 1-.385-1.496 3.433 3.433 0 0 1 .215-1.656c.212-.567.635-1.124 1.269-1.666.632-.543 1.552-1.06 2.758-1.558l8.755-3.532-.985-2.306 1.295-.532c.235.515.649.965 1.244 1.354.593.388 1.301.665 2.12.833a6.45 6.45 0 0 0 2.472.022l.422 1.024-4.214 1.733 2.081 5.056-1.175.484-2.142-5.033-8.391 3.383c-.904.372-1.639.764-2.209 1.175-.571.411-.946.852-1.127 1.325-.182.473-.16.982.064 1.521a3.055 3.055 0 0 0 1.132 1.382c.523.36 1.144.615 1.863.763l-.327 1.085c-.845-.171-1.547-.392-2.103-.666-.559-.274-1.015-.573-1.373-.894a4.418 4.418 0 0 1-.82-.965 6.53 6.53 0 0 1-.439-.836Zm6.284 14.568c.173.649.458 1.057.85 1.222.391.165.88.191 1.47.079a29.319 29.319 0 0 0 2.014-.473l4.401-1.183c1.801-.484 3.076-1.135 3.823-1.954.746-.82.942-1.843.59-3.073a5.828 5.828 0 0 0-1.178-2.128c-.556-.649-1.18-1.127-1.867-1.438l-9.273 2.492a19.17 19.17 0 0 1-1.124.268c-.33.067-.682.118-1.054.148.112.33.215.655.313.979.098.322.201.649.313.979l-1.289.347-1.723-6.412.943-.255c.173.649.458 1.057.85 1.222.391.165.884.196 1.474.092.59-.103 1.263-.254 2.016-.458l14.868-3.993c.335-.09.657-.171.961-.244.308-.069.674-.142 1.105-.212l-.363-1.099c-.121-.361-.241-.727-.364-1.099l1.32-.355c.249.923.481 1.627.705 2.119.22.49.43.851.626 1.08.196.229.386.397.573.503l.246.912-9.588 2.575a8.6 8.6 0 0 1 1.471 1.272c.458.495.864 1.027 1.219 1.594.355.568.609 1.144.769 1.731.489 1.823.271 3.292-.655 4.404-.925 1.113-2.589 2.005-4.994 2.674l-5.838 1.602c-.42.112-.792.207-1.122.285a7.632 7.632 0 0 1-1.051.165c.112.33.215.655.313.979.098.321.201.649.313.979l-1.289.346-1.722-6.412.948-.26Zm1.281 15.741c-.171-1.488.025-2.869.587-4.147.562-1.278 1.445-2.335 2.651-3.171 1.202-.839 2.679-1.356 4.423-1.558a9.16 9.16 0 0 1 4.354.532 8.368 8.368 0 0 1 3.515 2.497c.951 1.135 1.519 2.511 1.703 4.13a7.304 7.304 0 0 1-.145 2.589 5.89 5.89 0 0 1-1.085 2.237c-.523.671-1.214 1.231-2.067 1.678-.855.448-1.887.741-3.092.881l-1.502-11.361c-1.639.187-3.056.531-4.256 1.029-1.2.497-2.092 1.185-2.679 2.061-.587.875-.808 1.937-.665 3.187.075.669.274 1.34.593 2.014a8.016 8.016 0 0 0 1.194 1.845c.478.557.987.99 1.526 1.301l-.556.85c-.973-.479-1.776-1.097-2.408-1.854a8.978 8.978 0 0 1-1.454-2.388c-.344-.837-.554-1.619-.637-2.352Zm10.707-5.752.948 8.246a7.497 7.497 0 0 0 2.209-.598c.696-.311 1.247-.75 1.649-1.32.403-.571.557-1.275.462-2.117-.143-1.25-.635-2.248-1.474-2.992-.839-.747-2.103-1.152-3.794-1.219Zm8.741 5.056 3.011-4.016c.342-.453.672-.727.988-.816.316-.093.59-.09.819.002.229.093.38.179.456.26.05.059.137.193.257.398.123.204.162.461.123.771-.042.311-.291.646-.752 1.004l-4.055 3.219-.847-.822Zm-26.621 19.11.976.027c-.02.672.137 1.144.464 1.413.33.268.791.433 1.387.495.596.058 1.284.1 2.064.123l4.879.137a5.756 5.756 0 0 1-1.454-2.126c-.335-.833-.486-1.772-.458-2.813.039-1.345.413-2.561 1.129-3.646s1.703-1.938 2.97-2.553c1.267-.615 2.732-.9 4.404-.853 1.823.05 3.395.47 4.717 1.258 1.323.786 2.341 1.826 3.054 3.115.713 1.29 1.046 2.705 1.004 4.245-.025.912-.168 1.737-.428 2.481-.26.741-.397 1.384-.414 1.926-.005.238.025.462.095.671.07.207.202.403.392.582l-.025.912-21.442-.574a36.91 36.91 0 0 1-1.155-.047 7.365 7.365 0 0 1-1.055-.143c.012.347.02.691.02 1.026.003.336.008.68.02 1.027l-1.334-.04.19-6.643Zm9.421-1.527c-.02.716.156 1.409.525 2.083a5.315 5.315 0 0 0 1.452 1.686l8.523.241c.867.025 1.591-.076 2.172-.297a2.546 2.546 0 0 0 1.334-1.135c.308-.534.476-1.267.501-2.201.031-1.04-.238-1.949-.803-2.726-.565-.778-1.367-1.384-2.407-1.826-1.041-.442-2.265-.682-3.675-.722-1.387-.039-2.653.126-3.791.495s-2.056.929-2.749 1.681c-.691.752-1.052 1.658-1.082 2.721Zm-3.163 15.751c.21-1.152.598-2.08 1.166-2.782s1.401-1.158 2.497-1.368c1.096-.209 2.52-.153 4.27.163l5.702 1.034c.341.062.682.129 1.02.202.339.072.685.173 1.038.304.044-.366.095-.738.151-1.113.056-.374.106-.746.151-1.112l1.314.237-.179.993c-.165.917-.196 1.602-.089 2.05.106.45.243.811.413 1.085l-.167.928-9.768-1.773c-1.837-.333-3.255-.322-4.259.039-1.001.358-1.607 1.169-1.814 2.433-.126.817-.014 1.636.332 2.458a6.345 6.345 0 0 0 1.39 2.089l8.23 1.493c.511.092.953.185 1.322.274.369.09.73.199 1.082.327.048-.388.101-.774.163-1.16.058-.386.111-.775.162-1.161l1.314.238-.179.993c-.168.917-.198 1.602-.092 2.049.106.451.243.811.416 1.085l-.167.929-12.1-2.229a42.43 42.43 0 0 1-1.434-.294 25.386 25.386 0 0 1-1.552-.38l-.146 1.166c-.047.389-.098.778-.145 1.166l-1.345-.243.83-4.58c.375.002.725.016 1.052.042.327.025.629.053.911.083-.542-.783-.967-1.686-1.278-2.712-.313-1.029-.383-2.013-.212-2.953Zm-4.723 18.506c.481-1.418 1.25-2.584 2.307-3.495 1.054-.915 2.307-1.491 3.753-1.734 1.445-.243 3-.081 4.664.487a9.174 9.174 0 0 1 3.708 2.343 8.384 8.384 0 0 1 2.108 3.758c.372 1.432.297 2.919-.226 4.46a7.297 7.297 0 0 1-1.239 2.279 5.855 5.855 0 0 1-1.938 1.558c-.76.383-1.622.593-2.586.632-.965.039-2.022-.137-3.171-.529l3.503-10.911c-1.56-.531-2.992-.828-4.286-.889-1.298-.062-2.397.176-3.303.716-.906.539-1.56 1.406-1.966 2.597a6.536 6.536 0 0 0-.327 2.073c0 .743.095 1.47.291 2.178.196.707.47 1.317.822 1.826l-.867.531c-.674-.847-1.135-1.75-1.384-2.704a8.817 8.817 0 0 1-.291-2.782c.045-.898.19-1.695.428-2.394Zm12.139-.618-2.671 7.858a7.557 7.557 0 0 0 2.251.405c.761.017 1.446-.145 2.056-.486.609-.344 1.051-.915 1.322-1.717.406-1.191.389-2.304-.053-3.336-.439-1.032-1.409-1.941-2.905-2.724Zm-18.028 14.644c.481-.973 1.037-1.775 1.675-2.405.637-.629 1.241-1.107 1.812-1.428l-1.079-.386.604-1.228 5.108 2.299-.447.906c-.817-.355-1.644-.484-2.478-.386a4.818 4.818 0 0 0-2.251.85 4.756 4.756 0 0 0-1.546 1.815 5.153 5.153 0 0 0-.486 1.61 3.39 3.39 0 0 0 .153 1.6c.176.498.529.878 1.055 1.138.545.268 1.076.33 1.593.187.518-.142 1.043-.411 1.575-.802a19.28 19.28 0 0 0 1.594-1.32 65.58 65.58 0 0 1 1.593-1.393c.54-.458 1.108-.85 1.703-1.174a4.454 4.454 0 0 1 1.868-.548c.649-.042 1.345.117 2.084.484.408.201.816.5 1.227.894.408.395.744.887.998 1.471.258.585.367 1.27.333 2.05-.033.78-.296 1.669-.786 2.662-.26.526-.634 1.065-1.126 1.622-.493.556-1.13 1.015-1.913 1.378l1.138.49-.604 1.224-5.109-2.516.462-.934a6.445 6.445 0 0 0 2.2.503c.766.039 1.488-.1 2.167-.419.677-.319 1.222-.898 1.636-1.734.442-.895.562-1.706.364-2.433-.199-.727-.59-1.233-1.175-1.521-.604-.296-1.199-.355-1.784-.17-.587.181-1.174.503-1.761.964a32.09 32.09 0 0 0-1.796 1.51 31.373 31.373 0 0 1-2.086 1.658c-.716.518-1.459.865-2.237 1.041-.774.173-1.602.044-2.477-.386-.973-.481-1.658-1.127-2.056-1.938a4.87 4.87 0 0 1-.481-2.595 7.36 7.36 0 0 1 .736-2.64Zm5.934 32.393c.45-.557.657-1.052.621-1.488a1.857 1.857 0 0 0-.465-1.107 6.539 6.539 0 0 0-.76-.741l-6.373-5.165a25.25 25.25 0 0 0-2.897-2.036c-.987-.593-1.98-.995-2.972-1.216a5.238 5.238 0 0 0-2.976.207c-.989.358-1.94 1.101-2.855 2.231-.984 1.214-1.498 2.436-1.549 3.669-.047 1.23.285 2.438 1.004 3.621.719 1.183 1.728 2.315 3.028 3.398l7.044 5.835c.339.275.655.546.954.814.299.269.568.515.805.738.23-.316.456-.629.677-.939.221-.311.447-.621.677-.94l1.113.904-3.812 4.703-.833-.677c.503-.654.713-1.208.635-1.664-.079-.455-.336-.878-.769-1.272a67.247 67.247 0 0 0-1.541-1.353l-5.825-4.807a17.499 17.499 0 0 1-2.849-2.897c-.803-1.043-1.379-2.142-1.723-3.303a7.22 7.22 0 0 1-.131-3.584c.257-1.231.897-2.478 1.924-3.742 1.093-1.348 2.189-2.338 3.288-2.97 1.099-.631 2.24-.922 3.426-.866 1.185.053 2.438.419 3.761 1.099 1.32.679 2.765 1.655 4.331 2.925l5.134 4.16c.439.356.945.789 1.524 1.298.579.509 1.021.903 1.326 1.18.229-.316.461-.632.699-.942.237-.311.469-.624.699-.943l1.087.881-4.591 5.663-.836-.674Zm-32.966 2.902c.999-.869 2.117-1.401 3.353-1.599 1.236-.199 2.494-.034 3.772.495 1.278.528 2.467 1.423 3.563 2.684 1.166 1.342 1.929 2.766 2.284 4.267.355 1.502.311 2.964-.134 4.385-.445 1.423-1.275 2.659-2.486 3.713-.54.47-1.138.867-1.79 1.189-.654.324-1.213.531-1.68.621l2.925 3.366c.226.263.442.515.64.761.199.243.422.545.677.9.28-.271.556-.542.83-.808.272-.266.548-.534.831-.808l.898 1.032c-.722.626-1.25 1.144-1.586 1.549-.336.408-.562.749-.682 1.026-.121.277-.188.52-.202.736l-.713.618-13.858-15.945a17.725 17.725 0 0 1-.66-.808 35.057 35.057 0 0 1-.696-.948c-.28.271-.557.543-.831.808-.271.266-.548.534-.83.808l-.898-1.031 3.512-3.051c.263.204.495.397.699.579.202.184.397.366.585.548a6.668 6.668 0 0 1 .637-2.69c.409-.887 1.024-1.684 1.84-2.397Zm.162 1.972c-.539.469-.95 1.099-1.227 1.887a6.094 6.094 0 0 0-.361 2.341c.187.181.378.383.571.604.193.22.402.461.629.724l6.124 7.097a5.46 5.46 0 0 0 1.856-.47 6.594 6.594 0 0 0 1.619-1.04c.82-.713 1.326-1.569 1.519-2.57.193-1.001.075-2.064-.353-3.185-.427-1.121-1.157-2.243-2.186-3.361-.901-.97-1.837-1.725-2.808-2.262-.97-.537-1.915-.8-2.841-.789-.925.014-1.77.355-2.542 1.024Zm-15.376 9.485c1.261-.806 2.589-1.236 3.984-1.292 1.396-.053 2.732.277 4.013.99 1.281.713 2.394 1.812 3.339 3.294a9.186 9.186 0 0 1 1.432 4.144 8.372 8.372 0 0 1-.702 4.253c-.604 1.351-1.591 2.466-2.964 3.342a7.388 7.388 0 0 1-2.391 1.006 5.883 5.883 0 0 1-2.489.006c-.833-.176-1.638-.551-2.416-1.122-.777-.573-1.493-1.37-2.147-2.393l9.549-6.334c-.889-1.39-1.818-2.514-2.794-3.372-.973-.859-1.982-1.359-3.028-1.505-1.043-.142-2.097.124-3.157.8a6.403 6.403 0 0 0-1.549 1.415 8.048 8.048 0 0 0-1.133 1.882c-.29.674-.455 1.32-.497 1.941l-1.01-.129c.003-1.085.207-2.075.61-2.978.402-.9.906-1.686 1.507-2.354.61-.663 1.222-1.197 1.843-1.594Zm9.868 7.099-6.994 4.469c.42.657.923 1.233 1.508 1.722.584.49 1.219.792 1.909.904.691.111 1.393-.059 2.106-.515 1.06-.677 1.742-1.557 2.041-2.637.3-1.082.109-2.396-.57-3.943Zm-28.274 2.595a643.81 643.81 0 0 0 5.093 4.964c1.705 1.644 3.4 3.325 5.083 5.036.54.534 1.074 1.074 1.608 1.619a75.152 75.152 0 0 1 1.574 1.669c.518.565 1.038 1.13 1.566 1.689a14.46 14.46 0 0 1-.249-.671c-.078-.226-.162-.45-.248-.671-.269-.732-.59-1.616-.965-2.645-.375-1.032-.772-2.134-1.194-3.308-.42-1.177-.85-2.346-1.292-3.515-.442-1.169-.856-2.271-1.244-3.305a55.233 55.233 0 0 0-.484-1.348 17.275 17.275 0 0 1-.417-1.27l-1.11.512-1.11.512-.529-1.331 5.778-2.296.397.998c-.618.269-1.021.588-1.214.957-.193.369-.243.78-.157 1.236.087.455.219.928.389 1.42l4.908 14.021c.139.411.285.819.436 1.227.151.409.291.806.422 1.197.355-.165.71-.324 1.071-.478.358-.154.716-.313 1.071-.478l.517 1.3-4.628 1.84-9.977-9.941c-.503-.5-1.001-1.004-1.493-1.507a76.274 76.274 0 0 0-1.507-1.502 91.774 91.774 0 0 1-1.535-1.526l-.062.025a532.59 532.59 0 0 0-.011 2.262c-.003.875.006 1.627.02 2.251a303.44 303.44 0 0 1-.118 7.771 235.523 235.523 0 0 0-.081 8.036l-4.477 1.779-.397-.998c.512-.182.887-.442 1.127-.781.238-.341.333-.78.28-1.319-.051-.54-.26-1.217-.63-2.028l-6.258-13.45a8.73 8.73 0 0 1-.455-.973c-.129-.322-.247-.615-.35-.878-.355.165-.716.324-1.085.484-.369.159-.73.319-1.085.483l-.528-1.331 6.775-2.692.397.998c-.618.268-1.021.604-1.211 1.007-.19.402-.215.88-.078 1.431s.38 1.203.724 1.955l4.572 9.739.445.946.444.945c.149.313.297.629.445.945l.017-.531a6.998 6.998 0 0 0-.009-.593l.121-19.524.908-.364Zm-22.006 16.39.29 2.259-11.459 1.476-.274-2.13 11.443-1.605Zm-23.229-7.254-.079 1.071c-.825-.017-1.401.131-1.731.444-.327.314-.528.767-.606 1.359a38.161 38.161 0 0 0-.199 2.025l-1.032 14.023c-.031.434-.073.848-.126 1.248-.05.399-.1.76-.145 1.082.391.005.783.014 1.174.022.392.006.783.014 1.175.022l-.106 1.429-7.304-.537.078-1.07c.802.036 1.373-.107 1.711-.428.339-.325.548-.775.621-1.359.073-.585.143-1.261.199-2.042l1.026-13.925a58.76 58.76 0 0 1 .126-1.493c.042-.411.095-.755.156-1.032l-6.076-.35c-1.365-.078-2.43.277-3.196 1.071-.766.792-1.219 2.139-1.359 4.044l-1.105-.081.691-6.706 16.107 1.183Zm-24.767-3.641c1.462.324 2.704.962 3.727 1.91 1.024.948 1.734 2.128 2.131 3.54.4 1.409.408 2.975.025 4.689a9.166 9.166 0 0 1-1.924 3.94 8.358 8.358 0 0 1-3.506 2.506c-1.384.525-2.869.612-4.46.26a7.382 7.382 0 0 1-2.399-.982 5.877 5.877 0 0 1-1.762-1.756c-.464-.713-.769-1.549-.912-2.502-.142-.954-.084-2.025.179-3.211l11.227 2.291c.358-1.611.495-3.062.417-4.36-.078-1.295-.436-2.363-1.074-3.204-.634-.842-1.568-1.399-2.796-1.67a6.42 6.42 0 0 0-2.094-.098 8.265 8.265 0 0 0-2.134.526c-.682.271-1.258.61-1.725 1.018l-.621-.805c.769-.764 1.616-1.32 2.539-1.673a8.859 8.859 0 0 1 2.732-.592c.898-.045 1.708.014 2.43.173Zm1.938 11.999-8.104-1.798a7.494 7.494 0 0 0-.157 2.282c.065.757.302 1.423.708 1.991.408.567 1.023.945 1.851 1.126 1.228.275 2.332.135 3.311-.416.979-.548 1.776-1.611 2.391-3.185Zm-16.526-16.322c1.02.372 1.876.839 2.572 1.404.697.565 1.236 1.113 1.619 1.644l.266-1.116 1.283.467-1.728 5.327-.948-.344c.263-.85.302-1.686.115-2.505a4.787 4.787 0 0 0-1.091-2.145 4.733 4.733 0 0 0-1.971-1.339 5.097 5.097 0 0 0-1.655-.308 3.438 3.438 0 0 0-1.575.327c-.475.229-.813.621-1.015 1.172-.207.57-.212 1.107-.011 1.605.199.5.523.993.97 1.479.448.487.943.965 1.485 1.44.523.467 1.043.945 1.558 1.432.514.487.967 1.009 1.353 1.566.386.556.638 1.155.75 1.795.114.64.028 1.351-.252 2.125a4.938 4.938 0 0 1-.758 1.317c-.349.451-.8.836-1.353 1.152-.554.319-1.222.504-2.002.554-.781.05-1.692-.112-2.732-.489-.551-.202-1.13-.515-1.737-.943-.607-.427-1.132-1.012-1.58-1.753l-.361 1.186-1.283-.467 1.946-5.352.979.355a6.448 6.448 0 0 0-.26 2.242c.045.767.263 1.468.654 2.109.392.637 1.026 1.118 1.902 1.437.936.341 1.759.375 2.458.098.701-.277 1.163-.721 1.384-1.331.229-.632.221-1.23-.023-1.792-.246-.563-.629-1.113-1.149-1.648a32.179 32.179 0 0 0-1.697-1.621 30.125 30.125 0 0 1-1.874-1.893c-.593-.655-1.018-1.357-1.278-2.109-.257-.752-.221-1.585.115-2.505.372-1.021.94-1.77 1.703-2.257a4.873 4.873 0 0 1 2.528-.761 7.309 7.309 0 0 1 2.693.445Zm-25.539 11.44c-.182.296-.358.576-.534.839-.174.262-.392.567-.657.914.344.184.685.369 1.017.548.336.179.674.364 1.018.548l-.715 1.166c-.814-.5-1.469-.85-1.97-1.054-.497-.204-.897-.322-1.196-.352a2.282 2.282 0 0 0-.763.028l-.806-.495 5.073-8.266a6.489 6.489 0 0 1-2.587.075c-.886-.151-1.756-.486-2.609-1.009-1.183-.727-2.075-1.67-2.676-2.827-.6-1.158-.855-2.436-.763-3.828.092-1.396.582-2.813 1.465-4.256.965-1.572 2.145-2.727 3.537-3.462 1.393-.736 2.83-1.085 4.307-1.043a8.155 8.155 0 0 1 4.102 1.219c.63.386 1.247.926 1.854 1.616.607.691 1 1.552 1.186 2.581l1.431-.839.97.596-10.684 17.301Zm5.581-14.446c.601-.982.906-1.829.917-2.55.009-.719-.173-1.334-.548-1.846a4.874 4.874 0 0 0-1.395-1.275c-.886-.545-1.81-.766-2.763-.663-.953.104-1.879.481-2.78 1.138-.9.658-1.708 1.569-2.42 2.735-.773 1.259-1.293 2.458-1.564 3.605-.268 1.146-.257 2.184.036 3.115.294.931.923 1.691 1.885 2.282.61.374 1.303.604 2.08.685a5.594 5.594 0 0 0 2.246-.207l4.306-7.019Zm-23.755 1.703c.361.279.566.671.613 1.177.048.503-.095.97-.428 1.398a1.95 1.95 0 0 1-1.272.764c-.515.081-.954-.02-1.314-.3a1.612 1.612 0 0 1-.64-1.219c-.034-.506.117-.973.45-1.401.332-.428.755-.679 1.263-.749.51-.076.954.036 1.329.33Zm14.038-12.961c-.531-.414-1-.568-1.415-.461-.41.106-.816.38-1.219.825-.4.444-.842.975-1.32 1.591l-4.555 5.858c-.212.274-.425.528-.635.763-.21.235-.464.512-.766.828.322.221.64.442.954.657l.953.657-.839 1.08c-.755-.588-1.362-1.004-1.826-1.256-.464-.252-.844-.408-1.138-.473a2.309 2.309 0 0 0-.76-.055l-.744-.579 8.073-10.38c.265-.344.506-.643.721-.903a7.58 7.58 0 0 1 .738-.767 33.631 33.631 0 0 1-.839-.59c-.27-.198-.55-.394-.838-.59l.819-1.054 5.243 4.077-.607.772Zm-20.852 8.23c-.24.248-.475.483-.704.701-.227.219-.507.467-.842.75l.875.758.875.757-.953.982c-.685-.666-1.247-1.152-1.69-1.46-.44-.307-.804-.509-1.09-.606a2.293 2.293 0 0 0-.749-.14l-.677-.657 6.759-6.958a6.41 6.41 0 0 1-2.54-.492c-.832-.341-1.607-.858-2.323-1.555-.995-.967-1.66-2.083-1.994-3.344-.332-1.261-.302-2.561.093-3.904.394-1.339 1.182-2.617 2.362-3.83 1.287-1.323 2.69-2.19 4.209-2.604 1.521-.414 2.998-.439 4.43-.075a8.156 8.156 0 0 1 3.735 2.086c.529.514 1.015 1.174 1.457 1.982.442.808.638 1.734.593 2.777l1.58-.506.816.794-14.222 14.544Zm8.607-12.875c.803-.824 1.287-1.588 1.452-2.287.167-.699.123-1.339-.132-1.921a4.877 4.877 0 0 0-1.082-1.549c-.747-.727-1.597-1.144-2.55-1.253-.954-.109-1.94.059-2.962.503-1.02.445-2.007 1.158-2.96 2.137-1.03 1.057-1.799 2.117-2.313 3.174-.515 1.059-.73 2.074-.646 3.048.084.973.528 1.854 1.34 2.639.514.501 1.14.873 1.881 1.124a5.638 5.638 0 0 0 2.237.291l5.735-5.906Zm-6.809-12.862c-.427-.518-.855-.772-1.28-.758-.425.014-.881.193-1.37.539-.487.347-1.032.769-1.634 1.267l-11.864 9.81c-.269.22-.526.427-.775.62s-.554.409-.917.652l.786.85c.26.28.52.562.785.85l-1.054.872c-.61-.735-1.115-1.28-1.52-1.635-.406-.356-.745-.596-1.019-.722a2.397 2.397 0 0 0-.73-.221l-.6-.727 16.26-13.486c.335-.277.637-.515.911-.711.274-.198.574-.388.898-.573a39.257 39.257 0 0 1-.69-.758 34.09 34.09 0 0 0-.692-.757l1.03-.85 4.23 5.117-.755.621Zm-22.465 1.884c.266.372.35.805.252 1.3-.098.498-.367.904-.808 1.22-.442.316-.92.439-1.438.369-.517-.07-.909-.291-1.174-.66a1.6 1.6 0 0 1-.266-1.351c.115-.495.392-.9.83-1.216.442-.316.918-.436 1.424-.361.509.078.9.31 1.18.699Zm17.141-8.431c-.391-.548-.8-.827-1.224-.844-.425-.017-.892.131-1.404.444-.512.314-1.082.697-1.72 1.15l-6.034 4.32a15.18 15.18 0 0 1-.825.551c-.269.165-.593.358-.97.573.245.305.486.607.724.9.237.297.48.596.727.901l-1.113.797c-.557-.778-1.02-1.351-1.396-1.723-.374-.372-.693-.632-.956-.777a2.25 2.25 0 0 0-.713-.269l-.55-.766 10.69-7.656c.352-.252.668-.473.947-.66.28-.187.59-.361.926-.523a34.52 34.52 0 0 1-.638-.805 25.637 25.637 0 0 0-.637-.805l1.085-.778 3.867 5.4-.786.57Zm-7.57-14.378c.742 1.325 1.108 2.701 1.097 4.124a7.883 7.883 0 0 1-1.116 4.002c-.733 1.244-1.8 2.256-3.202 3.042-1.496.836-3.014 1.278-4.558 1.32-1.543.042-2.96-.282-4.256-.973-1.294-.694-2.318-1.712-3.073-3.054-.74-1.325-1.099-2.704-1.068-4.138a8.303 8.303 0 0 1 1.124-4.024c.719-1.247 1.77-2.26 3.152-3.034 1.456-.817 2.966-1.244 4.521-1.284 1.558-.039 2.99.286 4.293.974 1.305.685 2.334 1.702 3.087 3.045Zm-1.263.411c-.562-1.004-1.292-1.639-2.187-1.91-.898-.269-1.87-.277-2.922-.022a12.13 12.13 0 0 0-3.084 1.221 14.971 14.971 0 0 0-2.377 1.65 10.001 10.001 0 0 0-1.823 2.008c-.481.716-.77 1.457-.864 2.22-.096.764.07 1.521.492 2.279.55.985 1.286 1.631 2.203 1.938.917.308 1.913.352 2.987.137a10.843 10.843 0 0 0 3.17-1.197 12.99 12.99 0 0 0 3.068-2.351c.87-.909 1.451-1.882 1.742-2.917.291-1.035.157-2.052-.405-3.056Zm-5.548-14.773c.187.464.313.962.377 1.496.065.537-.01 1.088-.226 1.655-.215.568-.64 1.119-1.278 1.659-.637.539-1.557 1.051-2.765 1.54l-8.775 3.482.97 2.309-1.297.526c-.233-.514-.644-.967-1.236-1.362-.593-.391-1.298-.674-2.117-.847a6.404 6.404 0 0 0-2.472-.033l-.414-1.027 4.223-1.711-2.053-5.07 1.177-.475 2.111 5.044 8.412-3.336c.906-.366 1.644-.752 2.217-1.16.573-.408.95-.847 1.133-1.32.184-.472.165-.979-.056-1.524a3.085 3.085 0 0 0-1.124-1.39c-.52-.363-1.141-.62-1.86-.774l.333-1.085c.841.173 1.543.4 2.1.677.556.276 1.012.578 1.367.903.355.324.627.648.814.97.199.33.344.61.439.853Zm-6.197-14.605c-.17-.651-.453-1.06-.844-1.225-.392-.168-.88-.195-1.468-.086a28.2 28.2 0 0 0-2.016.461l-4.407 1.158c-1.807.475-3.082 1.118-3.834 1.932-.75.814-.953 1.837-.607 3.07a5.782 5.782 0 0 0 1.166 2.134c.554.651 1.172 1.132 1.86 1.445l9.286-2.438c.42-.109.794-.198 1.127-.263.33-.064.682-.112 1.057-.142-.109-.33-.212-.657-.307-.979a32.313 32.313 0 0 0-.308-.979l1.292-.338 1.686 6.423-.945.249c-.17-.652-.453-1.06-.844-1.225-.392-.165-.884-.198-1.474-.101-.59.101-1.264.249-2.02.448l-14.89 3.909c-.335.087-.656.168-.964.235-.308.07-.677.14-1.107.207.12.372.24.738.355 1.102l.358 1.101-1.323.347c-.243-.923-.473-1.63-.694-2.122-.218-.492-.425-.853-.62-1.082a2.337 2.337 0 0 0-.57-.507l-.241-.911 9.602-2.525a8.68 8.68 0 0 1-1.465-1.281 10.83 10.83 0 0 1-1.21-1.599 6.388 6.388 0 0 1-.759-1.737c-.478-1.826-.254-3.294.68-4.401.931-1.108 2.6-1.991 5.01-2.646l5.848-1.568c.42-.109.794-.202 1.121-.277.327-.076.68-.129 1.052-.16a30.2 30.2 0 0 1-.308-.978 32.313 32.313 0 0 0-.308-.979l1.292-.338 1.687 6.423-.946.243Zm-20.645-15.162-3.034 3.999c-.344.453-.674.724-.993.811-.318.09-.59.087-.819-.008-.23-.095-.38-.182-.453-.26a3.913 3.913 0 0 1-.257-.397c-.12-.205-.16-.462-.117-.772.041-.311.296-.643.757-1.001l4.072-3.196.844.824Zm19.451-.587c.162 1.488-.042 2.869-.612 4.144s-1.46 2.327-2.668 3.157c-1.208.831-2.684 1.343-4.432 1.533a9.151 9.151 0 0 1-4.351-.557 8.385 8.385 0 0 1-3.501-2.516c-.945-1.144-1.504-2.52-1.68-4.139a7.349 7.349 0 0 1 .159-2.586c.204-.82.57-1.564 1.099-2.232.528-.668 1.219-1.225 2.077-1.667.859-.441 1.89-.729 3.099-.861l1.437 11.37c1.639-.179 3.06-.515 4.262-1.007 1.202-.492 2.097-1.174 2.69-2.047.592-.872.819-1.935.682-3.185a6.384 6.384 0 0 0-.582-2.016 8.055 8.055 0 0 0-1.185-1.851c-.476-.559-.982-.995-1.519-1.309l.562-.847c.97.484 1.77 1.105 2.4 1.865a8.883 8.883 0 0 1 1.44 2.397c.338.836.542 1.622.623 2.354Zm-10.74 5.693-.9-8.251a7.509 7.509 0 0 0-2.213.584c-.699.305-1.25.741-1.658 1.312-.408.567-.565 1.272-.472 2.114.137 1.252.623 2.251 1.456 3 .837.749 2.098 1.163 3.787 1.241Zm18.013-24.064-.976-.034c.023-.671-.128-1.144-.456-1.415-.327-.271-.788-.439-1.384-.503a27.861 27.861 0 0 0-2.063-.135l-4.88-.165a5.759 5.759 0 0 1 1.443 2.134c.33.836.478 1.776.442 2.816-.045 1.345-.428 2.559-1.15 3.641-.72 1.082-1.713 1.929-2.983 2.536-1.27.61-2.738.884-4.41.828-1.82-.062-3.392-.49-4.712-1.284-1.32-.794-2.332-1.837-3.036-3.132-.705-1.294-1.032-2.709-.979-4.25.03-.912.179-1.737.442-2.478.263-.741.405-1.381.422-1.923a1.9 1.9 0 0 0-.092-.672 1.415 1.415 0 0 0-.389-.581l.03-.912 21.44.694c.433.014.82.033 1.155.056.335.022.688.072 1.054.151a31.826 31.826 0 0 1-.014-1.027c0-.335-.006-.679-.014-1.026l1.334.045-.224 6.636Zm-9.429 1.47c.025-.715-.148-1.409-.514-2.086a5.346 5.346 0 0 0-1.44-1.694l-8.524-.288c-.866-.031-1.59.064-2.175.285a2.557 2.557 0 0 0-1.34 1.127c-.31.531-.483 1.264-.514 2.198-.036 1.04.226 1.952.786 2.729.559.78 1.359 1.393 2.396 1.84 1.038.447 2.262.696 3.672.744 1.387.047 2.653-.112 3.794-.476 1.141-.363 2.061-.917 2.76-1.666.697-.744 1.066-1.65 1.1-2.713Zm3.252-15.732c-.215 1.152-.61 2.078-1.183 2.777-.573.699-1.406 1.149-2.505 1.354-1.1.204-2.52.139-4.27-.188l-5.696-1.065a34.905 34.905 0 0 1-1.02-.207 7.72 7.72 0 0 1-1.035-.311c-.048.367-.101.739-.16 1.113-.058.375-.112.747-.16 1.113l-1.31-.246.184-.992c.17-.918.207-1.6.103-2.05-.103-.45-.24-.811-.408-1.088l.174-.928 9.758 1.826c1.835.344 3.255.338 4.26-.014 1.003-.353 1.613-1.161 1.828-2.422.132-.814.025-1.636-.319-2.461a6.343 6.343 0 0 0-1.378-2.097l-8.221-1.538c-.512-.095-.954-.19-1.323-.279-.37-.09-.73-.202-1.08-.336-.05.389-.106.775-.167 1.161a39.62 39.62 0 0 0-.168 1.16L20.237 125l.184-.993c.17-.917.207-1.599.104-2.049-.104-.451-.24-.811-.409-1.088l.174-.929 12.088 2.296c.341.064.82.165 1.435.302.615.137 1.13.269 1.549.389l.15-1.163.152-1.164 1.342.252-.856 4.575c-.374-.003-.724-.02-1.051-.048-.327-.028-.63-.056-.912-.086a9.51 9.51 0 0 1 1.261 2.72c.308 1.029.372 2.014.196 2.95Zm4.826-18.469c-.489 1.415-1.263 2.575-2.326 3.484-1.063.909-2.315 1.479-3.76 1.712-1.447.234-3.001.064-4.662-.512a9.167 9.167 0 0 1-3.694-2.363 8.364 8.364 0 0 1-2.086-3.772c-.364-1.435-.28-2.922.251-4.46.3-.862.716-1.619 1.25-2.271a5.858 5.858 0 0 1 1.95-1.546c.763-.378 1.627-.585 2.589-.618.965-.034 2.022.148 3.168.545l-3.563 10.892c1.558.539 2.987.844 4.282.914 1.297.07 2.399-.162 3.308-.699.908-.534 1.568-1.398 1.98-2.587.22-.634.332-1.325.338-2.069a8.047 8.047 0 0 0-.28-2.181c-.19-.708-.461-1.32-.814-1.832l.87-.525c.668.853 1.127 1.756 1.367 2.712.244.956.336 1.885.277 2.782-.053.898-.204 1.698-.444 2.394Zm-12.14.548 2.714-7.844a7.547 7.547 0 0 0-2.248-.416c-.76-.023-1.448.137-2.058.475-.61.339-1.054.909-1.331 1.709-.411 1.188-.4 2.301.034 3.336.43 1.034 1.395 1.949 2.888 2.74Zm18.111-14.552c-.486.97-1.049 1.77-1.689 2.394-.64.623-1.247 1.099-1.82 1.42l1.076.394-.612 1.222-5.095-2.329.45-.903a4.74 4.74 0 0 0 2.475.4 4.829 4.829 0 0 0 2.257-.836 4.776 4.776 0 0 0 1.557-1.807c.252-.503.417-1.04.495-1.608a3.408 3.408 0 0 0-.145-1.602c-.174-.5-.523-.88-1.049-1.144-.543-.27-1.074-.338-1.594-.195-.52.14-1.046.405-1.58.794-.534.388-1.068.825-1.602 1.311a65.83 65.83 0 0 1-1.602 1.385 10.06 10.06 0 0 1-1.712 1.165 4.447 4.447 0 0 1-1.87.54c-.65.04-1.345-.126-2.08-.495a4.85 4.85 0 0 1-1.223-.903 4.504 4.504 0 0 1-.99-1.476c-.251-.588-.358-1.273-.321-2.053.039-.78.305-1.666.8-2.656.262-.523.64-1.063 1.135-1.617.495-.553 1.135-1.009 1.92-1.367l-1.135-.495.613-1.222 5.095 2.547-.467.932c-.7-.3-1.432-.473-2.198-.518a4.488 4.488 0 0 0-2.17.409c-.68.316-1.228.892-1.644 1.725-.448.892-.574 1.703-.378 2.43.193.727.582 1.236 1.166 1.53.602.302 1.197.36 1.784.181.588-.179 1.178-.498 1.768-.953a32.762 32.762 0 0 0 1.803-1.5c.68-.58 1.379-1.129 2.097-1.643.72-.515 1.466-.856 2.243-1.026.777-.171 1.602-.037 2.475.4.97.486 1.652 1.135 2.044 1.948.394.817.548 1.68.467 2.598a7.207 7.207 0 0 1-.744 2.623ZM40.686 66.07c-.453.555-.662 1.05-.629 1.486.036.436.188.805.456 1.11.268.305.523.553.755.746l6.342 5.202c.94.771 1.901 1.454 2.886 2.05.984.595 1.974 1.006 2.967 1.232a5.235 5.235 0 0 0 2.975-.19c.99-.352 1.946-1.09 2.869-2.214.99-1.208 1.513-2.428 1.569-3.66.056-1.231-.272-2.442-.985-3.628-.71-1.185-1.714-2.323-3.008-3.414l-7.01-5.875a22.31 22.31 0 0 1-.949-.82 79.463 79.463 0 0 1-.802-.74l-.683.934c-.223.307-.45.618-.682.934l-1.107-.91 3.845-4.677.83.68c-.506.65-.721 1.204-.646 1.66.076.456.33.881.764 1.278.433.397.942.85 1.535 1.362l5.8 4.837a17.475 17.475 0 0 1 2.832 2.912c.797 1.048 1.364 2.15 1.703 3.31a7.223 7.223 0 0 1 .112 3.585c-.266 1.228-.912 2.472-1.944 3.73-1.102 1.343-2.203 2.327-3.305 2.953-1.102.627-2.245.91-3.431.848-1.186-.06-2.436-.434-3.753-1.122-1.317-.688-2.754-1.67-4.317-2.95l-5.109-4.189a51.941 51.941 0 0 1-1.518-1.306c-.576-.514-1.015-.908-1.32-1.188-.232.316-.467.63-.705.937-.238.31-.475.62-.705.936l-1.082-.886 4.623-5.637.827.685Zm32.98-2.717c-1.004.864-2.126 1.39-3.364 1.58-1.239.19-2.495.02-3.77-.515-1.275-.534-2.458-1.434-3.545-2.704-1.16-1.35-1.913-2.777-2.263-4.278-.346-1.505-.293-2.964.16-4.385.453-1.42 1.289-2.654 2.508-3.7a8.39 8.39 0 0 1 1.798-1.18c.654-.318 1.216-.522 1.686-.612l-2.905-3.38a19.394 19.394 0 0 1-1.306-1.67l-.833.803-.834.802-.892-1.037c.725-.624 1.256-1.136 1.594-1.54.339-.406.568-.748.688-1.022.12-.276.19-.52.207-.735l.716-.615 13.769 16.02c.227.263.445.534.654.81.21.278.44.596.691.954.282-.271.56-.537.833-.802.274-.263.551-.532.834-.803l.892 1.038-3.53 3.034c-.262-.205-.491-.4-.693-.585a22.436 22.436 0 0 1-.581-.55 6.71 6.71 0 0 1-.652 2.684c-.422.886-1.04 1.68-1.862 2.388Zm-.151-1.972c.542-.467.956-1.093 1.238-1.879a6.03 6.03 0 0 0 .372-2.337 10.097 10.097 0 0 1-.564-.607l-.627-.727-6.085-7.13a5.36 5.36 0 0 0-1.856.458c-.59.263-1.13.607-1.625 1.032-.822.707-1.334 1.56-1.532 2.561-.199 1.001-.087 2.064.335 3.188.422 1.124 1.147 2.248 2.167 3.372.895.976 1.826 1.734 2.794 2.276.967.543 1.912.811 2.835.803.926-.009 1.773-.347 2.548-1.01Zm15.427-9.398c-1.267.8-2.598 1.222-3.99 1.27-1.396.047-2.73-.291-4.008-1.013-1.278-.721-2.382-1.826-3.322-3.31a9.15 9.15 0 0 1-1.41-4.153 8.355 8.355 0 0 1 .725-4.248c.612-1.348 1.605-2.458 2.98-3.325a7.335 7.335 0 0 1 2.397-.992 5.838 5.838 0 0 1 2.489.008c.833.182 1.636.56 2.41 1.136.775.576 1.485 1.378 2.134 2.404l-9.586 6.28c.881 1.396 1.807 2.526 2.774 3.39.968.864 1.974 1.37 3.02 1.521 1.043.151 2.097-.112 3.163-.783a6.434 6.434 0 0 0 1.557-1.406c.47-.58.85-1.203 1.144-1.877.294-.674.464-1.317.509-1.938l1.01.135c-.009 1.082-.219 2.075-.627 2.972-.408.9-.914 1.68-1.521 2.346-.61.66-1.225 1.192-1.849 1.583Zm-9.827-7.153 7.02-4.43a7.54 7.54 0 0 0-1.497-1.73c-.582-.492-1.216-.797-1.904-.915-.69-.117-1.393.05-2.109.504-1.065.67-1.75 1.546-2.058 2.626-.307 1.079-.125 2.393.548 3.945Zm28.294-2.441a773.03 773.03 0 0 0-5.062-4.991 289.903 289.903 0 0 1-5.055-5.065 102.552 102.552 0 0 1-1.597-1.63 73.82 73.82 0 0 1-1.563-1.677 177.033 177.033 0 0 0-1.555-1.698c.087.224.168.448.246.674.076.227.16.45.246.674.263.735.582 1.619.95 2.65.37 1.033.761 2.14 1.175 3.317.414 1.178.84 2.352 1.273 3.52l1.225 3.314c.153.453.313.904.475 1.351.162.45.299.872.41 1.272.376-.17.748-.338 1.114-.506.366-.165.738-.335 1.113-.506l.523 1.334-5.791 2.265-.392-1.001c.618-.266 1.026-.582 1.22-.948.192-.367.248-.777.164-1.236a10.122 10.122 0 0 0-.383-1.423l-4.83-14.049a45.868 45.868 0 0 0-.427-1.23 41.642 41.642 0 0 1-.417-1.2 49.09 49.09 0 0 1-1.073.473c-.361.153-.719.31-1.074.472l-.51-1.303 4.64-1.815 9.918 9.997c.501.503.996 1.01 1.485 1.516.49.506.99 1.012 1.499 1.51a99.38 99.38 0 0 1 1.527 1.535l.061-.023c.009-.632.017-1.387.023-2.262.005-.875.005-1.627-.006-2.25.02-2.57.073-5.16.16-7.769.086-2.609.128-5.288.125-8.034l4.486-1.753.391 1.001c-.512.18-.889.436-1.13.775-.24.338-.338.777-.288 1.32.048.54.255 1.216.618 2.03l6.183 13.483c.173.328.324.655.453.976.126.325.24.618.344.878a46.11 46.11 0 0 1 1.088-.478c.369-.156.732-.316 1.087-.478l.523 1.334-6.789 2.656-.392-1c.618-.266 1.024-.6 1.217-1.002.193-.403.221-.878.087-1.431-.135-.554-.372-1.206-.713-1.958l-4.519-9.767c-.146-.316-.294-.63-.439-.945-.146-.317-.294-.633-.439-.946-.146-.316-.294-.629-.439-.945l-.02.532a5.91 5.91 0 0 0 .006.592l-.23 19.521-.922.347Zm22.099-16.263-.28-2.263 11.468-1.412.262 2.131-11.45 1.544Z"/></svg>