<svg xmlns="http://www.w3.org/2000/svg" fill="none" viewBox="0 0 255 71"><path fill="#fff" d="M19.285 64.683c10.35 0 18.808-8.898 18.808-20.048L38.1 1.503V.715H26.152v45.952c0 4.843-3.485 7.096-6.862 7.096-3.38 0-6.862-2.253-6.862-7.096V.715H.476v.788l.005 43.132c0 11.153 8.455 20.048 18.803 20.048Z"/><path fill="#fff" d="M19.883 50.375h-1.23V2.695h1.23v47.68Zm3.24-1.032h-1.23V2.708h1.23v46.635Zm-6.53 0h-1.23V2.694h1.23v46.648Zm52.78-26.928c-.758.91-1.873 1.378-3.343 1.4l-6.545.105c.047-.303.075-.678.087-1.12.013-.442.018-.98.018-1.61V6.175c0-.84.017-1.575.052-2.205.035-.63.223-1.132.56-1.505.338-.372.94-.572 1.803-.595V.715H54.13v1.54c.42-.022.84-.047 1.26-.07.42-.022.84-.047 1.26-.07-.023.35-.047.74-.07 1.173-.023.432-.035.88-.035 1.347v15.12c0 .818-.017 1.545-.053 2.188-.034.642-.214 1.142-.542 1.505-.328.362-.933.564-1.82.612v1.155h17.36l.21-7.245h-1.19c0 2.053-.38 3.535-1.138 4.445Zm7.315 2.222c1.294.758 2.747 1.138 4.357 1.138.793 0 1.657-.127 2.59-.385a9.652 9.652 0 0 0 2.73-1.26c.888-.582 1.645-1.365 2.275-2.345l-.84-.7c-.397.537-.922 1.027-1.575 1.47a8.807 8.807 0 0 1-2.117 1.05c-.758.258-1.5.385-2.223.385-1.353 0-2.463-.367-3.325-1.102-.862-.736-1.487-1.773-1.873-3.116-.385-1.342-.577-2.9-.577-4.672l12.32-.21c0-1.308-.188-2.445-.56-3.413-.373-.967-.888-1.772-1.54-2.414a6.289 6.289 0 0 0-2.257-1.435 7.861 7.861 0 0 0-2.748-.473c-1.75 0-3.29.438-4.62 1.313a9.007 9.007 0 0 0-3.097 3.447 9.849 9.849 0 0 0-1.103 4.585c0 1.89.373 3.53 1.12 4.918.745 1.387 1.767 2.462 3.063 3.22Zm1.294-14.91c.898-.804 2.025-1.207 3.378-1.207.91 0 1.645.25 2.205.753.56.502.963 1.142 1.207 1.925a8.09 8.09 0 0 1 .368 2.432h-8.925c.28-1.798.867-3.098 1.767-3.902Zm20.493 14.386a5.525 5.525 0 0 1-1.785.297c-.888 0-1.715-.21-2.485-.63a5.18 5.18 0 0 1-1.89-1.768c-.49-.757-.757-1.614-.805-2.572h-1.085l.21 6.02h1.47l-.14-1.225c.582.398 1.33.753 2.24 1.067.91.316 1.948.473 3.115.473a7.82 7.82 0 0 0 2.887-.542 5.236 5.236 0 0 0 2.275-1.698c.595-.77.893-1.738.893-2.905 0-1.05-.268-1.907-.805-2.572-.538-.666-1.225-1.22-2.065-1.663a32.75 32.75 0 0 0-2.59-1.225 36.073 36.073 0 0 1-2.31-1.015c-.723-.35-1.313-.765-1.767-1.242-.456-.478-.683-1.08-.683-1.803 0-.7.302-1.317.91-1.855.608-.537 1.448-.805 2.52-.805 1.003 0 1.82.25 2.45.753a4.83 4.83 0 0 1 1.435 1.89 6.94 6.94 0 0 1 .56 2.362h1.12V7.33h-1.47l.07 1.33c-.723-.582-1.47-.98-2.24-1.19-.77-.21-1.47-.315-2.1-.315-1.19 0-2.17.17-2.94.508-.77.337-1.377.77-1.82 1.295a4.916 4.916 0 0 0-.945 1.662c-.188.583-.28 1.12-.28 1.61 0 .887.175 1.633.525 2.24a4.81 4.81 0 0 0 1.418 1.54c.595.42 1.242.782 1.942 1.085.7.303 1.4.595 2.1.875.722.28 1.4.582 2.03.91.63.328 1.138.705 1.523 1.137.384.433.577.976.577 1.628 0 .63-.198 1.15-.595 1.558a3.661 3.661 0 0 1-1.47.91ZM67.203 44.24c-1.203-.723-2.55-1.085-4.043-1.085-1.072 0-2.06.18-2.957.542a6.912 6.912 0 0 0-2.328 1.523V34.79H56.86c-.163.163-.39.315-.682.455-.293.14-.723.258-1.295.35-.573.093-1.37.14-2.398.14v1.47l1.242-.07 1.243-.07c-.047.468-.075.87-.087 1.208-.013.337-.018.694-.018 1.067l-.07 21.875h1.225l.84-1.575c.748.84 1.593 1.405 2.538 1.697.944.293 1.814.438 2.607.438a8.763 8.763 0 0 0 4.445-1.19c1.377-.793 2.498-1.92 3.36-3.377.862-1.458 1.295-3.18 1.295-5.163 0-1.82-.35-3.395-1.05-4.725-.7-1.33-1.65-2.358-2.853-3.08Zm-.386 12.547c-.454 1.108-1.09 1.978-1.907 2.608-.817.63-1.785.945-2.905.945a5.22 5.22 0 0 1-1.995-.385c-.63-.258-1.142-.718-1.54-1.383-.398-.665-.595-1.614-.595-2.852v-8.855a6.04 6.04 0 0 1 1.943-1.453 5.266 5.266 0 0 1 2.292-.542c1.212 0 2.218.345 3.01 1.033.792.687 1.387 1.632 1.785 2.834.397 1.203.595 2.596.595 4.183 0 1.47-.228 2.76-.683 3.867Zm9.293-21.052c-.49 0-.927.205-1.313.612a2.089 2.089 0 0 0-.577 1.488c0 .582.188 1.072.56 1.47.373.398.805.595 1.295.595.513 0 .962-.197 1.347-.595.386-.398.578-.888.578-1.47 0-.583-.18-1.08-.543-1.488a1.734 1.734 0 0 0-1.347-.612Zm1.54 24.15c.07-.397.11-.775.122-1.137.013-.363.018-.776.018-1.243v-14.14h-1.015a2.46 2.46 0 0 1-.683.455c-.292.14-.717.258-1.277.35-.56.093-1.352.14-2.38.14v1.47l1.242-.07 1.243-.07c-.047.468-.082.87-.105 1.207a16.47 16.47 0 0 0-.035 1.068v7.98c0 .84-.023 1.58-.07 2.222-.047.643-.21 1.143-.49 1.506-.28.362-.782.542-1.505.542v1.05h7.14V59.78c-.373.023-.74.04-1.103.053-.362.012-.73.03-1.102.052ZM94.608 44.24c-1.203-.723-2.55-1.085-4.043-1.085-1.072 0-2.06.18-2.957.542a6.912 6.912 0 0 0-2.328 1.523V34.79h-1.015c-.162.163-.39.315-.683.455-.292.14-.722.258-1.294.35-.573.093-1.37.14-2.398.14v1.47l1.242-.07 1.243-.07a19.859 19.859 0 0 0-.105 2.275l-.07 21.875h1.225l.84-1.575c.748.84 1.593 1.405 2.537 1.697.945.293 1.816.438 2.608.438a8.763 8.763 0 0 0 4.445-1.19c1.377-.793 2.498-1.92 3.36-3.377.862-1.458 1.295-3.18 1.295-5.163 0-1.82-.35-3.395-1.05-4.725-.7-1.33-1.652-2.358-2.852-3.08Zm-.386 12.547c-.454 1.108-1.09 1.978-1.907 2.608-.817.63-1.785.945-2.905.945a5.22 5.22 0 0 1-1.995-.385c-.63-.258-1.143-.718-1.54-1.383s-.595-1.614-.595-2.852v-8.855a6.04 6.04 0 0 1 1.942-1.453 5.266 5.266 0 0 1 2.293-.542c1.213 0 2.218.345 3.01 1.033.792.687 1.387 1.632 1.785 2.834.397 1.203.595 2.596.595 4.183 0 1.47-.228 2.76-.683 3.867Zm10.483 3.098c.07-.398.117-.775.14-1.137.022-.363.035-.776.035-1.243l-.035-22.715h-1.015a2.47 2.47 0 0 1-.683.455c-.292.14-.722.258-1.295.35-.572.093-1.37.14-2.397.14v1.47l1.242-.07 1.243-.07c-.048.468-.075.87-.088 1.208-.012.337-.017.694-.017 1.067v16.555c0 .84-.023 1.58-.07 2.222-.048.643-.21 1.143-.49 1.506-.28.362-.783.542-1.505.542v1.05h7.14V59.78c-.373.023-.74.04-1.103.053-.362.012-.73.03-1.102.052Zm8.467 0c.07-.397.11-.775.123-1.137.012-.363.017-.776.017-1.243v-14.14h-1.015c-.162.163-.39.315-.682.455-.293.14-.718.258-1.278.35-.56.093-1.352.14-2.38.14v1.47l1.243-.07 1.242-.07c-.047.468-.082.87-.105 1.207a16.47 16.47 0 0 0-.035 1.068v7.98c0 .84-.022 1.58-.07 2.222-.047.643-.21 1.143-.49 1.506-.28.362-.782.542-1.505.542v1.05h7.14V59.78c-.372.023-.74.04-1.102.053-.36.012-.728.03-1.103.052ZM111.597 39.9c.513 0 .963-.197 1.348-.595.385-.398.577-.888.577-1.47 0-.583-.18-1.08-.542-1.488a1.731 1.731 0 0 0-1.348-.612c-.49 0-.927.205-1.312.612a2.09 2.09 0 0 0-.578 1.488c0 .582.188 1.072.56 1.47.375.398.805.595 1.295.595Zm18.201 4.428c-1.33-.783-2.813-1.173-4.446-1.173-1.657 0-3.149.425-4.479 1.277-1.33.853-2.38 2.013-3.15 3.483-.77 1.47-1.155 3.127-1.155 4.97 0 1.727.39 3.26 1.172 4.602a8.46 8.46 0 0 0 3.168 3.15c1.33.758 2.812 1.138 4.444 1.138 1.658 0 3.151-.432 4.481-1.295 1.33-.862 2.385-2.035 3.167-3.517.78-1.483 1.173-3.12 1.173-4.918 0-1.703-.398-3.22-1.19-4.55a8.914 8.914 0 0 0-3.185-3.167Zm.332 12.267c-.315 1.12-.835 2.03-1.557 2.73-.723.7-1.703 1.05-2.94 1.05-1.238 0-2.263-.407-3.08-1.225-.818-.817-1.423-1.872-1.82-3.167a13.918 13.918 0 0 1-.595-4.113c0-1.282.179-2.485.542-3.605.363-1.12.928-2.03 1.698-2.73.77-.7 1.762-1.05 2.974-1.05.933 0 1.733.245 2.398.735s1.208 1.15 1.628 1.977c.42.828.729 1.75.927 2.765a16.22 16.22 0 0 1 .297 3.098c0 1.237-.157 2.415-.472 3.535Zm16.537 1.085c-.442.653-.949 1.167-1.522 1.54a3.31 3.31 0 0 1-1.838.56c-.63 0-1.142-.188-1.539-.56-.398-.373-.683-.928-.858-1.663-.175-.735-.262-1.627-.262-2.677l.069-9.73 5.881-.07v-1.365h-5.881v-4.9h-1.19a6.9 6.9 0 0 1-1.032 2.45c-.503.748-1.067 1.335-1.697 1.767-.63.433-1.248.66-1.855.683v1.505l2.694-.035-.069 10.15c0 1.4.14 2.525.42 3.377.28.853.66 1.5 1.137 1.943.478.442.997.74 1.557.892.56.153 1.108.228 1.646.228.28 0 .617-.03 1.014-.087.398-.058.828-.198 1.295-.42.468-.223.95-.556 1.453-.998.502-.443 1.01-1.05 1.523-1.82l-.946-.77Z"/><path fill="#fff" d="M164.062 59.885c.07-.398.11-.775.123-1.137.012-.363.017-.776.017-1.243l-.035-6.51c-.022-2.682-.485-4.66-1.382-5.932-.898-1.273-2.363-1.908-4.393-1.908-.652 0-1.325.105-2.012.315-.688.21-1.353.485-1.995.822a9.16 9.16 0 0 0-1.733 1.173V34.79h-1.015c-.162.163-.39.315-.682.455-.293.14-.723.258-1.295.35-.573.093-1.37.14-2.398.14v1.47l1.243-.07 1.242-.07c-.047.468-.075.87-.087 1.208-.013.337-.018.694-.018 1.067v16.555c0 .84-.03 1.58-.087 2.222-.058.643-.228 1.143-.508 1.506-.28.362-.782.542-1.505.542v1.05h7.14V59.78c-.372.023-.74.04-1.102.053-.363.012-.73.03-1.103.052.07-.398.118-.775.14-1.137.023-.363.035-.776.035-1.243V47.18c.513-.63 1.185-1.142 2.013-1.54a6.185 6.185 0 0 1 2.537-.63c1.378-.023 2.385.468 3.028 1.47.642 1.003.962 2.508.962 4.515v4.9c0 .84-.022 1.58-.07 2.222-.047.643-.21 1.143-.49 1.506-.28.362-.782.542-1.505.542v1.05h7.14V59.78c-.372.023-.74.04-1.102.053-.363.012-.73.03-1.103.052Zm9.59-22.68 3.92 3.71.98-.805-2.94-4.725c-.327-.538-.652-.845-.98-.927-.327-.083-.607-.07-.84.035-.232.104-.385.18-.455.227-.092.07-.205.223-.332.455-.128.233-.163.525-.105.875.057.35.31.735.752 1.155Zm7.455 21.35a8.804 8.804 0 0 1-2.117 1.05 6.89 6.89 0 0 1-2.223.385c-1.352 0-2.462-.367-3.325-1.102-.862-.735-1.487-1.773-1.872-3.115-.385-1.343-.578-2.9-.578-4.673l12.32-.21c0-1.307-.187-2.445-.56-3.413-.372-.967-.887-1.772-1.54-2.414a6.287 6.287 0 0 0-2.257-1.436 7.866 7.866 0 0 0-2.748-.472c-1.75 0-3.29.438-4.62 1.313a9.006 9.006 0 0 0-3.097 3.447 9.85 9.85 0 0 0-1.103 4.585c0 1.89.373 3.53 1.12 4.917.748 1.388 1.768 2.463 3.063 3.22 1.295.758 2.747 1.138 4.357 1.138.793 0 1.658-.127 2.59-.385a9.64 9.64 0 0 0 2.73-1.26c.888-.583 1.645-1.365 2.275-2.345l-.84-.7c-.397.538-.922 1.027-1.575 1.47Zm-8.242-12.828c.897-.804 2.025-1.207 3.377-1.207.91 0 1.645.25 2.205.752.56.503.963 1.143 1.208 1.925.245.783.367 1.593.367 2.433h-8.925c.28-1.797.87-3.098 1.768-3.903Zm28.052 23.083c.07-.398.11-.775.123-1.138.012-.362.017-.775.017-1.242l-.035-23.065h-.98a1.54 1.54 0 0 1-.612.438c-.223.082-.46.122-.718.122-.582 0-1.277-.127-2.082-.385-.805-.258-1.698-.385-2.678-.385-1.657 0-3.167.402-4.532 1.207-1.365.805-2.45 1.93-3.255 3.378-.805 1.447-1.208 3.15-1.208 5.11 0 1.797.35 3.365 1.05 4.707.7 1.343 1.645 2.38 2.835 3.115 1.19.736 2.508 1.103 3.955 1.103 1.12 0 2.123-.192 3.01-.578a6.162 6.162 0 0 0 2.24-1.627v5.25c0 .84-.022 1.58-.07 2.223-.047.642-.21 1.142-.49 1.504-.28.363-.782.543-1.505.543v1.05h7.14v-1.435c-.372.023-.74.04-1.102.052-.363.01-.73.028-1.103.053Zm-2.87-10.99a5.717 5.717 0 0 1-1.767 1.61c-.713.42-1.453.63-2.223.63-1.142 0-2.13-.363-2.957-1.085-.828-.723-1.458-1.693-1.89-2.905-.433-1.212-.648-2.568-.648-4.06 0-1.517.223-2.84.665-3.972.443-1.133 1.073-2.013 1.89-2.643.818-.63 1.785-.945 2.905-.945 1.003 0 1.798.157 2.38.472a2.743 2.743 0 0 1 1.26 1.4c.258.618.385 1.395.385 2.328v9.17Zm21.56 2.065c.048-.467.083-1.038.105-1.715.023-.678.035-1.202.035-1.575l.035-13.23h-1.015c-.257.233-.612.45-1.067.648-.455.197-1.185.297-2.188.297h-1.085v1.435c.42-.023.84-.04 1.26-.052.42-.013.84-.03 1.26-.053-.07.398-.117.8-.14 1.207-.022.408-.035.893-.035 1.453v8.995c-.49.722-1.137 1.348-1.942 1.873-.805.525-1.65.8-2.538.822-1.377.023-2.35-.46-2.922-1.453-.573-.992-.858-2.49-.858-4.497V43.365h-1.015c-.257.233-.612.45-1.067.648-.455.197-1.185.297-2.188.297h-1.085v1.435c.398-.023.8-.04 1.208-.052.407-.013.81-.03 1.207-.053-.07.398-.11.782-.122 1.155-.013.372-.018.748-.018 1.12v6.23c0 1.912.215 3.43.648 4.55.432 1.12 1.072 1.913 1.925 2.38.852.467 1.907.7 3.167.7 1.028 0 2.053-.262 3.08-.787 1.028-.525 1.903-1.15 2.625-1.873.023.302.053.63.088.98.035.35.087.723.157 1.12h5.005v-1.47c-.42.023-.84.048-1.26.07-.42.023-.84.048-1.26.07Zm17.325-1.33a8.804 8.804 0 0 1-2.117 1.05 6.89 6.89 0 0 1-2.223.385c-1.352 0-2.462-.367-3.325-1.102-.862-.735-1.487-1.773-1.872-3.115-.385-1.343-.578-2.9-.578-4.673l12.32-.21c0-1.307-.187-2.445-.56-3.413-.372-.967-.887-1.772-1.54-2.414a6.287 6.287 0 0 0-2.257-1.436 7.866 7.866 0 0 0-2.748-.472c-1.75 0-3.29.438-4.62 1.313a9.006 9.006 0 0 0-3.097 3.447 9.85 9.85 0 0 0-1.103 4.585c0 1.89.373 3.53 1.12 4.917.748 1.388 1.768 2.463 3.063 3.22 1.295.758 2.747 1.138 4.357 1.138.793 0 1.658-.127 2.59-.385a9.64 9.64 0 0 0 2.73-1.26c.888-.583 1.645-1.365 2.275-2.345l-.84-.7c-.397.538-.922 1.027-1.575 1.47Zm-8.242-12.828c.897-.804 2.025-1.207 3.377-1.207.91 0 1.645.25 2.205.752.56.503.963 1.143 1.208 1.925.245.783.367 1.593.367 2.433h-8.925c.28-1.797.868-3.098 1.768-3.903Zm24.587 8.33c-.537-.665-1.225-1.22-2.065-1.662a32.667 32.667 0 0 0-2.59-1.225 36.321 36.321 0 0 1-2.31-1.015c-.722-.35-1.312-.765-1.767-1.242-.455-.478-.682-1.08-.682-1.803 0-.7.302-1.318.91-1.855.607-.538 1.447-.805 2.52-.805 1.002 0 1.819.25 2.449.752a4.82 4.82 0 0 1 1.435 1.89c.328.758.513 1.546.56 2.363h1.121V43.33h-1.47l.069 1.33c-.722-.582-1.47-.98-2.24-1.19-.77-.21-1.47-.315-2.1-.315-1.19 0-2.169.17-2.939.508-.77.337-1.378.77-1.821 1.295a4.913 4.913 0 0 0-.944 1.662c-.188.583-.28 1.12-.28 1.61 0 .888.175 1.633.525 2.24.35.608.822 1.12 1.417 1.54.595.42 1.243.782 1.943 1.085.7.303 1.399.595 2.099.875.723.28 1.4.583 2.03.91.63.328 1.138.705 1.523 1.137.385.433.577.975.577 1.628 0 .63-.197 1.15-.595 1.557a3.654 3.654 0 0 1-1.47.91 5.52 5.52 0 0 1-1.785.298c-.887 0-1.714-.21-2.484-.63a5.18 5.18 0 0 1-1.89-1.767c-.49-.758-.758-1.615-.806-2.573h-1.084l.209 6.02h1.47l-.139-1.225c.582.398 1.33.752 2.24 1.068.91.315 1.947.472 3.114.472 1.003 0 1.966-.18 2.888-.542a5.236 5.236 0 0 0 2.275-1.698c.595-.77.892-1.737.892-2.905 0-1.05-.27-1.908-.805-2.573Z"/></svg>